<svg width="86" height="130" viewBox="0 0 86 130" fill="none" xmlns="http://www.w3.org/2000/svg">
<path d="M33.229 120.279C33.229 120.279 36.758 114.631 41.2887 117.971C45.8195 121.31 54.2101 126.945 54.2101 126.945C54.2101 126.945 55.9286 130.55 51.4806 129.196C47.0326 127.842 32.5122 125.663 32.5122 125.663L33.229 120.279Z" fill="#FEB8B8"/>
<path d="M16.3177 127.402C12.5744 127.402 9.14743 127.043 6.4246 126.195C3.1882 125.187 1.1561 123.556 0.384043 121.345C0.0212532 120.406 -0.0870787 119.388 0.070028 118.393C0.227135 117.399 0.6441 116.464 1.27867 115.683C6.06643 109.441 22.6808 107.68 24.9101 107.472L29.4327 98.9026C29.722 96.858 28.3529 95.3102 30.7184 95.2716L58.6997 94.8913C61.0228 94.8425 60.3635 96.2819 60.7613 98.2754L65.0244 105.89L46.6765 113.639L49.4506 120.403L49.2695 120.508C43.8997 123.625 28.4568 127.402 16.3177 127.402Z" fill="#2F2E41"/>
<path d="M62.1713 105.912C62.1713 105.912 87.5794 103.046 85.9223 114.513C84.2653 125.981 64.933 134.104 35.6585 114.513L38.9726 108.779C38.9726 108.779 49.8816 108.244 56.5098 105.377L62.1713 105.912Z" fill="#2F2E41"/>
<path d="M26.3688 52.9722C26.3688 52.9722 21.4212 52.0827 20.0718 59.6436C18.7225 67.2046 16.561 85.1146 16.561 85.1146L9.84982 108.121C9.05827 108.536 8.40261 109.166 7.95942 109.936C7.51623 110.706 7.30382 111.585 7.34697 112.47C7.39013 113.356 7.68707 114.21 8.20313 114.935C8.71919 115.659 9.43306 116.224 10.2614 116.562C11.0897 116.9 11.9982 116.998 12.8809 116.845C13.7635 116.692 14.5839 116.294 15.2461 115.696C15.9084 115.099 16.3851 114.328 16.6207 113.473C16.8563 112.618 16.8411 111.715 16.5767 110.868L25.5566 86.4506L27.2683 65.4273V54.4115C27.2683 54.1126 27.1842 53.8197 27.0253 53.5655C26.8664 53.3113 26.6391 53.1059 26.3688 52.9722Z" fill="#FEB8B8"/>
<path d="M59.6313 52.9722C59.6313 52.9722 64.5788 52.0827 65.9282 59.6436C67.2776 67.2046 69.439 85.1146 69.439 85.1146L76.1502 108.121C76.9418 108.536 77.5974 109.166 78.0406 109.936C78.4838 110.706 78.6962 111.585 78.6531 112.47C78.6099 113.356 78.313 114.21 77.7969 114.935C77.2808 115.659 76.567 116.224 75.7387 116.562C74.9104 116.9 74.0018 116.998 73.1192 116.845C72.2365 116.692 71.4162 116.294 70.7539 115.696C70.0917 115.099 69.6149 114.328 69.3793 113.473C69.1437 112.618 69.1589 111.715 69.4233 110.868L60.4434 86.4506L58.7317 65.4273V54.4115C58.7317 54.1126 58.8159 53.8197 58.9747 53.5655C59.1336 53.3113 59.361 53.1059 59.6313 52.9722Z" fill="#FEB8B8"/>
<path d="M60.1565 47.1627L50.8829 43.7291L32.908 43.4995L25.1707 47.1627L27.3438 59.5262C27.3438 59.5262 22.9563 66.8807 27.7871 74.2361L28.8712 100.445C28.8712 100.445 46.2013 110.393 60.8293 98.4467L57.5231 74.0789C57.5231 74.0789 63.0531 62.773 58.7668 58.5728L60.1565 47.1627Z" fill="#F0E8E8"/>
<path d="M55.5854 50.5357L59.5957 46.6465C59.5957 46.6465 68.3483 50.9916 68.168 65.5245L57.1271 62.3131L55.5854 50.5357Z" fill="#F0E8E8"/>
<path d="M29.3659 50.6489L25.5142 46.6465C25.5142 46.6465 18.7179 52.1092 18.8809 66.5733L27.9721 62.3705L29.3659 50.6489Z" fill="#F0E8E8"/>
<path d="M55.4449 116.774C55.4449 116.774 52.5568 110.544 47.7334 113.531C42.91 116.517 34.0354 121.478 34.0354 121.478C34.0354 121.478 31.9596 125.036 36.4922 124.1C41.0248 123.164 55.5854 122.434 55.5854 122.434L55.4449 116.774Z" fill="#FEB8B8"/>
<path d="M47.3273 9.86454C47.3686 9.82606 47.4117 9.79153 47.4525 9.75206C50.0635 7.21887 50.5927 3.62513 48.6343 1.72523C46.7838 -0.070244 43.3751 0.292109 40.8022 2.47511C38.5961 0.437452 35.6381 -0.130607 33.7235 1.27604C31.5156 2.89807 31.5328 6.52825 33.7621 9.38429C33.9147 9.57986 34.0749 9.76476 34.2394 9.94268C31.2729 10.9962 28.7115 12.9084 26.9019 15.4206C25.0924 17.9328 24.1219 20.9237 24.1219 23.9886V38.2238C24.122 38.6412 24.2067 39.0546 24.3713 39.4402C24.536 39.8259 24.7773 40.1763 25.0816 40.4715C25.3858 40.7666 25.747 41.0008 26.1445 41.1605C26.542 41.3202 26.968 41.4024 27.3983 41.4024H54.5165C55.3563 41.4024 56.1617 41.0788 56.7555 40.5027C57.3493 39.9266 57.6829 39.1452 57.6829 38.3305V23.9886C57.6824 20.8825 56.6851 17.8536 54.8293 15.3225C52.9736 12.7915 50.3515 10.8838 47.3273 9.86454Z" fill="#2F2E41"/>
<path d="M50.2626 36.5267C55.1657 31.6236 55.1657 23.6742 50.2626 18.7712C45.3596 13.8681 37.4102 13.8681 32.5071 18.7712C27.6041 23.6742 27.6041 31.6236 32.5071 36.5267C37.4102 41.4297 45.3596 41.4297 50.2626 36.5267Z" fill="#FFB6B6"/>
<path d="M28.3171 20.0156C31.144 22.0536 34.4993 23.1383 37.9326 23.1239C36.7079 24.0121 35.3137 24.6121 33.846 24.8825C38.4108 25.9067 43.1286 25.9344 47.7041 24.9639C48.7212 24.7934 49.7026 24.4408 50.6052 23.9217C51.055 23.659 51.4469 23.3001 51.7554 22.8686C52.0639 22.437 52.2821 21.9423 52.3959 21.4167C52.6999 19.5999 51.3465 17.9493 49.9399 16.8369C47.7864 15.1597 45.3035 14.0041 42.6706 13.4538C40.0378 12.9035 37.3209 12.9722 34.7166 13.6549C33.016 14.1147 31.3125 14.8916 30.2079 16.32C29.1033 17.7485 28.7762 19.9507 29.8285 21.4217L28.3171 20.0156Z" fill="#2F2E41"/>
</svg>
