<svg width="241" height="145" viewBox="0 0 241 145" fill="none" xmlns="http://www.w3.org/2000/svg">
<g clip-path="url(#clip0_25_141)">
<path d="M234.671 145C256.75 106.035 214.402 86.0789 208.951 127.226C208.675 121.915 208.383 116.52 206.615 111.504C203.93 101.098 189.341 93.5578 182.372 104.091C178.689 110.618 183.574 119.774 179.337 125.958C176.665 110.393 154.013 114.044 156.398 129.662C158.189 137.166 166.135 141.532 172.477 144.927L234.671 145Z" fill="#F2F2F2"/>
<path d="M159.643 120.234C170.851 123.862 184.857 129.974 185.993 143.333C186.026 143.863 186.856 143.866 186.824 143.333C186.533 138.616 184.229 134.299 181.039 130.885C177.541 127.142 173.008 124.586 168.327 122.603C167.413 122.391 157.888 117.896 159.643 120.234Z" fill="white"/>
<path d="M187.959 100.695C195.715 113.617 199.406 128.564 198.553 143.602C198.522 144.135 199.352 144.133 199.383 143.602C200.044 131.782 197.934 119.972 193.221 109.108C192.692 108.135 188.422 97.8961 187.959 100.695Z" fill="white"/>
<path d="M228.605 105.454C223.138 117.72 219.753 130.807 218.59 144.181C218.544 144.712 219.375 144.709 219.421 144.181C220.325 133.869 222.559 123.716 226.067 113.974C226.057 112.888 230.844 104.081 228.605 105.454V105.454Z" fill="white"/>
<path d="M132.408 144.33C138.728 133.176 126.606 127.463 125.045 139.242C124.966 137.722 124.882 136.177 124.376 134.741C123.608 131.762 119.432 129.604 117.437 132.619C116.382 134.488 117.781 137.108 116.568 138.879C115.803 134.423 109.319 135.468 110.002 139.939C110.514 142.087 112.789 143.337 114.604 144.309L132.408 144.33Z" fill="#F2F2F2"/>
<path d="M110.93 137.24C114.139 138.279 118.148 140.028 118.473 143.853C118.483 144.004 118.72 144.005 118.711 143.853C118.589 142.509 118.003 141.25 117.055 140.289C116.022 139.254 114.782 138.446 113.416 137.918C113.155 137.858 110.428 136.571 110.93 137.24Z" fill="white"/>
<path d="M119.036 131.647C121.256 135.346 122.313 139.625 122.069 143.93C122.06 144.082 122.298 144.082 122.306 143.93C122.496 140.546 121.892 137.165 120.542 134.055C120.391 133.777 119.168 130.846 119.036 131.647V131.647Z" fill="white"/>
<path d="M130.671 133.01C129.106 136.521 128.137 140.267 127.805 144.095C127.791 144.247 128.029 144.247 128.042 144.095C128.301 141.143 128.941 138.237 129.945 135.448C129.942 135.138 131.312 132.616 130.671 133.01Z" fill="white"/>
<path d="M91.8959 6.13396H0.323577C0.237759 6.13396 0.155456 6.09995 0.0947733 6.0394C0.0340908 5.97886 0 5.89674 0 5.81112C0 5.7255 0.0340908 5.64338 0.0947733 5.58284C0.155456 5.52229 0.237759 5.48828 0.323577 5.48828H91.8959C91.9817 5.48828 92.064 5.52229 92.1247 5.58284C92.1854 5.64338 92.2195 5.7255 92.2195 5.81112C92.2195 5.89674 92.1854 5.97886 92.1247 6.0394C92.064 6.09995 91.9817 6.13396 91.8959 6.13396Z" fill="#3F3D56"/>
<path d="M73.0635 10.9765C76.1015 10.9765 78.5643 8.51933 78.5643 5.48825C78.5643 2.45718 76.1015 0 73.0635 0C70.0255 0 67.5627 2.45718 67.5627 5.48825C67.5627 8.51933 70.0255 10.9765 73.0635 10.9765Z" fill="#F0E8E8"/>
<path d="M91.8959 26.7956H0.323577C0.237759 26.7956 0.155456 26.7616 0.0947733 26.701C0.0340908 26.6405 0 26.5584 0 26.4727C0 26.3871 0.0340908 26.305 0.0947733 26.2445C0.155456 26.1839 0.237759 26.1499 0.323577 26.1499H91.8959C91.9817 26.1499 92.064 26.1839 92.1247 26.2445C92.1854 26.305 92.2195 26.3871 92.2195 26.4727C92.2195 26.5584 92.1854 26.6405 92.1247 26.701C92.064 26.7616 91.9817 26.7956 91.8959 26.7956Z" fill="#3F3D56"/>
<path d="M21.9383 31.6381C24.9763 31.6381 27.4391 29.181 27.4391 26.1499C27.4391 23.1188 24.9763 20.6616 21.9383 20.6616C18.9003 20.6616 16.4375 23.1188 16.4375 26.1499C16.4375 29.181 18.9003 31.6381 21.9383 31.6381Z" fill="#F0E8E8"/>
<path d="M91.8959 47.4572H0.323577C0.237759 47.4572 0.155456 47.4232 0.0947733 47.3626C0.0340908 47.3021 0 47.22 0 47.1344C0 47.0487 0.0340908 46.9666 0.0947733 46.9061C0.155456 46.8455 0.237759 46.8115 0.323577 46.8115H91.8959C91.9817 46.8115 92.064 46.8455 92.1247 46.9061C92.1854 46.9666 92.2195 47.0487 92.2195 47.1344C92.2195 47.22 92.1854 47.3021 92.1247 47.3626C92.064 47.4232 91.9817 47.4572 91.8959 47.4572Z" fill="#3F3D56"/>
<path d="M43.6179 52.2998C46.656 52.2998 49.1188 49.8426 49.1188 46.8115C49.1188 43.7804 46.656 41.3232 43.6179 41.3232C40.5799 41.3232 38.1171 43.7804 38.1171 46.8115C38.1171 49.8426 40.5799 52.2998 43.6179 52.2998Z" fill="#F0E8E8"/>
<path d="M133.82 50.7394C133.934 50.8933 134.035 51.0558 134.123 51.2255L151.177 53.1388L153.658 49.7952L159.205 52.8705L154.322 60.9922L133.428 55.5212C132.896 56.0312 132.221 56.3676 131.493 56.4857C130.765 56.6038 130.019 56.4979 129.352 56.1822C128.686 55.8666 128.132 55.356 127.764 54.7185C127.395 54.0809 127.23 53.3466 127.29 52.6132C127.351 51.8798 127.633 51.182 128.1 50.6127C128.568 50.0434 129.198 49.6295 129.907 49.4261C130.615 49.2227 131.369 49.2394 132.068 49.474C132.768 49.7086 133.378 50.15 133.82 50.7394Z" fill="#FFB8B8"/>
<path d="M157.993 55.7792C157.855 55.719 157.727 55.6393 157.613 55.5427L150.758 49.7817C150.594 49.6433 150.459 49.4722 150.364 49.2794C150.269 49.0865 150.215 48.8761 150.206 48.6614C150.196 48.4466 150.232 48.2323 150.31 48.0319C150.388 47.8315 150.506 47.6494 150.658 47.4971L156.878 41.2657C157.139 41.0019 157.487 40.8405 157.858 40.811C158.228 40.7816 158.597 40.886 158.897 41.1053L163.6 44.5132C163.894 44.7261 164.104 45.0345 164.194 45.3853C164.284 45.736 164.248 46.1071 164.093 46.4345L160.024 55.0186C159.851 55.3838 159.542 55.6674 159.163 55.8094C158.784 55.9513 158.364 55.9405 157.993 55.7792H157.993Z" fill="#F0E8E8"/>
<path d="M184.728 137.257L180.634 138.368L174.389 123.143L180.431 121.503L184.728 137.257Z" fill="#FFB8B8"/>
<path d="M177.069 138.082L185.287 135.851L186.639 140.81L173.773 144.303L173.685 143.981C173.35 142.751 173.518 141.439 174.152 140.332C174.787 139.226 175.836 138.416 177.069 138.082Z" fill="#2F2E41"/>
<path d="M149.73 140.374L145.488 140.373L143.47 124.046L149.731 124.047L149.73 140.374Z" fill="#FFB8B8"/>
<path d="M142.123 139.164H150.64V144.304H137.306V143.97C137.306 142.695 137.813 141.473 138.717 140.572C139.62 139.67 140.845 139.164 142.123 139.164Z" fill="#2F2E41"/>
<path d="M162.132 30.0906C165.451 26.7789 165.451 21.4096 162.132 18.0979C158.813 14.7862 153.431 14.7862 150.112 18.0979C146.792 21.4096 146.792 26.7789 150.112 30.0906C153.431 33.4023 158.813 33.4023 162.132 30.0906Z" fill="#FFB8B8"/>
<path d="M149.471 128.733H143.673C143.277 128.732 142.895 128.581 142.607 128.31C142.318 128.039 142.143 127.669 142.117 127.275C140.39 99.8736 141.4 80.2183 145.297 65.4186C145.315 65.3539 145.336 65.2902 145.361 65.2281L145.671 64.4536C145.786 64.1647 145.985 63.9169 146.243 63.7427C146.501 63.5685 146.806 63.4758 147.117 63.4768H159.039C159.264 63.4766 159.486 63.525 159.69 63.6187C159.894 63.7124 160.076 63.849 160.222 64.0193L161.841 65.9045C161.873 65.9412 161.902 65.9787 161.931 66.0181C169.233 76.1779 175.777 96.0406 183.356 122.738C183.468 123.126 183.424 123.542 183.232 123.898C183.041 124.254 182.718 124.521 182.332 124.643L176.102 126.632C175.744 126.745 175.358 126.725 175.013 126.577C174.669 126.43 174.389 126.163 174.224 125.827L158.055 92.3681C157.942 92.1342 157.757 91.9429 157.526 91.8225C157.296 91.7021 157.032 91.6589 156.775 91.6994C156.518 91.74 156.281 91.862 156.099 92.0475C155.917 92.2329 155.8 92.472 155.764 92.7292L151.014 127.389C150.962 127.761 150.777 128.101 150.493 128.348C150.21 128.595 149.847 128.731 149.471 128.733Z" fill="#2F2E41"/>
<path d="M161.188 66.0426C161.171 66.0426 161.155 66.0423 161.139 66.0419L146.657 65.5857C146.284 65.5753 145.928 65.4317 145.653 65.1811C145.378 64.9304 145.203 64.5895 145.159 64.2205C143.323 49.3942 148.358 45.4222 150.608 44.403C150.796 44.3183 150.959 44.1866 151.081 44.0207C151.203 43.8548 151.279 43.6602 151.304 43.4558L151.499 41.9018C151.532 41.6274 151.638 41.3668 151.806 41.1472C155.334 36.5879 160.151 35.1279 162.708 34.6636C162.915 34.6264 163.128 34.6317 163.334 34.6791C163.539 34.7265 163.732 34.815 163.902 34.9393C164.072 35.0637 164.215 35.2211 164.322 35.4022C164.429 35.5833 164.498 35.7842 164.525 35.9928L164.817 38.2242C164.847 38.4371 164.932 38.6384 165.064 38.8082C172.421 48.4039 164.225 62.572 162.507 65.3146C162.367 65.5373 162.172 65.7209 161.941 65.8482C161.711 65.9755 161.451 66.0424 161.188 66.0426Z" fill="#F0E8E8"/>
<path d="M159.837 87.1161C160.282 86.8048 160.653 86.3998 160.924 85.9299C161.195 85.4599 161.36 84.9364 161.406 84.3961C161.453 83.8559 161.38 83.312 161.193 82.8029C161.006 82.2938 160.709 81.8318 160.324 81.4494L163.014 49.0386L155.004 50.1379L154.852 81.6279C154.251 82.3164 153.924 83.201 153.933 84.1138C153.942 85.0267 154.287 85.9046 154.901 86.5811C155.516 87.2576 156.357 87.6857 157.267 87.7843C158.177 87.8829 159.091 87.6452 159.837 87.1161H159.837Z" fill="#FFB8B8"/>
<path d="M163.537 53.7055C163.387 53.7055 163.238 53.6839 163.094 53.6415L154.496 51.1184C154.289 51.0578 154.097 50.955 153.932 50.8166C153.767 50.6783 153.633 50.5073 153.538 50.3145C153.443 50.1217 153.389 49.9112 153.379 49.6965C153.37 49.4818 153.405 49.2674 153.483 49.067L156.665 40.8655C156.797 40.5191 157.051 40.2319 157.378 40.0562C157.705 39.8806 158.085 39.8282 158.448 39.9086L164.128 41.1407C164.483 41.2177 164.799 41.4159 165.023 41.7009C165.247 41.9859 165.364 42.3399 165.354 42.7018L165.09 52.194C165.079 52.5979 164.91 52.9815 164.62 53.2636C164.33 53.5457 163.942 53.7042 163.537 53.7056V53.7055Z" fill="#F0E8E8"/>
<path d="M235.246 144.955H111.963C111.877 144.955 111.795 144.92 111.734 144.86C111.673 144.799 111.639 144.717 111.639 144.632C111.639 144.546 111.673 144.464 111.734 144.403C111.795 144.343 111.877 144.309 111.963 144.309H235.246C235.332 144.309 235.414 144.343 235.474 144.403C235.535 144.464 235.569 144.546 235.569 144.632C235.569 144.717 235.535 144.799 235.474 144.86C235.414 144.92 235.332 144.955 235.246 144.955Z" fill="#3F3D56"/>
<path d="M165.473 18.8202C164.842 16.9109 164.376 14.951 164.08 12.9622C163.988 11.8043 164.285 10.5585 165.13 9.75958C166.712 8.26448 169.399 8.97658 171.053 10.3915C173.444 12.4365 174.636 15.5791 175.086 18.6885C175.537 21.7978 175.339 24.9598 175.447 28.0996C175.556 31.2394 176.006 34.4679 177.61 37.1712C179.214 39.8745 182.192 41.9495 185.332 41.7194C186.6 41.6511 187.803 41.1422 188.734 40.281C189.191 39.8473 189.537 39.3107 189.743 38.716C189.949 38.1214 190.01 37.4861 189.919 36.8634C191.524 39.731 190.71 43.6175 188.316 45.8718C185.922 48.1261 182.239 48.7634 179.092 47.8009C175.944 46.8384 173.354 44.4251 171.807 41.526C170.259 38.627 169.692 35.2781 169.775 31.9947C169.838 29.4732 170.267 26.9312 169.84 24.4452C169.413 21.9593 167.854 19.4351 165.395 18.8497L165.473 18.8202Z" fill="#2F2E41"/>
<path d="M154.431 22.0887C154.012 23.486 152.408 24.3476 150.965 24.1113C149.523 23.8749 148.337 22.6896 147.898 21.2982C147.502 19.8771 147.664 18.3586 148.352 17.0527C148.731 16.27 149.261 15.5695 149.911 14.9913C150.562 14.4131 151.32 13.9687 152.143 13.6833C152.971 13.4096 153.852 13.3385 154.713 13.4757C155.574 13.613 156.39 13.9547 157.091 14.472C157.165 14.1581 157.322 13.8697 157.546 13.6365C157.769 13.4034 158.051 13.2338 158.362 13.1454C158.988 12.977 159.649 12.9867 160.27 13.1735C162.059 13.6822 163.61 14.8075 164.646 16.3493C165.668 17.8864 166.345 19.6264 166.629 21.4495C167.117 24.1835 166.937 27.171 165.398 29.4849C163.859 31.7988 160.71 33.1651 158.156 32.0619C157.996 31.2495 158.374 30.4315 158.81 29.7276C159.247 29.0236 159.764 28.3378 159.932 27.5271C160.1 26.7164 159.778 25.7248 158.992 25.4596C158.322 25.2334 157.607 25.5999 156.9 25.6442C156.499 25.6693 156.098 25.5887 155.738 25.4105C155.378 25.2324 155.071 24.9628 154.849 24.629C154.626 24.2952 154.495 23.9088 154.469 23.5085C154.443 23.1083 154.523 22.7084 154.701 22.3488L154.431 22.0887Z" fill="#2F2E41"/>
</g>
<defs>
<clipPath id="clip0_25_141">
<rect width="241" height="145" fill="white"/>
</clipPath>
</defs>
</svg>
