<svg width="241" height="169" viewBox="0 0 241 169" fill="none" xmlns="http://www.w3.org/2000/svg">
<g clip-path="url(#clip0_25_91)">
<path d="M212.827 164.751L208.795 164.751L206.877 149.169L212.828 149.169L212.827 164.751Z" fill="#FFB8B8"/>
<path d="M213.855 168.667L200.855 168.667V168.502C200.855 167.158 201.388 165.868 202.337 164.917C203.286 163.966 204.573 163.432 205.915 163.432H205.915L213.855 163.432L213.855 168.667Z" fill="#2F2E41"/>
<path d="M230.622 154.82L228.005 157.893L214.929 149.24L218.792 144.705L230.622 154.82Z" fill="#FFB8B8"/>
<path d="M234.263 156.578L225.824 166.487L225.699 166.38C224.678 165.507 224.045 164.263 223.939 162.923C223.833 161.583 224.263 160.255 225.134 159.232L225.134 159.232L230.288 153.18L234.263 156.578Z" fill="#2F2E41"/>
<path d="M184.199 88.1201L182.944 99.7177L233.679 98.9926L211.553 62.8697L193.488 62.2195L184.199 88.1201Z" fill="#2F2E41"/>
<path opacity="0.28" d="M184.199 88.1201L182.944 99.7177L233.679 98.9926L211.553 62.8697L193.488 62.2195L184.199 88.1201Z" fill="black"/>
<path d="M194.175 90.1112L192.384 100.723V110.208L206.825 114.931C206.825 114.931 205.135 151.774 207.389 154.121L207.333 159.785L213.633 160.072L213.685 156.086L216.356 126.287L217.929 104.408L215.378 87.8208L194.175 90.1112Z" fill="#2F2E41"/>
<path d="M205.364 99.2458L192.384 110.208C192.384 110.208 191.625 129.987 193.554 132.306C195.21 134.298 216.76 151.482 216.76 151.482C216.76 151.482 220.59 155.002 222.736 155.058C224.882 155.114 227.379 150.604 227.379 150.604L222.408 146.82C222.408 146.82 209.53 134.775 205.707 129.987C204.164 128.054 204.164 127.86 204.164 127.86L204.691 119.822L209.996 104.905L205.364 99.2458Z" fill="#2F2E41"/>
<path d="M191.583 46.7362L185.987 46.218L180.911 47.0656L170.163 47.069L169.247 54.8746L179.056 57.0739L181.446 55.9001L191.41 59.7039L191.583 46.7362Z" fill="#2F2E41"/>
<path d="M198.267 46.7116C198.267 46.7116 210.144 45.5966 212.845 47.7228C215.545 49.849 221.332 91.986 221.332 91.986L198.267 93.2903L194.132 90.4397L195.306 69.4032L198.267 46.7116Z" fill="#CCCCCC"/>
<path d="M201.893 46.4492L188.792 46.7373L176.578 102.037L186.223 104.163L201.893 46.4492Z" fill="#2F2E41"/>
<path d="M211.206 45.9817L221.525 49.2179L220.939 71.9388L233.679 99.1033L218.702 100.684L206.864 71.3515L211.206 45.9817Z" fill="#2F2E41"/>
<path d="M228.223 101.863C228.584 101.544 228.872 101.149 229.065 100.706C229.258 100.264 229.352 99.7844 229.34 99.3016C229.328 98.8188 229.211 98.3445 228.996 97.9121C228.781 97.4796 228.475 97.0996 228.098 96.7988L230.174 89.5421L226.08 87.2024L223.292 97.4916C222.83 98.1598 222.628 98.9747 222.725 99.782C222.823 100.589 223.212 101.333 223.82 101.871C224.427 102.41 225.211 102.707 226.023 102.705C226.834 102.704 227.617 102.404 228.223 101.863Z" fill="#FFB8B8"/>
<path d="M215.545 49.849L221.651 49.3184C221.651 49.3184 227.133 55.0631 228.38 59.5111C229.628 63.9592 230.978 77.876 230.978 77.876L230.415 98.2349L223.277 93.3783L222.798 75.867L215.545 49.849Z" fill="#2F2E41"/>
<path d="M214.072 39.616C216.365 35.4131 214.824 30.1435 210.629 27.846C206.434 25.5485 201.175 27.0931 198.882 31.296C196.589 35.4989 198.131 40.7685 202.325 43.066C206.52 45.3635 211.779 43.8189 214.072 39.616Z" fill="#FFB8B8"/>
<path d="M205.512 31.8353C204.376 31.5724 203.198 31.8637 202.047 32.0526C200.897 32.2415 199.629 32.3038 198.656 31.6607C197.938 31.1858 197.496 30.4002 197.081 29.6444C196.908 29.3746 196.793 29.0716 196.742 28.7548C196.694 28.1959 197.048 27.686 197.425 27.2709C199.175 25.3432 201.733 24.2882 204.313 23.953C206.44 23.6354 208.613 23.9013 210.601 24.7225C212.559 25.583 214.243 27.1587 215.012 29.1573C215.367 30.1802 215.588 31.2446 215.671 32.3243C215.787 33.1186 215.802 33.9246 215.715 34.7227C215.612 35.3144 215.457 35.8958 215.252 36.4604L213.976 40.3184C213.885 40.683 213.714 41.0226 213.475 41.3129C213.352 41.455 213.187 41.5536 213.004 41.5938C212.821 41.634 212.63 41.6137 212.459 41.5359C212.561 41.1168 212.577 40.6813 212.505 40.256C212.465 40.0441 212.363 39.849 212.211 39.6958C212.06 39.5426 211.866 39.4385 211.654 39.3967C211.184 39.3467 210.783 39.7118 210.337 39.869C210.133 39.9296 209.919 39.9494 209.707 39.9271C209.496 39.9049 209.291 39.8411 209.103 39.7393C208.916 39.6376 208.751 39.5 208.617 39.3343C208.483 39.1686 208.383 38.9781 208.323 38.7736C208.31 38.7324 208.3 38.6908 208.291 38.6487C208.221 38.2076 208.339 37.7354 208.172 37.3212C207.976 36.8359 207.458 36.5816 207.069 36.2329C206.713 35.9043 206.459 35.4809 206.335 35.0124C206.212 34.5439 206.225 34.0499 206.372 33.5884C206.476 33.2673 206.77 33.1213 206.712 32.7525C206.634 32.2686 205.922 31.9303 205.512 31.8353Z" fill="#2F2E41"/>
<path d="M109.279 68.4967H0V0H109.279V68.4967Z" fill="white"/>
<path d="M109.279 68.4967H0V0H109.279V68.4967ZM0.498994 67.9967H108.78V0.499977H0.498994V67.9967Z" fill="#3F3D56"/>
<path d="M95.9313 163.367H33.5573V94.8706H95.9313V163.367Z" fill="white"/>
<path d="M95.9313 163.367H33.5573V94.8706H95.9313V163.367ZM34.0562 162.867H95.4323V95.3706H34.0562V162.867Z" fill="#3F3D56"/>
<path d="M87.4485 156.898H74.4746V157.425H87.4485V156.898Z" fill="#3F3D56"/>
<path d="M87.4485 158.479H74.4746V159.006H87.4485V158.479Z" fill="#3F3D56"/>
<path d="M87.4485 160.06H74.4746V160.587H87.4485V160.06Z" fill="#3F3D56"/>
<path d="M64.7443 107.12V112.62C68.0011 112.62 71.1848 113.587 73.8927 115.4C76.6007 117.213 78.7112 119.79 79.9576 122.805C81.2039 125.82 81.53 129.137 80.8946 132.338C80.2593 135.538 78.691 138.478 76.388 140.786L80.2693 144.674C83.3398 141.598 85.4309 137.678 86.2781 133.411C87.1252 129.143 86.6904 124.72 85.0287 120.7C83.3669 116.68 80.5528 113.245 76.9422 110.827C73.3316 108.41 69.0867 107.12 64.7443 107.12Z" fill="#E6E6E6"/>
<path d="M80.2693 144.675L76.388 140.786C73.5728 143.607 69.8323 145.31 65.8596 145.58C61.8869 145.85 57.9513 144.668 54.7816 142.253L51.4594 146.633C55.6863 149.852 60.934 151.428 66.231 151.067C71.5279 150.707 76.5152 148.436 80.2693 144.675Z" fill="#575A89"/>
<path d="M48.2775 129.119C48.2775 126.952 48.7034 124.807 49.531 122.805C50.3585 120.803 51.5714 118.984 53.1005 117.452C54.6296 115.92 56.4449 114.705 58.4427 113.876C60.4406 113.046 62.5818 112.62 64.7443 112.62V107.12C60.1481 107.12 55.6678 108.565 51.9349 111.252C48.202 113.939 45.4048 117.731 43.9375 122.096C42.4702 126.46 42.4068 131.175 43.7563 135.578C45.1058 139.98 47.8001 143.847 51.4594 146.633L54.7817 142.253C52.7588 140.716 51.1189 138.73 49.9904 136.451C48.862 134.172 48.2757 131.663 48.2775 129.119Z" fill="#F0E8E8"/>
<path d="M188.245 120.869H125.871V52.3726H188.245V120.869Z" fill="white"/>
<path d="M188.245 120.869H125.871V52.3726H188.245V120.869ZM126.37 120.369H187.746V52.8725H126.37V120.369Z" fill="#3F3D56"/>
<path d="M146.08 94.2456H134.853V112.245H146.08V94.2456Z" fill="#575A89"/>
<path d="M162.297 81.9961H151.07V112.245H162.297V81.9961Z" fill="#E6E6E6"/>
<path d="M178.515 67.7468H167.287V112.245H178.515V67.7468Z" fill="#F0E8E8"/>
<path d="M182.257 112.745H131.859V60.4971H132.358V112.245H182.257V112.745Z" fill="#3F3D56"/>
<path d="M170.106 54.196C172.004 54.196 173.543 52.6545 173.543 50.7529C173.543 48.8514 172.004 47.3098 170.106 47.3098C168.208 47.3098 166.67 48.8514 166.67 50.7529C166.67 52.6545 168.208 54.196 170.106 54.196Z" fill="#FFB8B8"/>
<path d="M240.714 169H187.164C187.088 169 187.015 168.97 186.961 168.916C186.908 168.862 186.877 168.789 186.877 168.713C186.877 168.637 186.908 168.564 186.961 168.51C187.015 168.457 187.088 168.426 187.164 168.426H240.714C240.79 168.426 240.862 168.457 240.916 168.51C240.97 168.564 241 168.637 241 168.713C241 168.789 240.97 168.862 240.916 168.916C240.862 168.97 240.79 169 240.714 169Z" fill="#CCCCCC"/>
<path d="M94.1031 54.1714H15.1763C15.1108 54.1714 15.048 54.1453 15.0016 54.0989C14.9553 54.0525 14.9293 53.9895 14.9293 53.9239V16.0197C14.9293 15.9541 14.9553 15.8911 15.0016 15.8447C15.048 15.7983 15.1108 15.7722 15.1763 15.7722C15.2418 15.7722 15.3046 15.7983 15.351 15.8447C15.3973 15.8911 15.4233 15.9541 15.4233 16.0197V53.6764H94.1031C94.1356 53.6763 94.1678 53.6826 94.1978 53.695C94.2279 53.7074 94.2552 53.7256 94.2783 53.7486C94.3013 53.7716 94.3196 53.7989 94.332 53.829C94.3445 53.859 94.3509 53.8913 94.3509 53.9239C94.3509 53.9564 94.3445 53.9887 94.332 54.0188C94.3196 54.0489 94.3013 54.0762 94.2783 54.0992C94.2552 54.1222 94.2279 54.1404 94.1978 54.1528C94.1678 54.1651 94.1356 54.1715 94.1031 54.1714Z" fill="#3F3D56"/>
<path d="M32.0395 51.4491H24.8608C24.6664 51.4489 24.48 51.3714 24.3426 51.2337C24.2051 51.096 24.1278 50.9092 24.1276 50.7145V40.7991C24.1278 40.6043 24.2051 40.4176 24.3426 40.2799C24.48 40.1421 24.6664 40.0647 24.8608 40.0645H32.0395C32.2339 40.0647 32.4202 40.1421 32.5577 40.2799C32.6952 40.4176 32.7725 40.6043 32.7727 40.7991V50.7144C32.7725 50.9092 32.6952 51.096 32.5577 51.2337C32.4203 51.3714 32.2339 51.4489 32.0395 51.4491Z" fill="#F0E8E8"/>
<path d="M45.1308 51.449H37.9521C37.7577 51.4487 37.5713 51.3713 37.4339 51.2336C37.2964 51.0958 37.2191 50.9091 37.2188 50.7143V31.3943C37.2191 31.1995 37.2964 31.0128 37.4339 30.8751C37.5713 30.7374 37.7577 30.6599 37.9521 30.6597H45.1308C45.3252 30.6599 45.5115 30.7374 45.649 30.8751C45.7864 31.0128 45.8638 31.1995 45.864 31.3943V50.7143C45.8638 50.9091 45.7864 51.0958 45.649 51.2336C45.5115 51.3713 45.3252 51.4487 45.1308 51.449Z" fill="#F0E8E8"/>
<path d="M58.222 51.4491H51.0433C50.8489 51.4489 50.6626 51.3714 50.5251 51.2337C50.3877 51.096 50.3103 50.9092 50.3101 50.7145V40.7991C50.3103 40.6043 50.3877 40.4176 50.5251 40.2799C50.6626 40.1421 50.8489 40.0647 51.0433 40.0645H58.222C58.4164 40.0647 58.6028 40.1421 58.7402 40.2799C58.8777 40.4176 58.955 40.6043 58.9553 40.7991V50.7144C58.955 50.9092 58.8777 51.096 58.7402 51.2337C58.6028 51.3714 58.4164 51.4489 58.222 51.4491Z" fill="#F0E8E8"/>
<path d="M71.3133 51.4491H64.1346C63.9446 51.4532 63.7608 51.3817 63.6233 51.2502C63.4859 51.1188 63.4061 50.9381 63.4013 50.7478V27.6488C63.4061 27.4585 63.4859 27.2778 63.6233 27.1463C63.7608 27.0149 63.9446 26.9433 64.1346 26.9474H71.3133C71.5032 26.9433 71.6871 27.0149 71.8245 27.1463C71.9619 27.2778 72.0418 27.4585 72.0465 27.6488V50.7478C72.0418 50.9381 71.9619 51.1188 71.8245 51.2502C71.6871 51.3817 71.5032 51.4532 71.3133 51.4491Z" fill="#F0E8E8"/>
<path d="M84.4045 51.4491H77.2258C77.0314 51.4489 76.8451 51.3714 76.7076 51.2337C76.5701 51.0959 76.4928 50.9092 76.4926 50.7145V20.9998C76.4928 20.805 76.5701 20.6183 76.7076 20.4805C76.8451 20.3428 77.0314 20.2654 77.2258 20.2651H84.4045C84.5989 20.2654 84.7853 20.3428 84.9227 20.4805C85.0602 20.6183 85.1375 20.805 85.1377 20.9998V50.7145C85.1375 50.9092 85.0602 51.0959 84.9227 51.2337C84.7853 51.3714 84.5989 51.4489 84.4045 51.4491Z" fill="#F0E8E8"/>
<path d="M28.4502 37.0944C29.2687 37.0944 29.9322 36.4296 29.9322 35.6095C29.9322 34.7893 29.2687 34.1245 28.4502 34.1245C27.6317 34.1245 26.9681 34.7893 26.9681 35.6095C26.9681 36.4296 27.6317 37.0944 28.4502 37.0944Z" fill="#3F3D56"/>
<path d="M41.5414 27.4423C42.3599 27.4423 43.0234 26.7775 43.0234 25.9574C43.0234 25.1372 42.3599 24.4724 41.5414 24.4724C40.7229 24.4724 40.0594 25.1372 40.0594 25.9574C40.0594 26.7775 40.7229 27.4423 41.5414 27.4423Z" fill="#3F3D56"/>
<path d="M54.6327 37.0944C55.4512 37.0944 56.1147 36.4296 56.1147 35.6095C56.1147 34.7893 55.4512 34.1245 54.6327 34.1245C53.8142 34.1245 53.1506 34.7893 53.1506 35.6095C53.1506 36.4296 53.8142 37.0944 54.6327 37.0944Z" fill="#3F3D56"/>
<path d="M67.7239 22.7399C68.5424 22.7399 69.2059 22.0751 69.2059 21.255C69.2059 20.4349 68.5424 19.77 67.7239 19.77C66.9054 19.77 66.2419 20.4349 66.2419 21.255C66.2419 22.0751 66.9054 22.7399 67.7239 22.7399Z" fill="#3F3D56"/>
<path d="M80.8152 17.2951C81.6337 17.2951 82.2972 16.6303 82.2972 15.8101C82.2972 14.99 81.6337 14.3252 80.8152 14.3252C79.9967 14.3252 79.3331 14.99 79.3331 15.8101C79.3331 16.6303 79.9967 17.2951 80.8152 17.2951Z" fill="#3F3D56"/>
<path d="M54.6638 35.9422L41.5415 26.094L28.5982 35.8076L28.3021 35.4114L41.5415 25.4754L54.6013 35.2768L67.5796 21.0467L67.6317 21.0254L80.7228 15.7402L80.9075 16.1996L67.8682 21.4636L54.6638 35.9422Z" fill="#3F3D56"/>
</g>
<defs>
<clipPath id="clip0_25_91">
<rect width="241" height="169" fill="white"/>
</clipPath>
</defs>
</svg>
