<svg width="481" height="370" viewBox="0 0 481 370" fill="none" xmlns="http://www.w3.org/2000/svg">
<g clip-path="url(#clip0_331_54)">
<path d="M250.074 256.216C249.093 256.047 248.16 255.666 247.342 255.098C246.524 254.53 245.841 253.789 245.34 252.929C244.839 252.068 244.533 251.108 244.443 250.116C244.353 249.125 244.482 248.125 244.82 247.189L214.928 195.485L229.057 191.038L254.024 243.2C255.559 243.873 256.795 245.085 257.496 246.608C258.198 248.131 258.316 249.858 257.829 251.462C257.343 253.067 256.284 254.437 254.855 255.313C253.426 256.189 251.725 256.51 250.074 256.216L250.074 256.216Z" fill="#FFB8B8"/>
<path d="M215.98 203.863C215.55 203.783 215.145 203.605 214.795 203.343C214.446 203.08 214.161 202.74 213.965 202.35L206.078 186.797C205.777 186.204 205.693 185.524 205.84 184.876C205.987 184.228 206.356 183.651 206.883 183.245L215.325 176.751C215.863 176.334 216.533 176.123 217.213 176.159C217.893 176.194 218.538 176.473 219.029 176.944L230.737 188.069C231.023 188.34 231.249 188.669 231.402 189.033C231.555 189.397 231.631 189.788 231.624 190.183C231.618 190.578 231.53 190.967 231.365 191.325C231.201 191.684 230.964 192.005 230.669 192.268L218.407 203.19C218.082 203.481 217.694 203.694 217.273 203.81C216.852 203.927 216.409 203.945 215.98 203.863H215.98Z" fill="#7D81DA"/>
<path d="M481 134.313C481 94.492 448.721 -4.76837e-07 408.903 -4.76837e-07C369.084 -4.76837e-07 336.805 94.492 336.805 134.313C336.802 143.783 338.665 153.161 342.287 161.911C345.909 170.661 351.22 178.612 357.915 185.309C364.61 192.007 372.559 197.319 381.307 200.944C390.056 204.569 399.433 206.435 408.903 206.435C418.372 206.435 427.749 204.569 436.498 200.944C445.247 197.319 453.195 192.007 459.89 185.309C466.586 178.612 471.896 170.661 475.518 161.911C479.14 153.161 481.003 143.783 481 134.313V134.313Z" fill="#7D81DA"/>
<path d="M408.903 353.599C409.06 353.599 409.211 353.537 409.322 353.426C409.433 353.315 409.495 353.164 409.495 353.007V60.5523C409.495 60.395 409.433 60.2442 409.322 60.133C409.211 60.0218 409.06 59.9594 408.903 59.9594C408.745 59.9594 408.595 60.0218 408.483 60.133C408.372 60.2442 408.31 60.395 408.31 60.5523V353.007C408.31 353.164 408.372 353.315 408.483 353.426C408.595 353.537 408.745 353.599 408.903 353.599Z" fill="#3F3D56"/>
<path d="M408.903 108.543C408.98 108.543 409.058 108.528 409.13 108.498C409.202 108.468 409.267 108.424 409.322 108.369L437.858 79.8316C437.968 79.7202 438.03 79.5697 438.029 79.4131C438.029 79.2564 437.966 79.1063 437.855 78.9956C437.745 78.8848 437.595 78.8224 437.438 78.8219C437.281 78.8215 437.131 78.8831 437.019 78.9932L408.483 107.531C408.4 107.614 408.344 107.719 408.321 107.834C408.298 107.949 408.31 108.068 408.355 108.177C408.4 108.285 408.476 108.378 408.573 108.443C408.671 108.508 408.785 108.543 408.903 108.543V108.543Z" fill="#3F3D56"/>
<path d="M408.903 157.947C409.02 157.947 409.135 157.912 409.232 157.847C409.329 157.782 409.405 157.689 409.45 157.581C409.495 157.473 409.507 157.353 409.484 157.238C409.461 157.123 409.405 157.018 409.322 156.935L361.533 109.143C361.422 109.033 361.271 108.972 361.115 108.972C360.958 108.973 360.808 109.035 360.698 109.146C360.587 109.257 360.524 109.407 360.524 109.563C360.523 109.72 360.585 109.87 360.695 109.982L408.483 157.773C408.538 157.828 408.604 157.872 408.676 157.902C408.748 157.932 408.825 157.947 408.903 157.947V157.947Z" fill="#3F3D56"/>
<path d="M452.117 369.723C452.014 369.803 451.905 369.874 451.801 369.952H363.413C361.681 362.935 361.069 355.909 363.656 349.809C367.342 341.116 378.251 335.689 386.923 339.422C388.978 340.331 390.768 341.747 392.125 343.538C395.514 337.471 401.593 332.896 408.611 332.901C417.403 332.908 424.712 340.098 427.098 348.403C430.939 341.919 438.527 337.387 445.943 339.337C458.347 342.597 462.265 361.88 452.117 369.723Z" fill="#F2F2F2"/>
<path d="M103.686 232.578C103.686 203.964 80.4747 136.064 51.8428 136.064C23.2108 136.064 0 203.964 0 232.578C0.0103916 246.322 5.47697 259.499 15.1983 269.213C24.9195 278.928 38.1 284.385 51.8428 284.385C65.5856 284.385 78.766 278.928 88.4873 269.213C98.2086 259.499 103.675 246.322 103.686 232.578V232.578Z" fill="#E6E6E6"/>
<path d="M51.8428 358.627C51.8987 358.627 51.9542 358.616 52.0059 358.595C52.0576 358.574 52.1046 358.542 52.1442 358.503C52.1837 358.463 52.2152 358.416 52.2366 358.365C52.258 358.313 52.2691 358.257 52.2691 358.201V179.576C52.2687 179.463 52.2236 179.355 52.1437 179.275C52.0638 179.196 51.9556 179.151 51.8428 179.151C51.73 179.151 51.6218 179.196 51.5419 179.275C51.462 179.355 51.4169 179.463 51.4165 179.576V358.201C51.4165 358.257 51.4276 358.313 51.449 358.365C51.4704 358.416 51.5018 358.463 51.5414 358.503C51.581 358.542 51.628 358.574 51.6797 358.595C51.7314 358.616 51.7868 358.627 51.8428 358.627V358.627Z" fill="#3F3D56"/>
<path d="M51.8428 214.061C51.8988 214.061 51.9543 214.05 52.006 214.028C52.0577 214.007 52.1047 213.975 52.1443 213.936L72.6636 193.429C72.7435 193.349 72.7883 193.241 72.7883 193.128C72.7882 193.015 72.7433 192.907 72.6633 192.827C72.5834 192.747 72.475 192.702 72.3619 192.702C72.2489 192.702 72.1405 192.747 72.0607 192.827L51.5414 213.333C51.4818 213.393 51.4412 213.469 51.4248 213.552C51.4084 213.634 51.4168 213.72 51.4491 213.798C51.4814 213.876 51.536 213.942 51.6061 213.989C51.6762 214.036 51.7586 214.061 51.8428 214.061L51.8428 214.061Z" fill="#3F3D56"/>
<path d="M51.8428 249.561C51.927 249.561 52.0094 249.536 52.0795 249.49C52.1496 249.443 52.2042 249.376 52.2365 249.298C52.2688 249.221 52.2772 249.135 52.2608 249.052C52.2444 248.97 52.2038 248.894 52.1442 248.834L17.781 214.492C17.7011 214.412 17.5927 214.367 17.4797 214.367C17.3667 214.367 17.2582 214.412 17.1783 214.492C17.0983 214.572 17.0534 214.68 17.0533 214.793C17.0533 214.906 17.0981 215.015 17.178 215.095L51.5413 249.437C51.5808 249.476 51.6278 249.508 51.6796 249.529C51.7313 249.55 51.7868 249.561 51.8428 249.561V249.561Z" fill="#3F3D56"/>
<path d="M82.6833 369.788C82.6092 369.845 82.5313 369.896 82.4565 369.952H18.8995C17.6541 364.909 17.2143 359.861 19.0745 355.478C21.7249 349.231 29.569 345.331 35.8051 348.014C37.2825 348.667 38.5695 349.684 39.5452 350.971C41.9823 346.612 46.3538 343.325 51.3998 343.328C57.7216 343.333 62.9778 348.499 64.693 354.467C67.4553 349.808 72.9111 346.552 78.2437 347.952C87.163 350.295 89.9803 364.152 82.6833 369.788Z" fill="#F2F2F2"/>
<path d="M107.6 369.952H333.472C333.629 369.952 333.78 369.89 333.891 369.778C334.002 369.667 334.065 369.516 334.065 369.359C334.065 369.202 334.002 369.051 333.891 368.94C333.78 368.829 333.629 368.766 333.472 368.766H107.6C107.443 368.766 107.292 368.829 107.181 368.94C107.07 369.051 107.007 369.202 107.007 369.359C107.007 369.516 107.07 369.667 107.181 369.778C107.292 369.89 107.443 369.952 107.6 369.952V369.952Z" fill="#3F3D56"/>
<path d="M214.52 207.601C214.093 207.51 213.692 207.32 213.35 207.048C213.008 206.776 212.733 206.429 212.548 206.033L205.092 190.268C204.808 189.667 204.743 188.986 204.908 188.342C205.073 187.697 205.457 187.131 205.995 186.74L214.613 180.482C215.162 180.079 215.838 179.887 216.517 179.941C217.196 179.995 217.832 180.292 218.311 180.776L229.707 192.22C229.985 192.5 230.203 192.834 230.345 193.202C230.488 193.57 230.553 193.964 230.536 194.358C230.518 194.752 230.42 195.139 230.245 195.493C230.071 195.847 229.825 196.161 229.523 196.415L216.965 206.995C216.632 207.277 216.238 207.479 215.814 207.584C215.39 207.689 214.947 207.695 214.52 207.601V207.601Z" fill="#7D81DA"/>
<path d="M167.287 357.058L174.787 359.099L186.228 331.139L175.159 328.127L167.287 357.058Z" fill="#FFB8B8"/>
<path d="M187.358 370L163.785 363.586L166.263 354.478L181.32 358.575C183.578 359.189 185.5 360.676 186.663 362.708C187.825 364.739 188.133 367.15 187.519 369.408L187.358 370V370Z" fill="#2F2E41"/>
<path d="M231.407 362.782L239.179 362.781L242.877 332.798L231.405 332.799L231.407 362.782Z" fill="#FFB8B8"/>
<path d="M254.171 369.999L229.741 370L229.741 360.561L245.345 360.56C247.685 360.56 249.93 361.49 251.585 363.145C253.241 364.8 254.171 367.045 254.171 369.386L254.171 369.999V369.999Z" fill="#2F2E41"/>
<path d="M230.708 160.254C236.79 154.172 236.79 144.312 230.708 138.23C224.627 132.149 214.767 132.149 208.686 138.23C202.604 144.312 202.604 154.172 208.686 160.254C214.767 166.336 224.627 166.336 230.708 160.254Z" fill="#FFB8B8"/>
<path d="M229.056 338.937L220.352 275.286C220.287 274.813 220.072 274.375 219.738 274.034C219.405 273.693 218.97 273.469 218.499 273.395C218.028 273.32 217.546 273.4 217.124 273.621C216.701 273.842 216.361 274.193 216.154 274.623L186.531 336.068C186.23 336.686 185.717 337.175 185.085 337.446C184.454 337.717 183.746 337.753 183.091 337.547L171.675 333.893C170.969 333.67 170.377 333.179 170.026 332.526C169.676 331.872 169.595 331.108 169.8 330.396C183.686 281.367 195.675 244.891 209.054 226.233C209.106 226.16 209.16 226.092 209.218 226.024L212.185 222.562C212.453 222.249 212.785 221.998 213.159 221.826C213.533 221.654 213.94 221.565 214.351 221.566H236.195C236.766 221.564 237.324 221.734 237.796 222.054C238.269 222.374 238.634 222.829 238.844 223.36L239.413 224.782C239.459 224.896 239.497 225.013 239.529 225.132C246.669 252.31 248.52 288.406 245.355 338.726C245.308 339.451 244.988 340.131 244.459 340.628C243.929 341.125 243.231 341.402 242.505 341.404H231.882C231.193 341.401 230.528 341.151 230.009 340.698C229.49 340.244 229.151 339.619 229.056 338.937Z" fill="#2F2E41"/>
<path d="M207.998 224.94C204.851 219.904 189.835 193.885 203.314 176.263C203.556 175.951 203.712 175.582 203.766 175.191L204.3 171.093C204.35 170.71 204.476 170.341 204.672 170.008C204.869 169.676 205.13 169.386 205.442 169.158C205.753 168.93 206.108 168.767 206.484 168.68C206.86 168.593 207.25 168.584 207.63 168.652C212.315 169.505 221.14 172.186 227.603 180.559C227.912 180.962 228.106 181.44 228.167 181.944L228.524 184.798C228.569 185.173 228.71 185.531 228.933 185.836C229.157 186.14 229.455 186.382 229.8 186.538C233.922 188.409 243.146 195.704 239.783 222.931C239.702 223.609 239.381 224.235 238.877 224.695C238.373 225.155 237.72 225.419 237.038 225.438L210.505 226.276C210.475 226.277 210.445 226.277 210.416 226.277C209.933 226.277 209.457 226.154 209.035 225.92C208.612 225.687 208.255 225.349 207.998 224.94V224.94Z" fill="#7D81DA"/>
<path d="M197.237 266.67C196.563 265.937 196.058 265.065 195.758 264.116C195.457 263.166 195.369 262.162 195.498 261.175C195.628 260.188 195.972 259.241 196.507 258.401C197.042 257.561 197.754 256.849 198.594 256.314L206.523 197.118L220.424 202.232L208.316 258.781C209.121 260.251 209.358 261.966 208.983 263.6C208.608 265.234 207.646 266.674 206.281 267.646C204.915 268.619 203.24 269.057 201.574 268.877C199.907 268.697 198.364 267.912 197.237 266.67V266.67Z" fill="#FFB8B8"/>
<path d="M202.237 204.394C201.945 204.068 201.733 203.679 201.617 203.258C201.5 202.836 201.483 202.394 201.566 201.964L204.825 184.833C204.95 184.18 205.299 183.591 205.811 183.167C206.324 182.744 206.968 182.513 207.633 182.514L218.283 182.532C218.964 182.53 219.623 182.773 220.14 183.216C220.657 183.66 220.997 184.274 221.098 184.948L223.568 200.908C223.629 201.298 223.608 201.697 223.506 202.078C223.405 202.46 223.225 202.816 222.979 203.124C222.733 203.433 222.426 203.687 222.076 203.871C221.727 204.054 221.343 204.163 220.949 204.191L204.57 205.344C204.134 205.376 203.697 205.307 203.292 205.142C202.887 204.977 202.526 204.721 202.237 204.394L202.237 204.394Z" fill="#7D81DA"/>
<path d="M202.563 139.557C203.72 136.05 204.574 132.451 205.115 128.799C205.286 126.673 204.741 124.385 203.192 122.918C200.295 120.172 195.371 121.48 192.341 124.078C187.961 127.834 185.777 133.605 184.951 139.315C184.126 145.025 184.489 150.832 184.29 156.598C184.091 162.364 183.267 168.293 180.327 173.257C177.388 178.222 171.933 182.032 166.179 181.61C163.857 181.484 161.652 180.55 159.946 178.968C159.109 178.172 158.475 177.186 158.098 176.094C157.72 175.002 157.61 173.836 157.776 172.692C154.835 177.958 156.326 185.095 160.712 189.235C165.099 193.375 171.846 194.545 177.612 192.778C183.379 191.01 188.125 186.578 190.96 181.255C193.795 175.931 194.834 169.781 194.683 163.751C194.567 159.12 193.78 154.452 194.563 149.887C195.345 145.321 198.202 140.686 202.707 139.611L202.563 139.557Z" fill="#2F2E41"/>
<path d="M217.122 163.72C216.511 162.751 216.115 161.661 215.962 160.525C215.81 159.39 215.904 158.234 216.237 157.138C216.571 156.042 217.137 155.03 217.897 154.173C218.657 153.315 219.593 152.631 220.64 152.167C223.464 150.917 226.73 151.395 229.76 150.802C235.189 149.739 239.659 144.78 239.981 139.257C240.304 133.734 236.318 128.214 230.934 126.945C228.786 126.439 226.546 126.558 224.343 126.68C222.226 126.797 220.108 126.915 218.002 127.156C213.835 127.634 209.62 128.643 206.152 131.002C202.684 133.361 200.065 137.267 200.11 141.461C200.162 146.248 202.419 155.778 205.559 159.391C208.588 162.878 210.894 164.134 215.702 164.372L217.122 163.72Z" fill="#2F2E41"/>
<path d="M275.678 221.165H268.364V213.85C268.364 213.615 268.27 213.388 268.103 213.222C267.936 213.055 267.71 212.961 267.474 212.961C267.238 212.961 267.012 213.055 266.845 213.222C266.679 213.388 266.585 213.615 266.585 213.85V221.165H259.271C259.035 221.165 258.809 221.259 258.642 221.426C258.475 221.592 258.381 221.819 258.381 222.055C258.381 222.29 258.475 222.517 258.642 222.683C258.809 222.85 259.035 222.944 259.271 222.944H266.585V230.259C266.585 230.494 266.679 230.721 266.845 230.887C267.012 231.054 267.238 231.148 267.474 231.148C267.71 231.148 267.936 231.054 268.103 230.887C268.27 230.721 268.364 230.494 268.364 230.259V222.944H275.678C275.914 222.944 276.14 222.85 276.307 222.683C276.473 222.517 276.567 222.29 276.567 222.055C276.567 221.819 276.473 221.592 276.307 221.426C276.14 221.259 275.914 221.165 275.678 221.165Z" fill="#7D81DA"/>
<path d="M254.929 107.927H247.614V100.612C247.614 100.376 247.52 100.15 247.354 99.983C247.187 99.8162 246.961 99.7226 246.725 99.7226C246.489 99.7226 246.263 99.8162 246.096 99.983C245.929 100.15 245.836 100.376 245.836 100.612V107.927H238.521C238.285 107.927 238.059 108.02 237.892 108.187C237.726 108.354 237.632 108.58 237.632 108.816C237.632 109.052 237.726 109.278 237.892 109.445C238.059 109.612 238.285 109.705 238.521 109.705H245.836V117.02C245.836 117.256 245.929 117.482 246.096 117.649C246.263 117.816 246.489 117.909 246.725 117.909C246.961 117.909 247.187 117.816 247.354 117.649C247.52 117.482 247.614 117.256 247.614 117.02V109.705H254.929C255.164 109.705 255.391 109.612 255.557 109.445C255.724 109.278 255.818 109.052 255.818 108.816C255.818 108.58 255.724 108.354 255.557 108.187C255.391 108.02 255.164 107.927 254.929 107.927Z" fill="#7D81DA"/>
<path d="M160.074 141.127H152.76V133.813C152.76 133.577 152.666 133.351 152.499 133.184C152.333 133.017 152.106 132.923 151.87 132.923C151.635 132.923 151.408 133.017 151.242 133.184C151.075 133.351 150.981 133.577 150.981 133.813V141.127H143.667C143.431 141.127 143.205 141.221 143.038 141.388C142.871 141.555 142.778 141.781 142.778 142.017C142.778 142.253 142.871 142.479 143.038 142.646C143.205 142.812 143.431 142.906 143.667 142.906H150.981V150.221C150.981 150.457 151.075 150.683 151.242 150.85C151.408 151.017 151.635 151.11 151.87 151.11C152.106 151.11 152.333 151.017 152.499 150.85C152.666 150.683 152.76 150.457 152.76 150.221V142.906H160.074C160.31 142.906 160.536 142.812 160.703 142.646C160.87 142.479 160.963 142.253 160.963 142.017C160.963 141.781 160.87 141.555 160.703 141.388C160.536 141.221 160.31 141.127 160.074 141.127V141.127Z" fill="#7D81DA"/>
</g>
<defs>
<clipPath id="clip0_331_54">
<rect width="481" height="370" fill="white"/>
</clipPath>
</defs>
</svg>
