<svg width="504" height="357" viewBox="0 0 504 357" fill="none" xmlns="http://www.w3.org/2000/svg">
<g clip-path="url(#clip0_42_91)">
<path d="M56.2346 285.581C45.4078 285.581 34.9369 281.712 26.7085 274.672C23.9637 272.321 21.039 268.234 18.0159 262.525C16.0868 258.848 15.0062 254.785 14.8538 250.635C14.7014 246.484 15.4811 242.353 17.1354 238.544C15.5408 240.167 13.777 241.614 11.8743 242.861L10.9125 243.502L10.8569 242.348C10.8204 241.597 10.802 240.849 10.802 240.125C10.802 235.854 14.0303 231.52 12.5414 227.573C6.2661 210.935 -13.6377 194.401 15.209 168.651C17.8775 166.27 14.3128 161.507 14.3128 157.903C14.3128 122.585 52.6674 69.6041 78.3433 93.8512C93.3305 108.004 124.556 118.059 139.134 137.745L139.327 138.328L138.759 138.559C135.846 139.784 132.778 140.6 129.641 140.985C132.985 141.667 136.397 141.953 139.807 141.837L140.336 141.819L140.465 142.333C141.734 147.426 142.375 152.655 142.374 157.903L142.372 158.471C142.36 162.457 143.188 166.402 144.802 170.046C146.416 173.691 148.779 176.955 151.739 179.625C156.413 183.889 160.148 189.08 162.706 194.869C165.263 200.657 166.588 206.915 166.594 213.244C166.594 220.731 161.508 230.559 157.241 237.486C156.16 239.251 154.693 240.747 152.951 241.863C151.21 242.98 149.238 243.687 147.183 243.932C145.238 244.177 143.262 243.992 141.396 243.389C139.53 242.786 137.819 241.78 136.385 240.442C138.404 244.505 141.036 248.233 144.188 251.495L144.77 252.096L144.048 252.517C137.101 256.57 129.203 258.704 121.162 258.7L120.691 258.699C108.483 258.699 96.8956 263.431 88.8993 271.682C84.6537 276.058 79.5774 279.542 73.9682 281.928C68.359 284.315 62.3299 285.557 56.2346 285.581Z" fill="#E6E6E6"/>
<path d="M40.2136 356.787C40.017 356.787 39.8271 356.716 39.6787 356.587C39.5303 356.458 39.4334 356.28 39.4057 356.085C39.371 355.841 35.9709 331.306 39.0246 298.698C41.8446 268.584 50.901 225.209 78.0304 189.586C78.0954 189.5 78.1766 189.428 78.2694 189.374C78.3621 189.32 78.4647 189.285 78.5711 189.27C78.6775 189.256 78.7857 189.262 78.8896 189.29C78.9934 189.317 79.0908 189.365 79.1762 189.43C79.2617 189.495 79.3334 189.576 79.3874 189.669C79.4414 189.762 79.4765 189.865 79.4908 189.971C79.5051 190.078 79.4983 190.186 79.4707 190.29C79.4432 190.394 79.3954 190.491 79.3302 190.577C52.4351 225.892 43.4518 268.949 40.6516 298.851C37.6157 331.269 40.9891 355.612 41.0235 355.854C41.0399 355.97 41.0312 356.089 40.998 356.201C40.9648 356.313 40.9079 356.417 40.8311 356.506C40.7543 356.594 40.6595 356.665 40.5529 356.714C40.4464 356.762 40.3307 356.787 40.2136 356.787H40.2136Z" fill="#3F3D56"/>
<path d="M64.985 238.932C64.8124 238.932 64.6442 238.878 64.5045 238.777C64.3648 238.675 64.2608 238.532 64.2074 238.368C64.154 238.204 64.1539 238.027 64.2072 237.862C64.2605 237.698 64.3644 237.555 64.504 237.454C72.2343 232.218 80.5851 227.965 89.3645 224.791C103.08 219.767 123.938 215.213 145.41 222.05C145.512 222.083 145.607 222.135 145.689 222.204C145.771 222.273 145.838 222.358 145.888 222.453C145.937 222.549 145.967 222.653 145.976 222.76C145.985 222.867 145.973 222.975 145.941 223.077C145.908 223.179 145.856 223.274 145.786 223.356C145.717 223.438 145.633 223.506 145.537 223.555C145.442 223.604 145.338 223.634 145.231 223.643C145.124 223.652 145.016 223.64 144.914 223.608C123.882 216.911 103.403 221.39 89.9263 226.327C81.2881 229.446 73.0712 233.628 65.4647 238.776C65.3253 238.878 65.1574 238.932 64.985 238.932Z" fill="#3F3D56"/>
<path d="M393.64 285.581C382.813 285.581 372.343 281.713 364.114 274.672C361.369 272.322 358.445 268.235 355.421 262.526C353.492 258.849 352.412 254.785 352.259 250.635C352.107 246.485 352.887 242.353 354.541 238.544C352.946 240.167 351.183 241.615 349.28 242.862L348.318 243.502L348.262 242.348C348.226 241.598 348.208 240.85 348.208 240.125C348.208 235.854 351.436 231.521 349.947 227.573C343.672 210.936 323.768 194.401 352.615 168.652C355.283 166.27 351.718 161.508 351.718 157.904C351.718 122.585 401.609 61.4832 415.749 93.8517C433.187 133.77 463.23 129.501 476.54 137.746L476.733 138.329L476.164 138.559C473.251 139.784 470.183 140.601 467.047 140.986C470.391 141.668 473.803 141.954 477.213 141.838L477.742 141.819L477.871 142.333C479.139 147.426 479.78 152.655 479.779 157.904L479.777 158.471C479.765 162.458 480.593 166.402 482.207 170.047C483.821 173.692 486.185 176.956 489.144 179.625C493.818 183.889 497.553 189.081 500.111 194.869C502.669 200.657 503.993 206.915 504 213.244C504 220.732 498.914 230.56 494.647 237.487C493.566 239.251 492.099 240.748 490.357 241.864C488.615 242.98 486.643 243.687 484.589 243.932C482.643 244.178 480.668 243.993 478.802 243.389C476.936 242.786 475.225 241.78 473.791 240.442C475.81 244.505 478.442 248.233 481.594 251.496L482.176 252.096L481.453 252.517C474.507 256.57 466.609 258.704 458.568 258.701L458.097 258.7C445.889 258.7 434.301 263.432 426.305 271.683C422.059 276.059 416.983 279.542 411.374 281.929C405.765 284.316 399.736 285.557 393.64 285.581Z" fill="#E6E6E6"/>
<path d="M377.619 356.787C377.423 356.787 377.233 356.716 377.084 356.587C376.936 356.458 376.839 356.28 376.811 356.085C376.777 355.841 373.377 331.306 376.43 298.698C379.25 268.584 388.307 225.209 415.436 189.586C415.501 189.5 415.582 189.428 415.675 189.374C415.768 189.32 415.87 189.285 415.977 189.27C416.083 189.256 416.191 189.262 416.295 189.29C416.399 189.317 416.496 189.365 416.582 189.43C416.667 189.495 416.739 189.576 416.793 189.669C416.847 189.762 416.882 189.865 416.896 189.971C416.911 190.078 416.904 190.186 416.876 190.29C416.849 190.394 416.801 190.491 416.736 190.577C389.841 225.892 380.857 268.949 378.057 298.851C375.021 331.269 378.395 355.612 378.429 355.854C378.446 355.97 378.437 356.089 378.404 356.201C378.37 356.313 378.314 356.417 378.237 356.506C378.16 356.594 378.065 356.665 377.959 356.714C377.852 356.762 377.736 356.787 377.619 356.787H377.619Z" fill="#3F3D56"/>
<path d="M400.149 240.615C399.976 240.615 399.808 240.561 399.668 240.459C399.528 240.358 399.424 240.215 399.371 240.05C399.318 239.886 399.318 239.709 399.371 239.545C399.424 239.381 399.528 239.238 399.668 239.136C407.398 233.901 415.749 229.648 424.528 226.474C438.244 221.45 459.101 216.895 480.573 223.733C480.676 223.765 480.77 223.818 480.852 223.887C480.934 223.956 481.002 224.041 481.051 224.136C481.101 224.231 481.131 224.336 481.14 224.442C481.149 224.549 481.137 224.657 481.104 224.759C481.072 224.862 481.019 224.957 480.95 225.039C480.881 225.121 480.796 225.188 480.701 225.238C480.606 225.287 480.502 225.317 480.395 225.326C480.288 225.335 480.18 225.323 480.078 225.29C459.046 218.593 438.567 223.073 425.09 228.01C416.452 231.129 408.235 235.31 400.628 240.459C400.489 240.56 400.321 240.615 400.149 240.615Z" fill="#3F3D56"/>
<path d="M362.754 147.428C362.741 147.256 362.783 147.084 362.874 146.937C362.965 146.79 363.1 146.676 363.26 146.611C363.42 146.546 363.596 146.533 363.764 146.575C363.932 146.616 364.082 146.709 364.193 146.841C369.969 154.179 374.81 162.206 378.606 170.739C384.602 184.064 390.645 204.551 385.375 226.471C385.35 226.575 385.305 226.674 385.241 226.76C385.178 226.847 385.099 226.921 385.007 226.977C384.916 227.033 384.814 227.071 384.708 227.088C384.602 227.104 384.494 227.1 384.389 227.075C384.285 227.05 384.187 227.004 384.1 226.941C384.013 226.878 383.94 226.798 383.883 226.707C383.827 226.615 383.79 226.513 383.773 226.407C383.757 226.301 383.761 226.193 383.786 226.088C388.948 204.617 383.007 184.503 377.116 171.41C373.384 163.014 368.624 155.115 362.944 147.895C362.833 147.764 362.766 147.6 362.754 147.428Z" fill="#3F3D56"/>
<path d="M27.0294 142.381C27.0168 142.209 27.0591 142.037 27.1501 141.89C27.2412 141.743 27.3763 141.629 27.5361 141.564C27.696 141.499 27.8723 141.486 28.0399 141.528C28.2075 141.569 28.3576 141.662 28.4689 141.794C34.2445 149.132 39.086 157.159 42.8817 165.692C48.8779 179.018 54.9205 199.504 49.6507 221.424C49.6257 221.528 49.5804 221.627 49.5173 221.714C49.4542 221.8 49.3746 221.874 49.2831 221.93C49.1916 221.986 49.0899 222.024 48.9839 222.041C48.8779 222.057 48.7696 222.053 48.6652 222.028C48.5609 222.003 48.4625 221.957 48.3757 221.894C48.2889 221.831 48.2154 221.751 48.1593 221.66C48.1033 221.568 48.0659 221.466 48.0492 221.36C48.0325 221.254 48.0369 221.146 48.0621 221.041C53.2235 199.57 47.2832 179.456 41.3915 166.363C37.6601 157.967 32.8997 150.068 27.2197 142.848C27.1083 142.717 27.0417 142.553 27.0294 142.381Z" fill="#3F3D56"/>
<path d="M252.55 59.7399C251.575 58.7399 250.376 57.9868 249.052 57.5433C247.727 57.0998 246.317 56.9786 244.937 57.1898C243.556 57.401 242.246 57.9385 241.115 58.7577C239.984 59.5768 239.065 60.6541 238.433 61.8999C225.139 71.157 216.711 83.5606 213.532 99.3585L189.948 77.9494C190.224 76.1584 189.927 74.3259 189.098 72.7145C188.269 71.1032 186.952 69.7958 185.335 68.9799C183.717 68.164 181.883 67.8816 180.096 68.173C178.308 68.4645 176.659 69.3149 175.384 70.6023C174.109 71.8897 173.275 73.5479 173 75.3392C172.726 77.1304 173.025 78.9626 173.856 80.573C174.686 82.1835 176.005 83.4893 177.623 84.3034C179.241 85.1174 181.076 85.3978 182.863 85.1043C187.192 92.4573 207.274 124.973 219.669 117.529C230.087 111.272 248.588 80.2681 254.024 69.9858C254.894 68.3418 255.22 66.4639 254.955 64.6226C254.69 62.7813 253.848 61.0717 252.55 59.7399Z" fill="#FFB6B6"/>
<path d="M253.304 73.9378C254.488 70.7262 255.437 67.186 254.41 63.9206C253.281 60.3294 249.811 57.758 246.1 57.1325C242.39 56.507 238.533 57.6264 235.343 59.6227C232.153 61.6189 229.558 64.4384 227.253 67.4141L227.871 66.4309C224.87 70.3644 221.869 74.2979 218.868 78.2314C226.485 83.5258 234.101 88.8202 241.718 94.1146C246.682 88.0857 250.599 81.2652 253.304 73.9378Z" fill="#F0E8E8"/>
<path d="M220.455 344.887L209.546 344.886L204.356 302.783L220.458 302.784L220.455 344.887Z" fill="#FFB6B6"/>
<path d="M220.84 356.274L187.292 356.272V355.848C187.292 352.383 188.668 349.06 191.116 346.61C193.565 344.16 196.886 342.784 200.349 342.783H200.35L206.478 338.132L217.912 342.784L220.84 342.784L220.84 356.274Z" fill="#2F2E41"/>
<path d="M380.486 189.874L385.065 199.781L349.052 222.17L342.293 207.548L380.486 189.874Z" fill="#FFB6B6"/>
<path d="M390.653 184.744L404.737 215.209L404.352 215.387C401.209 216.842 397.617 216.988 394.366 215.793C391.116 214.598 388.473 212.16 387.019 209.015L387.018 209.014L380.226 205.402L379.646 193.067L378.417 190.407L390.653 184.744Z" fill="#2F2E41"/>
<path d="M139.017 21.9315C141.257 21.2587 142.694 19.4492 142.226 17.8898C141.759 16.3305 139.563 15.6118 137.323 16.2847C135.083 16.9575 133.646 18.767 134.113 20.3264C134.581 21.8857 136.777 22.6044 139.017 21.9315Z" fill="#E6E6E6"/>
<path d="M166.673 20.5506C168.913 19.8778 170.35 18.0683 169.882 16.509C169.414 14.9496 167.219 14.231 164.979 14.9038C162.738 15.5766 161.301 17.3862 161.769 18.9455C162.237 20.5048 164.432 21.2235 166.673 20.5506Z" fill="#3F3D56"/>
<path d="M134.822 45.12C137.062 44.4471 138.499 42.6376 138.031 41.0783C137.563 39.519 135.368 38.8003 133.128 39.4731C130.887 40.146 129.45 41.9555 129.918 43.5148C130.386 45.0742 132.581 45.7928 134.822 45.12Z" fill="#FF6584"/>
<path d="M126.099 54.8129C127.115 54.6544 127.754 53.3412 127.526 51.8797C127.298 50.4183 126.29 49.3621 125.274 49.5206C124.258 49.6791 123.619 50.9924 123.846 52.4538C124.074 53.9152 125.082 54.9714 126.099 54.8129Z" fill="#E6E6E6"/>
<path d="M124.577 72.2563C125.593 72.0978 126.232 70.7845 126.004 69.3231C125.776 67.8616 124.768 66.8054 123.752 66.9639C122.736 67.1225 122.097 68.4357 122.325 69.8972C122.552 71.3586 123.561 72.4148 124.577 72.2563Z" fill="#3F3D56"/>
<path d="M151.424 37.974C152.44 37.8155 153.079 36.5023 152.851 35.0408C152.624 33.5794 151.615 32.5232 150.599 32.6817C149.583 32.8402 148.944 34.1535 149.172 35.6149C149.4 37.0764 150.408 38.1326 151.424 37.974Z" fill="#E6E6E6"/>
<path d="M137.275 33.3461C138.291 33.1876 138.93 31.8744 138.703 30.4129C138.475 28.9515 137.466 27.8953 136.45 28.0538C135.434 28.2123 134.795 29.5256 135.023 30.987C135.251 32.4484 136.259 33.5046 137.275 33.3461Z" fill="#FF6584"/>
<path d="M153.812 18.4633C154.828 18.3048 155.467 16.9915 155.24 15.5301C155.012 14.0687 154.004 13.0124 152.987 13.171C151.971 13.3295 151.332 14.6427 151.56 16.1042C151.788 17.5656 152.796 18.6218 153.812 18.4633Z" fill="#3F3D56"/>
<path d="M308.548 296.801C310.863 296.464 312.55 294.885 312.315 293.274C312.081 291.663 310.015 290.63 307.7 290.967C305.385 291.304 303.699 292.883 303.933 294.494C304.167 296.105 306.234 297.138 308.548 296.801Z" fill="#E6E6E6"/>
<path d="M280.989 294.111C283.304 293.774 284.99 292.195 284.756 290.584C284.522 288.973 282.455 287.94 280.141 288.277C277.826 288.614 276.139 290.193 276.374 291.804C276.608 293.415 278.674 294.448 280.989 294.111Z" fill="#3F3D56"/>
<path d="M316.095 274.478C318.41 274.141 320.096 272.562 319.862 270.951C319.628 269.34 317.561 268.307 315.247 268.644C312.932 268.981 311.245 270.56 311.48 272.171C311.714 273.782 313.78 274.815 316.095 274.478Z" fill="#FF6584"/>
<path d="M325.337 265.691C326.365 265.683 327.19 264.478 327.179 262.999C327.168 261.519 326.325 260.327 325.297 260.335C324.268 260.342 323.444 261.548 323.455 263.027C323.466 264.506 324.309 265.698 325.337 265.691Z" fill="#E6E6E6"/>
<path d="M329.398 248.659C330.426 248.652 331.251 247.446 331.24 245.967C331.229 244.488 330.386 243.296 329.358 243.303C328.329 243.311 327.505 244.516 327.516 245.995C327.527 247.475 328.37 248.667 329.398 248.659Z" fill="#3F3D56"/>
<path d="M297.818 278.634C298.846 278.626 299.671 277.421 299.66 275.942C299.649 274.463 298.806 273.27 297.778 273.278C296.749 273.286 295.925 274.491 295.936 275.97C295.947 277.449 296.79 278.642 297.818 278.634Z" fill="#E6E6E6"/>
<path d="M311.135 285.286C312.163 285.279 312.988 284.073 312.977 282.594C312.965 281.115 312.123 279.922 311.094 279.93C310.066 279.938 309.241 281.143 309.253 282.622C309.264 284.101 310.106 285.294 311.135 285.286Z" fill="#FF6584"/>
<path d="M292.597 297.583C293.625 297.576 294.45 296.37 294.439 294.891C294.428 293.412 293.585 292.219 292.556 292.227C291.528 292.235 290.703 293.44 290.715 294.919C290.726 296.398 291.569 297.591 292.597 297.583Z" fill="#3F3D56"/>
<path d="M237.613 154.582L230.983 162.706C231.133 164.906 230.44 166.163 228.381 165.893C228.381 165.893 228.689 169.922 226.166 168.608C223.643 167.294 224.261 170.941 224.261 170.941L222.376 173.251C222.376 173.251 222.317 177.18 220.458 175.602C218.598 174.024 218.002 178.611 218.002 178.611L215.636 181.51L191.514 211.066L205.036 319.696L220.84 318.703L224.693 223.47C225.675 220.844 227.167 219.468 229.447 220.03C230.468 220.254 231.065 219.64 231.441 218.587L233.258 217.273L257.041 200.066L288.455 253.933L366.564 212.717L359.277 198.698L304.481 216.836L303.044 199.684C301.172 198.593 301.486 197.29 302.727 195.896L302.368 191.616C304.226 190.475 303.305 188.667 301.961 186.758C299.155 184.684 299.43 182.323 301.379 179.804C301.379 179.804 303.84 147.587 291.908 143.141C279.975 138.696 237.613 154.582 237.613 154.582Z" fill="#2F2E41"/>
<path d="M261.037 48.8311L246.062 49.5327L238.215 60.7481C232.752 72.7729 231.252 86.2242 233.932 99.1579L239.336 125.237L237.904 144.576C234.068 147.672 233.749 151.312 237.094 155.519C232.976 169.734 268.016 163.336 300.428 158.323C300.54 151.55 298.786 144.653 294.262 137.574L298.623 81.0723L282.492 61.8697L270.146 53.7345L261.037 48.8311Z" fill="#F0E8E8"/>
<path d="M275.052 64.328C273.854 65.0462 272.845 66.0398 272.108 67.2264C271.371 68.413 270.928 69.7583 270.814 71.1507C270.701 72.5431 270.921 73.9425 271.457 75.2326C271.992 76.5228 272.828 77.6666 273.893 78.5692C275.701 90.2982 286.924 101.597 304.572 111.459L278.308 129.475C276.63 128.793 274.779 128.659 273.021 129.094C271.263 129.529 269.687 130.509 268.52 131.896C267.354 133.282 266.656 135.002 266.526 136.809C266.397 138.617 266.843 140.419 267.801 141.957C268.759 143.495 270.178 144.69 271.857 145.371C273.536 146.052 275.387 146.183 277.144 145.747C278.902 145.31 280.477 144.327 281.642 142.94C282.807 141.553 283.503 139.832 283.63 138.024C291.78 135.507 328.037 123.463 323.659 109.679C319.979 98.0922 294.1 72.9235 285.356 65.2583C283.958 64.0318 282.207 63.2809 280.355 63.1137C278.504 62.9465 276.647 63.3717 275.052 64.328Z" fill="#FFB6B6"/>
<path d="M246.489 116.869C244.743 116.866 243.063 116.206 241.782 115.019C240.501 113.832 239.714 112.206 239.577 110.464L238.647 98.6011C238.503 96.764 239.095 94.945 240.291 93.5441C241.488 92.1432 243.191 91.2753 245.027 91.1312L268.06 89.324C269.896 89.18 271.714 89.7717 273.114 90.9688C274.514 92.1659 275.381 93.8704 275.525 95.7074L276.455 107.571C276.599 109.408 276.008 111.227 274.812 112.628C273.615 114.029 271.911 114.897 270.075 115.041L247.043 116.848C246.858 116.862 246.673 116.87 246.489 116.869Z" fill="#F2F2F2"/>
<path d="M249.804 45.9865C260.633 45.9865 269.412 37.2031 269.412 26.3682C269.412 15.5334 260.633 6.75 249.804 6.75C238.975 6.75 230.196 15.5334 230.196 26.3682C230.196 37.2031 238.975 45.9865 249.804 45.9865Z" fill="#FFB6B6"/>
<path d="M270.177 13.8828C269.248 12.676 268.184 11.5676 267.375 10.2771C266.596 9.03454 266.064 7.6398 265.186 6.46537C262.589 2.99186 257.76 2.28155 253.446 1.84895C250.597 1.56333 247.749 1.27771 244.9 0.992059C243.299 0.765319 241.677 0.735998 240.069 0.904772C238.539 1.14249 237.085 1.73134 235.821 2.62519C234.557 3.51905 233.516 4.69363 232.781 6.05694C231.947 7.63703 231.389 9.60631 229.762 10.3433C228.995 10.5852 228.214 10.7795 227.423 10.925C226.654 11.1636 225.882 11.7782 225.91 12.5832C225.963 14.0736 228.592 14.9268 227.951 16.2731C227.384 17.4621 225.116 16.6185 224.795 18.4134C224.751 18.6724 224.762 18.9377 224.827 19.1922C224.892 19.4467 225.009 19.6848 225.171 19.8914C225.903 20.8287 227.103 21.0723 228.228 21.2791L226.23 24.1379C232.699 26.7973 239.9 27.077 246.556 24.9273C247.549 24.5979 248.609 24.5234 249.639 24.7105C250.669 24.8976 251.636 25.3405 252.45 25.9984C253.264 26.6563 253.9 27.5083 254.3 28.4761C254.7 29.444 254.85 30.4968 254.738 31.538L254.729 31.6192C254.685 31.9331 254.728 32.2529 254.852 32.5446C254.976 32.8363 255.176 33.0889 255.432 33.2756C256.446 33.965 257.476 32.9978 257.935 32.0408C258.403 31.0673 258.713 29.8863 259.845 29.5452C260.307 29.4286 260.794 29.4651 261.233 29.6492C261.672 29.8333 262.04 30.155 262.28 30.566C263.16 31.9477 262.799 33.5967 262.293 35.059C261.121 38.4333 259.219 41.5071 256.723 44.0608C260.983 43.7789 259.737 44.2062 263.997 43.9243L265.185 44.1093C268.035 42.3299 269.448 38.9444 270.2 35.6679C271.905 28.2354 274.828 19.9237 270.177 13.8828Z" fill="#2F2E41"/>
<path d="M286.801 62.7222C283.97 60.8003 280.763 59.0282 277.349 59.241C273.593 59.4752 270.265 62.2275 268.766 65.681C267.268 69.1345 267.428 73.1487 268.598 76.7267C269.768 80.3048 271.88 83.5021 274.213 86.4557L273.408 85.6199C276.503 89.4795 279.598 93.339 282.694 97.1985C289.66 91.0731 296.627 84.9478 303.593 78.8224C298.937 72.5526 293.26 67.1101 286.801 62.7222Z" fill="#F0E8E8"/>
<path d="M249.26 355.242L249.269 354.851C249.446 348.297 251.047 341.859 253.962 335.987C256.876 330.114 261.034 324.947 266.146 320.844C269.032 318.566 272.193 316.66 275.554 315.172L275.875 315.029L275.93 315.376C276.581 319.514 277.611 323.738 278.092 325.613L281.311 313.044L281.669 312.94C283.309 312.459 285.056 312.479 286.685 313C288.314 313.521 289.749 314.517 290.806 315.861C291.91 317.206 292.585 318.85 292.746 320.583C292.907 322.315 292.546 324.056 291.71 325.581C290.959 326.98 290.222 328.439 289.508 329.85C287.057 334.701 284.522 339.716 280.828 343.613C278.003 346.535 274.561 348.788 270.754 350.209C266.948 351.63 262.872 352.182 258.824 351.825L249.26 355.242Z" fill="#F2F2F2"/>
<path d="M294.753 356.375L142.444 356.548C142.356 356.548 142.27 356.531 142.189 356.497C142.108 356.463 142.034 356.414 141.972 356.352C141.91 356.29 141.861 356.217 141.827 356.136C141.794 356.055 141.777 355.968 141.777 355.88C141.777 355.792 141.794 355.706 141.827 355.625C141.861 355.544 141.91 355.47 141.972 355.408C142.034 355.346 142.108 355.297 142.189 355.263C142.27 355.23 142.356 355.212 142.444 355.212L294.753 355.04C294.93 355.04 295.1 355.11 295.225 355.236C295.35 355.361 295.42 355.531 295.42 355.708C295.42 355.885 295.35 356.055 295.225 356.18C295.1 356.305 294.93 356.375 294.753 356.375Z" fill="#CACACA"/>
<path d="M437.113 356.375L349.259 356.548C349.171 356.548 349.085 356.531 349.004 356.497C348.923 356.463 348.849 356.414 348.787 356.352C348.725 356.29 348.676 356.217 348.642 356.136C348.609 356.055 348.592 355.968 348.592 355.88C348.592 355.792 348.609 355.706 348.642 355.625C348.676 355.544 348.725 355.47 348.787 355.408C348.849 355.346 348.923 355.297 349.004 355.263C349.085 355.23 349.171 355.212 349.259 355.212L437.113 355.04C437.29 355.04 437.46 355.11 437.585 355.236C437.71 355.361 437.781 355.531 437.781 355.708C437.781 355.885 437.71 356.055 437.585 356.18C437.46 356.305 437.29 356.375 437.113 356.375Z" fill="#CACACA"/>
<path d="M87.9378 356.375L5.68821 356.548C5.60057 356.548 5.51379 356.531 5.43282 356.497C5.35186 356.463 5.27829 356.414 5.21632 356.352C5.15435 356.29 5.1052 356.217 5.07166 356.136C5.03812 356.055 5.02086 355.968 5.02086 355.88C5.02086 355.792 5.03812 355.706 5.07166 355.625C5.1052 355.544 5.15435 355.47 5.21632 355.408C5.27829 355.346 5.35186 355.297 5.43282 355.263C5.51379 355.23 5.60057 355.212 5.68821 355.212L87.9378 355.04C88.0256 355.04 88.1126 355.057 88.1938 355.09C88.275 355.124 88.3488 355.173 88.4109 355.235C88.4731 355.297 88.5225 355.371 88.5561 355.452C88.5898 355.533 88.6071 355.62 88.6071 355.708C88.6071 355.796 88.5898 355.883 88.5561 355.964C88.5225 356.045 88.4731 356.119 88.4109 356.181C88.3488 356.243 88.275 356.292 88.1938 356.325C88.1126 356.359 88.0256 356.376 87.9378 356.375Z" fill="#CACACA"/>
<path d="M177.025 57.0146C176.701 57.0146 176.382 57.0816 176.086 57.2115C175.789 57.3413 175.524 57.5312 175.305 57.7691C175.086 58.0069 174.918 58.2876 174.813 58.5935C174.708 58.8993 174.667 59.2237 174.694 59.546C177.082 70.8081 178.133 81.5477 177.324 91.5611C177.375 92.1453 177.642 92.6895 178.073 93.0868C178.504 93.4842 179.068 93.7061 179.655 93.7092H194.742C195.328 93.7061 195.892 93.4842 196.323 93.0868C196.755 92.6895 197.022 92.1453 197.073 91.5611C195.854 81.4609 197.143 70.6768 199.703 59.546C199.729 59.2237 199.689 58.8993 199.584 58.5935C199.479 58.2876 199.311 58.0069 199.092 57.7691C198.873 57.5312 198.607 57.3413 198.311 57.2115C198.015 57.0816 197.695 57.0146 197.372 57.0146H177.025Z" fill="#F0E8E8"/>
<path d="M200.911 61.2817L199.785 55.9319C199.683 55.4455 199.417 55.009 199.031 54.6958C198.645 54.3825 198.163 54.2115 197.666 54.2115H190.639C190.612 54.1182 190.567 54.0309 190.507 53.9541L189.726 52.9775C189.653 52.8855 189.559 52.8112 189.453 52.7602C189.347 52.7091 189.231 52.6826 189.113 52.6826H184.774C184.657 52.6826 184.54 52.7091 184.434 52.7602C184.328 52.8112 184.235 52.8855 184.161 52.9775L183.38 53.9541C183.32 54.0309 183.276 54.1182 183.248 54.2115H176.731C176.234 54.2115 175.752 54.3825 175.366 54.6958C174.98 55.009 174.714 55.4455 174.611 55.9319L173.486 61.2817C173.419 61.5972 173.424 61.9235 173.5 62.2369C173.576 62.5503 173.72 62.8429 173.923 63.0933C174.126 63.3436 174.383 63.5455 174.674 63.6842C174.964 63.8229 175.283 63.8948 175.605 63.8948C182.966 66.2285 190.695 66.2285 198.792 63.8948C199.114 63.8948 199.432 63.8229 199.723 63.6842C200.014 63.5455 200.27 63.3436 200.474 63.0933C200.677 62.8429 200.821 62.5503 200.897 62.2369C200.973 61.9235 200.977 61.5972 200.911 61.2817Z" fill="#3F3D56"/>
</g>
<defs>
<clipPath id="clip0_42_91">
<rect width="504" height="356" fill="white" transform="translate(0 0.787109)"/>
</clipPath>
</defs>
</svg>
