<svg width="209" height="105" viewBox="0 0 209 105" fill="none" xmlns="http://www.w3.org/2000/svg">
<path d="M68.8279 105C62.5215 105 56.2245 104.887 49.9369 104.661C40.9528 104.337 31.6627 104.003 23.0279 99.2034C16.9875 95.8462 11.6378 90.4599 7.55732 83.6263C4.82996 78.9946 2.83015 73.9698 1.62812 68.7284C-0.614131 59.1857 -0.537757 49.2429 1.85082 39.7359C2.68787 36.4763 3.8418 33.3069 5.29605 30.273C11.593 17.2047 23.0783 8.43223 36.8069 6.20524C36.9203 6.1905 37.035 6.18804 37.1489 6.19793C37.2106 6.20124 37.2722 6.20479 37.3349 6.20216L37.4157 6.17642C37.6227 6.1043 37.8354 6.04959 38.0516 6.01288C59.2248 2.85389 81.608 9.24562 102.78 24.4966C119.15 36.2902 140.844 42.6409 169.104 43.9115L169.505 43.9326C177.372 44.3855 184.981 47.6358 191.512 53.3328C197.957 58.9556 202.797 66.4575 205.507 75.0278C205.841 76.0727 206.146 77.1604 206.415 78.2604C206.666 79.2827 206.648 80.3526 206.364 81.366C206.08 82.3794 205.538 83.3018 204.793 84.0435V84.0456L204.723 84.1181C204.553 84.2869 204.375 84.4489 204.193 84.5996L203.979 84.7766C202.173 86.2675 200.746 87.4453 199.039 88.36C197.9 88.966 196.69 89.4242 195.435 89.7235C188.549 91.4061 181.556 92.9661 174.65 94.3605C161.238 97.0706 147.473 99.3063 133.737 101.005C112.202 103.666 90.5254 105 68.8279 105ZM36.9883 6.66078C36.9461 6.66038 36.904 6.66325 36.8623 6.66935C23.2619 8.87553 11.8854 17.5618 5.65086 30.5008C4.21097 33.5046 3.06845 36.6427 2.23973 39.8699C-0.127082 49.2927 -0.202505 59.1471 2.0198 68.6051C3.21007 73.7964 5.19049 78.7731 7.89151 83.3605C11.9321 90.1271 17.2271 95.4594 23.2041 98.7811C31.7614 103.538 41.0077 103.871 49.9496 104.192C77.9167 105.194 105.919 103.972 133.693 100.539C147.421 98.8415 161.177 96.6074 174.58 93.8989C181.481 92.5057 188.469 90.9469 195.351 89.2652C196.575 88.9733 197.757 88.5263 198.868 87.9351C200.541 87.0389 201.954 85.8723 203.742 84.3956L203.957 84.2188C204.113 84.0891 204.267 83.9504 204.414 83.8063L204.456 83.762C205.926 82.2772 206.498 80.3183 206.025 78.3878V78.3875C205.758 77.2992 205.456 76.2232 205.126 75.1891C199.59 57.6815 185.267 45.3089 169.486 44.4005L169.087 44.3795C156.178 43.799 144.882 42.1909 134.555 39.463C122.226 36.2067 111.463 31.3049 102.565 24.8939C81.4737 9.70138 59.1841 3.33344 38.1033 6.47744C37.9064 6.51148 37.7126 6.56182 37.524 6.62795L37.3784 6.66878C37.2957 6.67249 37.2128 6.67149 37.1302 6.6658C37.0816 6.66329 37.0344 6.66078 36.9883 6.66078H36.9883Z" fill="#F0F0F0"/>
<path d="M65.283 34.2102C64.6992 33.6489 64.102 30.5184 63.3567 30.2006C63.9138 31.4347 63.5093 31.7614 63.5063 33.1157C63.5134 33.8848 63.4237 34.6516 63.2396 35.3982H50.6133V25.5228C50.6133 24.6354 50.7877 23.7568 51.1265 22.937C51.4653 22.1172 51.9619 21.3723 52.588 20.7449C53.2141 20.1174 53.9573 19.6197 54.7753 19.2802C55.5933 18.9406 56.4701 18.7658 57.3555 18.7659C57.6934 18.7725 58.0292 18.8217 58.3548 18.9125C59.4401 19.2061 60.4292 19.7806 61.223 20.5784C62.0168 21.3761 62.5873 22.369 62.8773 23.4574C63.8399 26.9834 65.3707 32.8526 65.283 34.2102Z" fill="#2F2E41"/>
<path d="M51.3542 46.359L51.3604 38.6616L46.8456 39.066L48.439 43.9207L47.6933 56.1231C47.3316 56.2044 47.0013 56.3895 46.7428 56.6556C46.4842 56.9218 46.3086 57.2577 46.2372 57.6222C46.1658 57.9867 46.2017 58.3642 46.3407 58.7086C46.4797 59.053 46.7156 59.3494 47.0198 59.5617C47.3239 59.774 47.6832 59.8931 48.0537 59.9043C48.4242 59.9156 48.7899 59.8185 49.1064 59.6251C49.4228 59.4316 49.6762 59.15 49.8357 58.8147C49.9952 58.4793 50.0539 58.1047 50.0047 57.7366L51.3542 46.359Z" fill="#FFB6B6"/>
<path d="M60.2393 101.364L62.0632 101.364L62.931 94.3132H60.2388L60.2393 101.364Z" fill="#FFB6B6"/>
<path d="M59.6215 100.463L62.5049 100.29V101.528L65.2462 103.425C65.3816 103.519 65.4835 103.654 65.5372 103.81C65.5909 103.966 65.5934 104.135 65.5444 104.292C65.4955 104.449 65.3975 104.587 65.265 104.685C65.1325 104.783 64.9722 104.835 64.8077 104.835H61.3749L60.7832 103.611L60.5522 104.835H59.2579L59.6215 100.463Z" fill="#2F2E41"/>
<path d="M49.6926 101.364L51.5168 101.364L52.3843 94.3132H49.6924L49.6926 101.364Z" fill="#FFB6B6"/>
<path d="M49.075 100.463L51.9584 100.29V101.528L54.6997 103.425C54.8351 103.519 54.937 103.654 54.9907 103.81C55.0444 103.966 55.0469 104.135 54.9979 104.292C54.949 104.449 54.8511 104.587 54.7185 104.685C54.586 104.783 54.4257 104.835 54.2612 104.835H50.8284L50.2367 103.611L50.0057 104.835H48.7114L49.075 100.463Z" fill="#2F2E41"/>
<path d="M58.615 30.3491L54.8364 30.4234L52.1692 33.2449L50.0309 33.5592C49.0636 33.7014 48.1743 34.172 47.5117 34.8924C46.849 35.6128 46.4532 36.5393 46.3903 37.517L46.7607 39.5563H48.9834L50.2692 47.1225C49.7692 48.3993 49.7352 49.4072 50.7615 49.803L53.9474 55.8174L63.3567 51.5851C63.8339 50.7629 63.9868 49.9371 63.499 49.1341L64.1717 37.5515H66.4335C66.4335 35.3852 65.7023 33.5589 63.5542 33.3179C62.7011 33.2254 61.8439 33.1762 60.9858 33.1707L58.615 30.3491Z" fill="#E6E6E6"/>
<path d="M63.3567 51.585C63.3567 51.585 54.1696 53.2186 50.7615 49.803C50.7615 49.803 50.4155 50.3917 49.8941 51.368C49.7442 51.6487 49.4546 51.8389 49.2797 52.179C49.1208 52.4881 48.712 52.8681 48.5388 53.2187C48.3995 53.5007 48.623 53.8692 48.4781 54.1739C46.7327 57.8427 44.6935 63.018 45.1307 66.4353C45.4126 68.6391 45.9949 73.7671 46.6082 79.2748C46.6561 79.7051 46.268 80.2579 46.3161 80.6916C46.3616 81.1006 46.8432 81.3905 46.8886 81.8004C46.9188 82.0726 46.5824 82.3503 46.6125 82.6222C46.6455 82.9204 47.0449 83.2129 47.0777 83.51C47.9178 91.1149 48.687 98.215 48.687 98.215H52.9842L53.795 81.999L53.1324 76.088L54.6882 64.1335L56.8368 75.494L57.1132 81.8878L59.3839 98.512H63.3567V82.4187L63.653 81.5827L63.3567 80.5104L63.653 79.3551L63.3567 78.0969V51.585Z" fill="#2F2E41"/>
<path d="M59.7748 28.1531C59.1895 28.9323 58.3568 29.4886 57.4139 29.7302C56.471 29.9718 55.4742 29.8844 54.5875 29.4823C53.7008 29.0803 52.9771 28.3876 52.5357 27.5184C52.0943 26.6491 51.9615 25.6551 52.159 24.7001C52.3566 23.7451 52.8728 22.8859 53.6227 22.2642C54.3725 21.6425 55.3113 21.2952 56.2844 21.2796C57.2575 21.264 58.2069 21.581 58.9762 22.1783C59.7455 22.7757 60.2889 23.6178 60.5169 24.5661C60.5292 24.6175 60.5396 24.6687 60.5497 24.7218C60.6701 25.3161 60.6632 25.9293 60.5297 26.5208C60.3961 27.1123 60.1388 27.6687 59.7748 28.1531Z" fill="#FFB6B6"/>
<path d="M58.8817 25.7039C58.7909 25.2469 58.561 24.8293 58.2238 24.5085C58.2571 24.9464 58.1964 25.3864 58.046 25.799C56.9195 25.8989 55.788 25.6743 54.7846 25.1515C54.0289 24.6377 53.0672 24.6822 51.947 25.1515C51.9469 24.6054 52.0542 24.0647 52.2626 23.5602C52.4711 23.0557 52.7767 22.5973 53.162 22.2111C53.5473 21.825 54.0047 21.5187 54.5081 21.3098C55.0115 21.1008 55.5511 20.9933 56.096 20.9934H56.8369C57.9372 20.9936 58.9924 21.4318 59.7704 22.2115C60.5485 22.9913 60.9857 24.0488 60.9859 25.1515C60.3021 25.3973 59.5979 25.5822 58.8817 25.7039Z" fill="#2F2E41"/>
<path d="M26.4681 78.7005C33.051 78.7005 38.3876 73.3523 38.3876 66.7549C38.3876 60.1576 33.051 54.8093 26.4681 54.8093C19.8851 54.8093 14.5486 60.1576 14.5486 66.7549C14.5486 73.3523 19.8851 78.7005 26.4681 78.7005Z" fill="#F0F0F0"/>
<path d="M102.426 23.8912C109.009 23.8912 114.345 18.543 114.345 11.9456C114.345 5.34823 109.009 0 102.426 0C95.8427 0 90.5062 5.34823 90.5062 11.9456C90.5062 18.543 95.8427 23.8912 102.426 23.8912Z" fill="#F0F0F0"/>
<path d="M197.081 80.5743C203.663 80.5743 209 75.2261 209 68.6287C209 62.0313 203.663 56.6831 197.081 56.6831C190.498 56.6831 185.161 62.0313 185.161 68.6287C185.161 75.2261 190.498 80.5743 197.081 80.5743Z" fill="#F0F0F0"/>
<path d="M123.928 13.2483V40.3358C123.928 40.8984 123.706 41.4384 123.311 41.8383C122.916 42.2382 122.38 42.4659 121.819 42.4717C121.811 42.4726 121.803 42.4729 121.795 42.4727H118.649C116.132 42.4727 113.719 41.4707 111.939 39.687C110.159 37.9033 109.159 35.4841 109.159 32.9616V13.2483C109.159 12.6815 109.384 12.138 109.784 11.7372C110.183 11.3365 110.726 11.1113 111.291 11.1113H112.566C111.975 12.8377 119.99 13.5646 120.43 11.1113H121.795C122.361 11.1113 122.903 11.3365 123.303 11.7372C123.703 12.138 123.928 12.6815 123.928 13.2483Z" fill="#F0E8E8"/>
<path d="M114.592 9.08596C114.592 9.01171 114.622 8.94053 114.674 8.88803C114.727 8.83553 114.798 8.806 114.872 8.80591H116.772C116.846 8.80612 116.917 8.83572 116.969 8.88822C117.021 8.94072 117.05 9.01183 117.05 9.08596C117.05 9.1601 117.021 9.23121 116.969 9.28371C116.917 9.3362 116.846 9.3658 116.772 9.36602H114.872C114.798 9.36593 114.727 9.3364 114.674 9.2839C114.622 9.2314 114.592 9.16021 114.592 9.08596Z" fill="#3F3D56"/>
<path d="M122.448 45.9087H110.431C109.499 45.9076 108.605 45.536 107.946 44.8753C107.287 44.2147 106.916 43.3189 106.915 42.3845V23.4493C106.849 23.4018 106.795 23.3392 106.758 23.2668C106.721 23.1943 106.702 23.1141 106.702 23.0326V21.1283C106.702 21.0469 106.721 20.9666 106.758 20.8942C106.795 20.8218 106.849 20.7592 106.915 20.7118V20.2006C106.849 20.1532 106.795 20.0906 106.758 20.0182C106.721 19.9457 106.702 19.8655 106.702 19.7841V17.8796C106.702 17.7982 106.721 17.718 106.758 17.6456C106.795 17.5731 106.849 17.5106 106.915 17.4631V16.5393C106.833 16.4955 106.765 16.4303 106.718 16.3507C106.671 16.271 106.646 16.18 106.646 16.0874V14.183C106.646 14.0903 106.671 13.9993 106.718 13.9196C106.765 13.84 106.833 13.7748 106.915 13.7309V11.1997C106.916 10.2653 107.287 9.36956 107.946 8.70889C108.605 8.04821 109.499 7.67659 110.431 7.67554H122.448C123.38 7.67659 124.274 8.04822 124.933 8.7089C125.593 9.36958 125.963 10.2654 125.965 11.1997V16.7172C126.028 16.7569 126.08 16.8121 126.116 16.8776C126.152 16.943 126.171 17.0167 126.172 17.0915V20.7227C126.171 20.7976 126.152 20.8712 126.116 20.9367C126.08 21.0022 126.028 21.0574 125.965 21.0972V42.3845C125.963 43.3189 125.593 44.2147 124.933 44.8753C124.274 45.536 123.38 45.9076 122.448 45.9087ZM110.431 8.14399C109.623 8.1449 108.848 8.46713 108.276 9.03999C107.705 9.61284 107.383 10.3895 107.382 11.1997V14.1294L107.157 14.1381C107.146 14.1385 107.135 14.1434 107.126 14.1517C107.118 14.1601 107.114 14.1713 107.113 14.183V16.0873C107.114 16.0991 107.118 16.1102 107.126 16.1186C107.135 16.1269 107.146 16.1318 107.157 16.1323L107.382 16.1409V17.792L107.204 17.8359C107.195 17.8383 107.186 17.8439 107.179 17.8518C107.173 17.8597 107.169 17.8695 107.169 17.8796V19.7841C107.169 19.7942 107.173 19.804 107.179 19.8119C107.186 19.8198 107.195 19.8254 107.204 19.8278L107.382 19.8717V21.0407L107.204 21.0846C107.195 21.087 107.186 21.0925 107.179 21.1004C107.173 21.1083 107.169 21.1181 107.169 21.1283V23.0326C107.169 23.0428 107.173 23.0526 107.179 23.0605C107.186 23.0684 107.195 23.074 107.204 23.0764L107.382 23.1203V42.3845C107.383 43.1947 107.705 43.9714 108.276 44.5443C108.848 45.1171 109.623 45.4393 110.431 45.4402H122.448C123.256 45.4393 124.031 45.1171 124.603 44.5442C125.175 43.9714 125.496 43.1947 125.497 42.3845V20.6961H125.704V17.1183H125.497V11.1997C125.496 10.3895 125.175 9.61286 124.603 9.04C124.031 8.46715 123.256 8.14491 122.448 8.14398L110.431 8.14399Z" fill="#3F3D56"/>
<path d="M117.834 9.36602C117.988 9.36602 118.113 9.24063 118.113 9.08596C118.113 8.93129 117.988 8.80591 117.834 8.80591C117.679 8.80591 117.554 8.93129 117.554 9.08596C117.554 9.24063 117.679 9.36602 117.834 9.36602Z" fill="#3F3D56"/>
<path d="M57.0454 63.3359H25.7772C25.3332 63.3347 24.9077 63.1575 24.5936 62.8428C24.2796 62.5282 24.1027 62.1017 24.1015 61.6567V46.3876C24.1026 45.9426 24.2795 45.5162 24.5935 45.2015C24.9075 44.8868 25.333 44.7095 25.777 44.7083H57.0451C57.4892 44.7094 57.9147 44.8867 58.2287 45.2013C58.5427 45.516 58.7196 45.9424 58.7208 46.3874V61.6565C58.7197 62.1015 58.5428 62.528 58.2289 62.8427C57.9149 63.1574 57.4894 63.3347 57.0454 63.3359Z" fill="white"/>
<path d="M57.0454 63.3359H25.7772C25.3332 63.3347 24.9077 63.1575 24.5936 62.8428C24.2796 62.5282 24.1027 62.1017 24.1015 61.6567V46.3876C24.1026 45.9426 24.2795 45.5162 24.5935 45.2015C24.9075 44.8868 25.333 44.7095 25.777 44.7083H57.0451C57.4892 44.7094 57.9147 44.8867 58.2287 45.2013C58.5427 45.516 58.7196 45.9424 58.7208 46.3874V61.6565C58.7197 62.1015 58.5428 62.528 58.2289 62.8427C57.9149 63.1574 57.4894 63.3347 57.0454 63.3359ZM25.7772 45.1767C25.457 45.1777 25.1502 45.3056 24.9238 45.5325C24.6974 45.7595 24.5698 46.067 24.5689 46.3879V61.6565C24.5699 61.9774 24.6975 62.2849 24.9239 62.5118C25.1504 62.7387 25.4572 62.8666 25.7775 62.8674H57.0449C57.3651 62.8665 57.672 62.7387 57.8985 62.5117C58.1249 62.2848 58.2525 61.9772 58.2534 61.6563V46.3877C58.2525 46.0668 58.1248 45.7593 57.8984 45.5324C57.672 45.3055 57.3651 45.1776 57.0449 45.1767L25.7772 45.1767Z" fill="#3F3D56"/>
<path d="M43.0871 61.0792C36.9203 61.0792 30.4901 61.0202 28.0909 60.9819C27.7752 60.9753 27.4746 60.8454 27.2533 60.6198C27.0319 60.3942 26.9073 60.0908 26.9061 59.7744V47.1351C26.9062 47.0218 26.9511 46.9131 27.0309 46.8329C27.1108 46.7527 27.2191 46.7074 27.3321 46.707H55.4892C55.6022 46.7072 55.7106 46.7522 55.7906 46.8322C55.8707 46.9122 55.9158 47.0207 55.9163 47.134V55.7095C55.911 57.1093 55.3585 58.4513 54.3773 59.4476C53.3961 60.4439 52.0643 61.0151 50.6677 61.0387C48.4317 61.0678 45.7839 61.0792 43.0871 61.0792Z" fill="#F0E8E8"/>
<path d="M53.8178 54.9216H28.3757C28.1627 54.921 27.955 54.8547 27.7809 54.7317C27.6067 54.6087 27.4746 54.4349 27.4025 54.234L24.5228 46.1376C24.4673 45.9815 24.45 45.8142 24.4724 45.65C24.4947 45.4858 24.5561 45.3293 24.6513 45.1937C24.7465 45.0582 24.8728 44.9475 25.0195 44.871C25.1662 44.7945 25.3291 44.7544 25.4945 44.7541L57.2968 44.7097C57.4479 44.7096 57.5973 44.7426 57.7343 44.8066C57.8714 44.8706 57.9927 44.9639 58.0899 45.08C58.187 45.1961 58.2576 45.3321 58.2966 45.4785C58.3356 45.6248 58.3421 45.778 58.3156 45.9272L58.3401 45.9376L58.2488 46.1511L58.2479 46.1533L54.7667 54.2939C54.6874 54.4803 54.5552 54.6392 54.3865 54.7508C54.2177 54.8624 54.02 54.9218 53.8178 54.9216ZM57.2982 45.1782L25.4954 45.2225C25.4048 45.2227 25.3156 45.2447 25.2352 45.2866C25.1548 45.3284 25.0856 45.3891 25.0335 45.4633C24.9813 45.5376 24.9477 45.6233 24.9355 45.7132C24.9232 45.8032 24.9327 45.8948 24.9631 45.9803L27.8426 54.0764C27.8822 54.1865 27.9546 54.2817 28.0501 54.3491C28.1455 54.4165 28.2593 54.4528 28.376 54.4531H53.8178C53.9285 54.4532 54.0367 54.4207 54.129 54.3596C54.2213 54.2985 54.2937 54.2116 54.3371 54.1096L57.8184 45.9687L57.9896 46.0422L57.8184 45.9687C57.8553 45.8824 57.8702 45.7883 57.8619 45.6949C57.8536 45.6014 57.8222 45.5114 57.7707 45.4331C57.7191 45.3547 57.649 45.2904 57.5665 45.2459C57.4841 45.2014 57.3919 45.1782 57.2982 45.1782Z" fill="#3F3D56"/>
<path d="M41.3637 56.684C42.464 56.684 43.3559 55.7901 43.3559 54.6875C43.3559 53.5848 42.464 52.6909 41.3637 52.6909C40.2635 52.6909 39.3715 53.5848 39.3715 54.6875C39.3715 55.7901 40.2635 56.684 41.3637 56.684Z" fill="white"/>
<path d="M116.62 39.3513C117.72 39.3513 118.612 38.4574 118.612 37.3547C118.612 36.252 117.72 35.3582 116.62 35.3582C115.52 35.3582 114.628 36.252 114.628 37.3547C114.628 38.4574 115.52 39.3513 116.62 39.3513Z" fill="white"/>
<path d="M191.969 66.3144L186.647 61.049C186.388 60.7906 186.081 60.5861 185.743 60.447C185.405 60.3079 185.043 60.2371 184.677 60.2385H184.658C184.29 60.2396 183.926 60.3139 183.587 60.457C183.247 60.6001 182.939 60.8093 182.681 61.0724C181.491 62.2793 180.815 63.9014 180.793 65.5979C180.772 67.2945 181.408 68.9332 182.567 70.1698C182.623 70.2307 182.681 70.2892 182.74 70.3478C183.063 70.6702 183.421 70.9568 183.805 71.2027C184.858 71.884 186.084 72.2444 187.337 72.2404H187.377C188.236 72.2374 189.087 72.0637 189.879 71.7292C190.672 71.3947 191.39 70.9061 191.992 70.2916C192.515 69.7606 192.806 69.0437 192.801 68.2982C192.797 67.5526 192.498 66.8392 191.969 66.3144ZM191.661 69.9613C190.673 70.9589 189.372 71.5846 187.977 71.7331C186.582 71.8815 185.179 71.5437 184.004 70.7764C183.668 70.5535 183.354 70.2986 183.067 70.0152C181.92 68.8802 181.27 67.3352 181.26 65.7201C181.25 64.1049 181.881 62.5519 183.013 61.4027C183.228 61.1828 183.485 61.0081 183.768 60.8887C184.052 60.7692 184.356 60.7075 184.663 60.707H184.677C184.981 60.7059 185.283 60.765 185.565 60.8807C185.846 60.9964 186.102 61.1667 186.318 61.3816L191.64 66.6494C192.08 67.086 192.33 67.68 192.334 68.301C192.338 68.9219 192.096 69.5191 191.661 69.9613Z" fill="#3F3D56"/>
<path d="M174.508 49.0333L169.187 43.7655C168.663 43.2447 167.954 42.9532 167.216 42.9551H167.2C166.831 42.9566 166.466 43.0312 166.127 43.1747C165.787 43.3183 165.479 43.5278 165.22 43.7913C164.237 44.7925 163.599 46.0832 163.4 47.4742C163.202 48.8652 163.453 50.2833 164.117 51.5208L164.12 51.5231C164.394 52.0293 164.734 52.4964 165.132 52.9121C165.176 52.9636 165.227 53.0151 165.279 53.0667C166.501 54.2824 168.154 54.963 169.876 54.9592H169.918C170.778 54.9556 171.628 54.7814 172.421 54.4465C173.213 54.1116 173.931 53.6227 174.534 53.0081C174.793 52.7454 174.997 52.4343 175.136 52.0923C175.275 51.7504 175.345 51.3845 175.343 51.0154C175.34 50.6462 175.265 50.2812 175.122 49.9411C174.979 49.6011 174.77 49.2926 174.508 49.0333V49.0333ZM174.2 52.6802C173.64 53.2505 172.974 53.7042 172.238 54.0149C171.503 54.3257 170.714 54.4874 169.916 54.4908H169.876C168.678 54.4903 167.506 54.1347 166.509 53.4688C165.511 52.8028 164.733 51.8561 164.271 50.7479C163.809 49.6396 163.685 48.4192 163.913 47.2402C164.141 46.0611 164.712 44.9761 165.555 44.1215C165.99 43.6801 166.583 43.4299 167.203 43.4259C167.822 43.422 168.418 43.6646 168.859 44.1005L174.181 49.3659C174.621 49.8033 174.87 50.3979 174.874 51.0192C174.877 51.6405 174.635 52.2378 174.2 52.6802L174.2 52.6802Z" fill="#3F3D56"/>
<path d="M192.309 67.9699L186.442 62.1626C186.058 61.7826 185.538 61.5711 184.998 61.5745C184.458 61.5779 183.941 61.7958 183.561 62.1805C183.086 62.6618 182.71 63.2322 182.455 63.8593C182.199 64.4863 182.07 65.1576 182.074 65.8347C182.078 66.5119 182.214 67.1817 182.477 67.8058C182.739 68.4299 183.122 68.996 183.602 69.4719C184.083 69.9478 184.653 70.324 185.279 70.5791C185.905 70.8342 186.574 70.9631 187.25 70.9585C187.926 70.9539 188.594 70.8159 189.216 70.5524C189.839 70.2888 190.403 69.9049 190.878 69.4226L192.309 67.9699Z" fill="#F0E8E8"/>
<path d="M174.849 50.6877L168.982 44.8804C168.598 44.5004 168.078 44.2889 167.538 44.2923C166.998 44.2956 166.481 44.5136 166.101 44.8983C165.626 45.3796 165.25 45.95 164.995 46.577C164.739 47.2041 164.61 47.8753 164.614 48.5525C164.618 49.2297 164.755 49.8995 165.017 50.5236C165.279 51.1476 165.662 51.7138 166.142 52.1897C166.623 52.6655 167.193 53.0418 167.819 53.2968C168.445 53.5519 169.115 53.6809 169.79 53.6763C170.466 53.6717 171.134 53.5337 171.757 53.2702C172.379 53.0066 172.944 52.6227 173.418 52.1404L174.849 50.6877Z" fill="#F0E8E8"/>
<path d="M185.862 71.587L185.722 71.9571C185.063 71.7065 184.424 71.4551 183.805 71.2029C172.849 66.7221 167.618 61.4777 164.12 51.5231L164.117 51.5207C163.951 51.0523 163.79 50.5729 163.633 50.0826L164.003 49.9631C164.126 50.4347 164.307 50.8893 164.54 51.317C164.732 51.8627 164.929 52.3944 165.132 52.9121C168.42 61.3138 173.27 66.1154 182.567 70.1699C183.034 70.3737 183.513 70.5759 184.004 70.7766C184.574 71.1487 185.202 71.4226 185.862 71.587Z" fill="#3F3D56"/>
<path d="M169.089 54.5328L168.76 54.8662L180.899 66.8816L181.228 66.5482L169.089 54.5328Z" fill="#3F3D56"/>
<path d="M66.3203 44.577L66.3265 36.8796L61.8117 37.284L63.405 42.1387L57.6212 50.9255C57.2596 51.0069 56.9293 51.1919 56.6708 51.4581C56.4122 51.7243 56.2365 52.0601 56.1651 52.4246C56.0937 52.7892 56.1297 53.1666 56.2687 53.511C56.4076 53.8554 56.6436 54.1518 56.9478 54.3642C57.2519 54.5765 57.6111 54.6955 57.9816 54.7068C58.3521 54.718 58.7179 54.621 59.0343 54.4275C59.3508 54.234 59.6042 53.9524 59.7637 53.6171C59.9232 53.2818 59.9819 52.9072 59.9327 52.539L66.3203 44.577Z" fill="#FFB6B6"/>
</svg>
