<svg width="128" height="120" viewBox="0 0 128 120" fill="none" xmlns="http://www.w3.org/2000/svg">
<path d="M119.105 27.5217C103.669 1.31995 73.1322 0.0988386 73.1322 0.0988386C73.1322 0.0988386 43.3753 -3.72411 24.2864 36.1815C6.49407 73.3767 -18.0616 109.29 20.3332 117.997L27.2683 96.311L31.5633 119.611C37.03 120.006 42.5141 120.1 47.991 119.893C89.1087 118.56 128.267 120.283 127.006 105.46C125.33 85.7548 133.956 52.733 119.105 27.5217Z" fill="#2F2E41"/>
<path d="M76.4328 93.7543C94.8568 93.7543 109.792 78.7494 109.792 60.2399C109.792 41.7305 94.8568 26.7256 76.4328 26.7256C58.0089 26.7256 43.0733 41.7305 43.0733 60.2399C43.0733 78.7494 58.0089 93.7543 76.4328 93.7543Z" fill="#FFB8B8"/>
<path d="M112.281 24.996L82.1112 9.11987L40.4488 15.6145L31.8286 53.8619L53.2861 53.0329L59.2807 38.981V52.8016L69.1814 52.4187L74.9281 30.0474L78.5196 53.8619L113.717 53.1406L112.281 24.996Z" fill="#2F2E41"/>
</svg>
