<svg width="86" height="86" viewBox="0 0 86 86" fill="none" xmlns="http://www.w3.org/2000/svg">
<path d="M37.4979 86.0001C58.2075 86.0001 74.9959 69.1706 74.9959 48.4105C74.9959 27.6503 58.2075 10.8208 37.4979 10.8208C16.7884 10.8208 0 27.6503 0 48.4105C0 69.1706 16.7884 86.0001 37.4979 86.0001Z" fill="#FFB6B6"/>
<path d="M6.95538 16.1173C10.0391 7.124 25.3902 0.88617 50.2766 0.018824C75.163 -0.848594 81.4747 28.5507 81.4747 28.5507C98.0882 42.0606 63.7347 78.2301 62.0727 76.9274L62.8198 70.1318C64.0574 58.8759 69.3153 50.0933 62.6284 38.3627L56.2074 38.4366L44.0287 40.7842C43.2696 40.9306 42.4835 40.8226 41.7916 40.4768C41.0997 40.1311 40.5405 39.5669 40.2001 38.8711C39.8597 38.1753 39.7571 37.3866 39.908 36.6266C40.0589 35.8665 40.455 35.1774 41.0352 34.6653L41.1467 34.5668L40.8698 34.1374C36.5795 36.1105 32.1587 37.9402 27.4682 38.2165C22.1914 38.5274 16.4225 36.4222 13.895 31.7683C13.2202 30.4891 12.8078 29.0873 12.6823 27.6457C5.56653 30.4957 2.31262 39.2894 2.31262 39.2894C2.31262 39.2894 3.87165 25.1106 6.95538 16.1173Z" fill="#2F2E41"/>
</svg>
