<svg width="86" height="92" viewBox="0 0 86 92" fill="none" xmlns="http://www.w3.org/2000/svg">
<path d="M42.33 91.9999C63.7211 91.9999 81.062 74.5804 81.062 53.0924C81.062 31.6043 63.7211 14.1848 42.33 14.1848C20.9388 14.1848 3.5979 31.6043 3.5979 53.0924C3.5979 74.5804 20.9388 91.9999 42.33 91.9999Z" fill="#A0616A"/>
<path d="M3.32933 58.0767C3.32933 58.0767 -0.692832 52.0162 0.854146 45.4895C1.77848 41.7839 2.14353 37.9599 1.93703 34.1454C1.93703 34.1454 5.18566 23.5784 8.4343 17.6732C11.6829 11.7681 10.136 9.28174 20.346 7.41697C30.556 5.5522 26.3792 -7.812 53.2964 6.63998C54.2046 7.9137 55.4679 8.88864 56.9271 9.44178C58.3863 9.99492 59.9759 10.1014 61.4954 9.74794C67.0645 8.66015 69.0755 16.43 69.0755 16.43C69.0755 16.43 72.7882 14.2545 74.1805 17.3624C75.5728 20.4704 85.5 15.4971 85.5 36.4758C85.5 57.4545 74.2032 76.1939 74.2032 76.1939C74.2032 76.1939 75.0314 40.9052 56.6224 37.3311C38.2135 33.7569 18.4123 23.3453 13.6166 36.7095C8.82104 50.0737 3.32933 58.0767 3.32933 58.0767Z" fill="#2F2E41"/>
<path d="M74.6066 66.4671C76.6121 66.4671 78.2378 64.2897 78.2378 61.6037C78.2378 58.9177 76.6121 56.7402 74.6066 56.7402C72.6012 56.7402 70.9755 58.9177 70.9755 61.6037C70.9755 64.2897 72.6012 66.4671 74.6066 66.4671Z" fill="#A0616A"/>
</svg>
