<svg width="232" height="175" viewBox="0 0 232 175" fill="none" xmlns="http://www.w3.org/2000/svg">
<path d="M109.024 146.909C109.024 146.909 111.977 142.073 115.768 144.932C119.559 147.791 126.579 152.615 126.579 152.615C126.579 152.615 128.017 155.701 124.295 154.542C120.574 153.383 108.424 151.518 108.424 151.518L109.024 146.909Z" fill="#FEB8B8"/>
<path d="M26.505 116.2C27.446 108.647 32.1352 101.206 39.3513 98.748C36.5055 106.522 36.5061 115.049 39.353 122.823C40.4619 125.816 42.0075 129.031 40.9645 132.048C40.3155 133.926 38.728 135.362 36.9534 136.26C35.1787 137.159 33.2092 137.587 31.2643 138.006L30.8816 138.322C27.7941 131.363 25.5641 123.752 26.505 116.2Z" fill="#F0F0F0"/>
<path d="M39.4229 98.8909C35.2206 103.591 32.6088 109.493 31.9583 115.759C31.7943 117.105 31.844 118.469 32.1054 119.8C32.4021 121.088 33.039 122.274 33.9499 123.233C34.7813 124.145 35.7374 124.982 36.3323 126.079C36.6284 126.646 36.8013 127.268 36.8395 127.906C36.8777 128.543 36.7805 129.182 36.5541 129.779C36.029 131.283 34.9938 132.509 33.9399 133.672C32.7696 134.964 31.5336 136.287 31.0362 137.999C30.9759 138.207 30.6569 138.101 30.7171 137.894C31.5825 134.915 34.48 133.222 35.8618 130.539C36.5065 129.287 36.7772 127.833 36.1727 126.511C35.6441 125.355 34.6589 124.492 33.8091 123.576C32.9067 122.653 32.2445 121.523 31.8803 120.286C31.5518 118.973 31.4496 117.613 31.5781 116.265C31.8189 113.227 32.5368 110.245 33.7056 107.429C35.0217 104.208 36.8802 101.235 39.2005 98.6393C39.3442 98.4787 39.5656 98.7313 39.4229 98.8909Z" fill="white"/>
<path d="M32.0488 113.729C31.0104 113.477 30.0954 112.865 29.4673 112.002C28.8391 111.14 28.5387 110.082 28.6196 109.018C28.6368 108.803 28.9725 108.82 28.9554 109.035C28.8781 110.025 29.1581 111.01 29.7447 111.813C30.3312 112.615 31.1858 113.182 32.1542 113.41C32.3645 113.46 32.258 113.778 32.0488 113.729Z" fill="white"/>
<path d="M33.4674 122.826C35.3429 121.709 36.7274 119.926 37.3448 117.835C37.4058 117.628 37.7249 117.733 37.6639 117.94C37.0173 120.115 35.5728 121.967 33.6185 123.126C33.4322 123.236 33.2821 122.936 33.4674 122.826Z" fill="white"/>
<path d="M35.3335 104.525C35.715 104.706 36.1355 104.79 36.5572 104.769C36.979 104.747 37.3889 104.622 37.75 104.403C37.9349 104.29 38.0848 104.591 37.9012 104.703C37.5011 104.942 37.0482 105.08 36.5823 105.105C36.1163 105.13 35.6514 105.04 35.2281 104.844C35.1867 104.829 35.1526 104.798 35.1327 104.759C35.1129 104.72 35.1088 104.674 35.1213 104.632C35.1354 104.59 35.1657 104.555 35.2054 104.535C35.2451 104.515 35.2912 104.512 35.3335 104.525Z" fill="white"/>
<path d="M61.3469 112.238C61.2335 112.311 61.1201 112.385 61.0065 112.461C59.4868 113.459 58.0508 114.578 56.7126 115.808C56.6077 115.901 56.5027 115.997 56.4006 116.093C53.2083 119.09 50.6012 122.652 48.7118 126.599C47.9613 128.17 47.3318 129.796 46.8285 131.463C46.1336 133.764 45.5635 136.315 44.188 138.198C44.0467 138.396 43.8932 138.585 43.7285 138.764H31.2975C31.2692 138.75 31.2408 138.738 31.2124 138.724L30.7161 138.747C30.736 138.659 30.7586 138.568 30.7786 138.481C30.7899 138.43 30.804 138.379 30.8154 138.328C30.8238 138.294 30.8324 138.26 30.8381 138.229C30.8409 138.217 30.8438 138.206 30.8465 138.198C30.8522 138.166 30.8608 138.138 30.8665 138.11C30.9913 137.603 31.1198 137.096 31.2522 136.59C31.2522 136.587 31.2522 136.587 31.2549 136.584C32.2732 132.725 33.6232 128.918 35.5092 125.436C35.566 125.331 35.6226 125.223 35.6851 125.119C36.544 123.554 37.5295 122.062 38.6319 120.657C39.2381 119.89 39.8827 119.154 40.5634 118.452C42.3257 116.641 44.3624 115.118 46.5987 113.939C51.0573 111.589 56.2191 110.689 60.9839 112.124C61.1058 112.161 61.225 112.198 61.3469 112.238Z" fill="#F0F0F0"/>
<path d="M61.319 112.395C55.1288 113.622 49.4834 116.765 45.1846 121.377C44.2415 122.354 43.4585 123.472 42.8644 124.692C42.3242 125.899 42.1176 127.229 42.2662 128.542C42.38 129.77 42.6389 131.012 42.4518 132.246C42.3466 132.876 42.1092 133.477 41.7551 134.009C41.401 134.541 40.9382 134.993 40.397 135.334C39.0708 136.219 37.5051 136.575 35.9618 136.871C34.2484 137.199 32.4634 137.512 31.0333 138.581C30.86 138.71 30.6689 138.434 30.8419 138.305C33.33 136.446 36.6643 136.836 39.3861 135.524C40.6562 134.912 41.7491 133.914 42.0637 132.495C42.3389 131.255 42.073 129.973 41.947 128.731C41.7832 127.452 41.9358 126.152 42.3914 124.945C42.9214 123.699 43.6599 122.552 44.5753 121.553C46.6004 119.272 48.9723 117.322 51.604 115.776C54.5978 113.995 57.8748 112.739 61.2932 112.061C61.5047 112.019 61.5292 112.354 61.319 112.395H61.319Z" fill="white"/>
<path d="M46.4812 119.811C45.8038 118.986 45.4424 117.947 45.4613 116.881C45.4802 115.815 45.8783 114.79 46.5844 113.989C46.7279 113.828 46.986 114.042 46.8424 114.204C46.1834 114.948 45.8127 115.903 45.7971 116.896C45.7816 117.889 46.1221 118.855 46.7574 119.62C46.8953 119.786 46.6182 119.976 46.4812 119.811H46.4812Z" fill="white"/>
<path d="M42.1263 127.927C44.298 128.162 46.4785 127.571 48.233 126.272C48.4068 126.143 48.5979 126.419 48.4244 126.548C46.5961 127.896 44.3257 128.506 42.0663 128.257C41.8509 128.233 41.9121 127.904 42.1263 127.927Z" fill="white"/>
<path d="M54.6551 114.437C54.8505 114.81 55.1359 115.13 55.4856 115.366C55.8352 115.602 56.2383 115.748 56.6585 115.791C56.874 115.812 56.8125 116.142 56.5984 116.121C56.1344 116.072 55.6895 115.91 55.3026 115.65C54.9157 115.389 54.5985 115.038 54.3789 114.628C54.3549 114.591 54.346 114.546 54.3538 114.502C54.3617 114.459 54.3858 114.42 54.4213 114.394C54.458 114.369 54.5032 114.359 54.5469 114.367C54.5907 114.375 54.6296 114.4 54.6551 114.437Z" fill="white"/>
<path d="M126.762 166.255C127.127 163.328 128.944 160.444 131.741 159.492C130.638 162.505 130.638 165.809 131.741 168.822C132.171 169.982 132.77 171.228 132.366 172.397C132.076 173.12 131.52 173.705 130.811 174.03C130.108 174.348 129.367 174.576 128.607 174.706L128.458 174.829C127.262 172.132 126.397 169.182 126.762 166.255Z" fill="#F0F0F0"/>
<path d="M131.768 159.547C130.14 161.369 129.128 163.656 128.875 166.084C128.812 166.606 128.831 167.135 128.933 167.65C129.047 168.15 129.294 168.609 129.647 168.981C129.999 169.31 130.309 169.68 130.571 170.084C130.685 170.303 130.752 170.545 130.767 170.792C130.782 171.039 130.744 171.286 130.657 171.518C130.424 172.084 130.079 172.597 129.643 173.027C129.19 173.527 128.711 174.04 128.518 174.704C128.495 174.784 128.371 174.743 128.394 174.663C128.73 173.508 129.853 172.852 130.388 171.812C130.526 171.579 130.609 171.316 130.63 171.046C130.651 170.775 130.609 170.504 130.509 170.251C130.266 169.826 129.957 169.442 129.593 169.114C129.243 168.756 128.986 168.318 128.845 167.839C128.718 167.33 128.678 166.803 128.728 166.281C128.821 165.103 129.1 163.947 129.553 162.856C130.063 161.608 130.783 160.456 131.682 159.45C131.738 159.387 131.824 159.485 131.768 159.547H131.768Z" fill="white"/>
<path d="M128.91 165.298C128.508 165.2 128.153 164.963 127.91 164.629C127.667 164.294 127.55 163.884 127.581 163.472C127.588 163.389 127.718 163.395 127.712 163.479C127.682 163.862 127.79 164.244 128.018 164.555C128.245 164.866 128.576 165.086 128.951 165.174C129.033 165.194 128.992 165.317 128.91 165.298H128.91Z" fill="white"/>
<path d="M129.46 168.824C130.187 168.39 130.724 167.7 130.963 166.889C130.987 166.809 131.11 166.85 131.087 166.93C130.836 167.773 130.276 168.49 129.519 168.94C129.447 168.982 129.388 168.866 129.46 168.824Z" fill="white"/>
<path d="M130.184 161.731C130.331 161.801 130.494 161.833 130.658 161.825C130.821 161.817 130.98 161.768 131.12 161.683C131.192 161.64 131.25 161.756 131.179 161.8C131.024 161.892 130.848 161.946 130.667 161.956C130.487 161.965 130.307 161.93 130.143 161.854C130.127 161.848 130.113 161.837 130.106 161.821C130.098 161.806 130.096 161.789 130.101 161.772C130.107 161.756 130.118 161.742 130.134 161.735C130.149 161.727 130.167 161.726 130.184 161.731L130.184 161.731Z" fill="white"/>
<path d="M140.265 164.72C140.221 164.748 140.177 164.777 140.133 164.806C139.544 165.193 138.988 165.627 138.469 166.103C138.428 166.139 138.388 166.177 138.348 166.214C137.111 167.375 136.101 168.756 135.368 170.285C135.077 170.894 134.833 171.525 134.638 172.17C134.369 173.062 134.148 174.051 133.615 174.78C133.56 174.857 133.501 174.931 133.437 175H128.619C128.608 174.994 128.597 174.99 128.586 174.985L128.394 174.993C128.402 174.959 128.411 174.924 128.418 174.89C128.423 174.87 128.428 174.851 128.433 174.831C128.436 174.818 128.439 174.805 128.441 174.793C128.442 174.788 128.444 174.784 128.445 174.78C128.447 174.768 128.45 174.757 128.452 174.746C128.501 174.55 128.551 174.354 128.602 174.157L128.603 174.155C128.979 172.655 129.533 171.205 130.252 169.835C130.274 169.794 130.296 169.752 130.32 169.712C130.653 169.105 131.035 168.527 131.462 167.983C131.697 167.685 131.947 167.4 132.21 167.128C132.893 166.426 133.683 165.836 134.549 165.379C136.277 164.468 138.278 164.12 140.124 164.676C140.172 164.69 140.218 164.704 140.265 164.72Z" fill="#F0F0F0"/>
<path d="M140.254 164.781C137.855 165.256 135.667 166.474 134.001 168.262C133.636 168.64 133.332 169.074 133.102 169.547C132.893 170.014 132.813 170.53 132.87 171.039C132.952 171.512 132.977 171.995 132.942 172.474C132.901 172.718 132.809 172.951 132.672 173.157C132.535 173.364 132.356 173.539 132.146 173.671C131.619 173.982 131.034 174.185 130.427 174.266C129.763 174.394 129.071 174.515 128.517 174.929C128.45 174.979 128.376 174.872 128.443 174.822C129.407 174.102 130.699 174.253 131.754 173.745C132.005 173.641 132.229 173.481 132.409 173.278C132.589 173.074 132.72 172.832 132.792 172.571C132.854 172.085 132.839 171.593 132.747 171.112C132.683 170.616 132.742 170.112 132.919 169.645C133.124 169.162 133.41 168.717 133.765 168.33C134.55 167.446 135.469 166.69 136.489 166.091C137.649 165.401 138.919 164.914 140.244 164.651C140.326 164.635 140.336 164.765 140.254 164.781H140.254Z" fill="white"/>
<path d="M134.504 167.655C134.241 167.335 134.101 166.933 134.109 166.519C134.116 166.106 134.27 165.709 134.544 165.399C134.599 165.336 134.699 165.419 134.644 165.482C134.388 165.77 134.245 166.14 134.239 166.525C134.233 166.91 134.365 167.285 134.611 167.581C134.664 167.645 134.557 167.719 134.504 167.655Z" fill="white"/>
<path d="M132.816 170.8C133.658 170.891 134.503 170.662 135.183 170.159C135.25 170.109 135.324 170.216 135.257 170.266C134.548 170.788 133.668 171.025 132.793 170.928C132.709 170.919 132.733 170.791 132.816 170.8H132.816Z" fill="white"/>
<path d="M137.672 165.572C137.747 165.717 137.858 165.841 137.994 165.932C138.129 166.024 138.285 166.08 138.448 166.097C138.532 166.105 138.508 166.233 138.425 166.225C138.245 166.206 138.073 166.143 137.923 166.042C137.773 165.941 137.65 165.805 137.565 165.646C137.555 165.632 137.552 165.614 137.555 165.597C137.558 165.581 137.567 165.566 137.581 165.556C137.595 165.546 137.613 165.542 137.63 165.545C137.647 165.548 137.662 165.558 137.672 165.572Z" fill="white"/>
<path d="M209.534 104.082C208.088 92.4732 200.88 81.0355 189.789 77.2578C194.163 89.2061 194.162 102.314 189.786 114.262C188.082 118.863 185.706 123.804 187.309 128.442C188.307 131.328 190.747 133.536 193.474 134.916C196.202 136.297 199.229 136.955 202.219 137.599L202.807 138.085C207.553 127.389 210.98 115.69 209.534 104.082Z" fill="#F0F0F0"/>
<path d="M189.679 77.4772C196.138 84.7012 200.152 93.7729 201.152 103.404C201.354 105.468 201.378 107.58 200.926 109.615C200.47 111.596 199.491 113.418 198.091 114.893C196.813 116.294 195.343 117.58 194.429 119.267C193.465 121.045 193.428 123.066 194.088 124.954C194.895 127.265 196.486 129.149 198.106 130.937C199.905 132.923 201.805 134.956 202.57 137.588C202.662 137.907 203.152 137.745 203.06 137.427C201.73 132.847 197.276 130.246 195.152 126.122C194.161 124.197 193.745 121.963 194.674 119.931C195.487 118.155 197.001 116.827 198.307 115.42C199.679 113.941 200.73 112.32 201.272 110.363C201.826 108.361 201.884 106.243 201.737 104.183C201.366 99.5122 200.263 94.9289 198.466 90.6007C196.444 85.6495 193.587 81.0802 190.02 77.0906C189.8 76.8437 189.459 77.232 189.679 77.4772L189.679 77.4772Z" fill="white"/>
<path d="M201.013 100.284C202.609 99.897 204.015 98.9565 204.981 97.6303C205.946 96.304 206.408 94.6784 206.284 93.0437C206.257 92.713 205.741 92.7383 205.768 93.0694C205.886 94.5914 205.456 96.1057 204.555 97.3388C203.653 98.572 202.339 99.4429 200.851 99.7942C200.528 99.871 200.692 100.36 201.013 100.284H201.013Z" fill="white"/>
<path d="M198.833 114.267C195.95 112.549 193.822 109.81 192.873 106.595C192.779 106.277 192.289 106.439 192.382 106.757C193.376 110.1 195.597 112.947 198.6 114.728C198.887 114.898 199.117 114.436 198.833 114.267Z" fill="white"/>
<path d="M195.964 86.1379C195.378 86.416 194.732 86.5444 194.083 86.5115C193.435 86.4787 192.805 86.2856 192.25 85.9497C191.966 85.7766 191.735 86.2382 192.018 86.4102C192.633 86.7785 193.329 86.9908 194.045 87.0287C194.761 87.0666 195.476 86.9288 196.126 86.6275C196.19 86.6042 196.242 86.5576 196.273 86.4971C196.303 86.4366 196.31 86.3668 196.291 86.3019C196.269 86.2371 196.222 86.1836 196.161 86.1529C196.1 86.1222 196.029 86.1168 195.964 86.1379Z" fill="white"/>
<path d="M155.98 97.992C156.155 98.1051 156.329 98.2182 156.504 98.3357C158.84 99.8689 161.047 101.589 163.104 103.479C163.265 103.623 163.426 103.771 163.583 103.918C168.49 108.525 172.497 114 175.401 120.066C176.555 122.481 177.522 124.98 178.296 127.542C179.364 131.079 180.24 135 182.355 137.894C182.572 138.198 182.808 138.489 183.061 138.764H202.168C202.211 138.742 202.255 138.725 202.299 138.703L203.061 138.738C203.031 138.603 202.996 138.464 202.965 138.329C202.948 138.25 202.926 138.172 202.909 138.094C202.896 138.042 202.883 137.989 202.874 137.941C202.87 137.924 202.865 137.907 202.861 137.894C202.852 137.846 202.839 137.802 202.83 137.759C202.638 136.98 202.441 136.201 202.237 135.422C202.237 135.418 202.237 135.418 202.233 135.413C200.668 129.482 198.593 123.63 195.694 118.278C195.607 118.117 195.52 117.951 195.424 117.79C194.104 115.385 192.589 113.092 190.894 110.933C189.963 109.754 188.972 108.622 187.926 107.543C185.217 104.76 182.087 102.419 178.649 100.607C171.796 96.9955 163.862 95.6118 156.538 97.8179C156.351 97.8745 156.168 97.931 155.98 97.992Z" fill="#F0F0F0"/>
<path d="M156.023 98.2339C165.538 100.12 174.215 104.951 180.823 112.04C182.229 113.567 183.522 115.239 184.389 117.135C185.219 118.99 185.537 121.034 185.308 123.053C185.133 124.94 184.736 126.849 185.023 128.746C185.326 130.745 186.515 132.38 188.181 133.492C190.22 134.852 192.626 135.4 194.999 135.854C197.632 136.358 200.376 136.84 202.574 138.482C202.84 138.681 203.134 138.257 202.868 138.059C199.044 135.202 193.919 135.801 189.735 133.784C187.783 132.843 186.103 131.309 185.62 129.129C185.197 127.222 185.605 125.252 185.799 123.343C186.003 121.339 185.864 119.412 185.116 117.524C184.351 115.592 183.12 113.867 181.759 112.31C178.647 108.804 175.001 105.807 170.956 103.431C166.354 100.694 161.317 98.762 156.063 97.7198C155.738 97.6554 155.7 98.17 156.023 98.2339V98.2339Z" fill="white"/>
<path d="M178.83 109.632C179.871 108.364 180.427 106.768 180.397 105.129C180.368 103.49 179.757 101.914 178.671 100.684C178.451 100.436 178.054 100.766 178.275 101.015C179.287 102.159 179.857 103.626 179.881 105.153C179.905 106.679 179.382 108.164 178.405 109.339C178.193 109.594 178.619 109.886 178.83 109.632L178.83 109.632Z" fill="white"/>
<path d="M185.523 122.108C182.185 122.468 178.834 121.56 176.137 119.564C175.87 119.366 175.576 119.79 175.843 119.987C178.653 122.06 182.143 122.998 185.616 122.615C185.947 122.578 185.853 122.071 185.523 122.108Z" fill="white"/>
<path d="M166.266 101.372C165.966 101.946 165.527 102.437 164.99 102.8C164.452 103.164 163.833 103.388 163.187 103.454C162.856 103.486 162.95 103.993 163.279 103.961C163.992 103.885 164.676 103.637 165.271 103.236C165.866 102.836 166.353 102.297 166.691 101.665C166.728 101.608 166.741 101.54 166.729 101.473C166.717 101.406 166.68 101.347 166.625 101.306C166.569 101.268 166.5 101.253 166.432 101.265C166.365 101.277 166.305 101.316 166.266 101.372V101.372Z" fill="white"/>
<path d="M231.809 139.047H0.283619C0.208398 139.047 0.136259 139.017 0.0830697 138.964C0.0298809 138.911 0 138.839 0 138.764C0 138.689 0.0298809 138.617 0.0830697 138.564C0.136259 138.51 0.208398 138.481 0.283619 138.481H231.716C231.792 138.481 231.864 138.51 231.917 138.564C231.97 138.617 232 138.689 232 138.764C232 138.92 231.966 139.047 231.809 139.047Z" fill="#CACACA"/>
<path d="M81.2076 163.959H30.0636C29.9884 163.959 29.9162 163.929 29.863 163.876C29.8099 163.823 29.78 163.751 29.78 163.676C29.78 163.601 29.8099 163.529 29.863 163.476C29.9162 163.423 29.9884 163.393 30.0636 163.393H81.1149C81.1901 163.393 81.2623 163.423 81.3155 163.476C81.3687 163.529 81.3985 163.601 81.3985 163.676C81.3985 163.832 81.3642 163.959 81.2076 163.959Z" fill="#CACACA"/>
<path d="M161.472 175H110.328C110.252 175 110.18 174.97 110.127 174.917C110.074 174.864 110.044 174.792 110.044 174.717C110.044 174.642 110.074 174.57 110.127 174.517C110.18 174.464 110.252 174.434 110.328 174.434H161.379C161.454 174.434 161.526 174.464 161.58 174.517C161.633 174.57 161.663 174.642 161.663 174.717C161.663 174.873 161.628 175 161.472 175Z" fill="#CACACA"/>
<path d="M209.687 163.676H158.543C158.468 163.676 158.395 163.646 158.342 163.593C158.289 163.54 158.259 163.468 158.259 163.393C158.259 163.318 158.289 163.246 158.342 163.193C158.395 163.14 158.468 163.11 158.543 163.11H209.594C209.669 163.11 209.741 163.14 209.795 163.193C209.848 163.246 209.878 163.318 209.878 163.393C209.878 163.549 209.843 163.676 209.687 163.676Z" fill="#CACACA"/>
<path d="M94.5183 152.919C91.3412 152.919 88.4326 152.615 86.1217 151.896C83.3748 151.043 81.6501 149.662 80.9948 147.79C80.6869 146.995 80.595 146.133 80.7283 145.291C80.8617 144.449 81.2156 143.658 81.7541 142.996C85.8177 137.711 99.9189 136.221 101.811 136.044L105.649 128.789C105.895 127.058 104.733 125.748 106.741 125.715L130.489 125.393C132.461 125.352 131.901 126.571 132.239 128.258L135.857 134.706L120.285 141.266L122.639 146.992L122.486 147.082C117.928 149.72 104.821 152.918 94.5183 152.919Z" fill="#2F2E41"/>
<path d="M133.701 134.981C133.701 134.981 155.449 132.497 154.031 142.434C152.613 152.37 136.065 159.409 111.008 142.434L113.845 137.465C113.845 137.465 123.182 137.002 128.856 134.517L133.701 134.981Z" fill="#2F2E41"/>
<path d="M102.912 89.9631C102.912 89.9631 98.7786 89.2129 97.6512 95.5892C96.5239 101.966 94.7181 117.069 94.7181 117.069L89.1113 136.471C88.45 136.821 87.9022 137.352 87.5319 138.002C87.1617 138.652 86.9842 139.393 87.0203 140.139C87.0563 140.886 87.3044 141.607 87.7355 142.218C88.1667 142.829 88.7631 143.304 89.4551 143.59C90.1471 143.875 90.9061 143.958 91.6436 143.829C92.381 143.699 93.0664 143.363 93.6196 142.86C94.1729 142.356 94.5712 141.706 94.768 140.985C94.9649 140.264 94.9521 139.502 94.7313 138.788L102.234 118.196L103.664 100.467V91.1768C103.664 90.9248 103.593 90.6778 103.461 90.4634C103.328 90.249 103.138 90.0758 102.912 89.9631Z" fill="#FEB8B8"/>
<path d="M132.007 89.9631C132.007 89.9631 136.14 89.2129 137.268 95.5892C138.395 101.966 140.201 117.069 140.201 117.069L145.808 136.471C146.469 136.821 147.017 137.352 147.387 138.002C147.757 138.652 147.935 139.393 147.899 140.139C147.863 140.886 147.614 141.607 147.183 142.218C146.752 142.829 146.156 143.304 145.464 143.59C144.772 143.875 144.013 143.958 143.275 143.829C142.538 143.699 141.853 143.363 141.299 142.86C140.746 142.356 140.348 141.706 140.151 140.985C139.954 140.264 139.967 139.502 140.188 138.788L132.685 118.196L131.255 100.467V91.1768C131.255 90.9248 131.326 90.6778 131.458 90.4634C131.591 90.249 131.781 90.0758 132.007 89.9631Z" fill="#FEB8B8"/>
<path d="M131.692 84.6925L123.873 81.7736L108.719 81.5784L102.195 84.6925L104.028 95.2027C104.028 95.2027 100.328 101.455 104.401 107.708L105.315 129.988C105.315 129.988 119.926 138.445 132.259 128.289L129.472 107.574C129.472 107.574 134.134 97.9629 130.52 94.3923L131.692 84.6925Z" fill="#F0E8E8"/>
<path d="M128.507 87.9585L131.692 84.6924C131.692 84.6924 138.642 88.3414 138.499 100.546L129.732 97.8489L128.507 87.9585Z" fill="#F0E8E8"/>
<path d="M105.733 87.9586L102.35 84.5814C102.35 84.5814 96.3798 89.1907 96.523 101.395L104.509 97.8489L105.733 87.9586Z" fill="#F0E8E8"/>
<path d="M127.788 144.494C127.788 144.494 125.353 139.38 121.286 141.832C117.219 144.283 109.735 148.356 109.735 148.356C109.735 148.356 107.985 151.276 111.807 150.508C115.629 149.74 127.907 149.141 127.907 149.141L127.788 144.494Z" fill="#FEB8B8"/>
<path d="M121.022 53.066C121.057 53.033 121.093 53.0034 121.127 52.9695C123.303 50.7973 123.744 47.7155 122.112 46.0863C120.569 44.5466 117.728 44.8574 115.584 46.7294C113.745 44.982 111.279 44.4949 109.684 45.7011C107.843 47.0921 107.858 50.205 109.716 52.6542C109.843 52.8219 109.977 52.9804 110.114 53.133C107.641 54.0364 105.506 55.6762 103.998 57.8304C102.49 59.9847 101.681 62.5495 101.681 65.1777V77.3848C101.681 77.7428 101.751 78.0972 101.889 78.4279C102.026 78.7586 102.227 79.0591 102.481 79.3122C102.734 79.5653 103.035 79.7661 103.366 79.9031C103.698 80.0401 104.053 80.1106 104.412 80.1106H127.015C127.715 80.1106 128.386 79.833 128.881 79.339C129.376 78.845 129.654 78.1749 129.654 77.4763V65.1777C129.653 62.5141 128.822 59.9168 127.275 57.7463C125.729 55.5759 123.543 53.9401 121.022 53.066Z" fill="#2F2E41"/>
<path d="M123.609 75.757C127.797 71.576 127.797 64.7973 123.609 60.6163C119.42 56.4353 112.629 56.4353 108.44 60.6163C104.251 64.7973 104.251 71.576 108.44 75.757C112.629 79.938 119.42 79.938 123.609 75.757Z" fill="#FFB6B6"/>
<path d="M104.754 61.4526C107.205 63.1388 110.114 64.0362 113.091 64.0243C112.029 64.7592 110.82 65.2556 109.548 65.4793C113.505 66.3267 117.596 66.3497 121.563 65.5467C122.445 65.4056 123.296 65.1139 124.078 64.6844C124.468 64.467 124.808 64.1701 125.076 63.813C125.343 63.456 125.532 63.0467 125.631 62.6118C125.894 61.1086 124.721 59.7429 123.501 58.8225C121.634 57.4348 119.482 56.4787 117.199 56.0234C114.916 55.5681 112.56 55.625 110.302 56.1898C108.828 56.5703 107.351 57.213 106.393 58.3949C105.436 59.5768 105.152 61.3989 106.064 62.6159L104.754 61.4526Z" fill="#2F2E41"/>
<path d="M47.384 40.0882L47.722 39.6334L56.7267 46.3003C56.2373 44.8116 54.5052 40.0923 51.6658 38.2093C48.2737 35.9598 45.8871 36.6596 44.5869 38.613C43.2866 40.5664 43.5651 43.0336 46.9572 45.2832C49.8326 47.1901 54.9549 46.925 56.4494 46.8L47.384 40.0882Z" fill="#F2F2F2"/>
<path d="M182.868 3.58741L183.286 3.97029L175.706 12.2161C177.241 11.8852 182.123 10.6565 184.295 8.03355C186.889 4.90001 186.44 2.45798 184.629 0.964013C182.818 -0.529957 180.33 -0.510171 177.736 2.62338C175.537 5.27956 175.268 10.3923 175.237 11.8889L182.868 3.58741Z" fill="#F2F2F2"/>
<path d="M60.6283 91.6302L61.0464 92.0131L53.4668 100.259C55.0011 99.928 59.8836 98.6993 62.0552 96.0763C64.6494 92.9428 64.2004 90.5008 62.3892 89.0068C60.578 87.5128 58.0908 87.5326 55.4964 90.6662C53.2972 93.3223 53.0286 98.4351 52.9978 99.9317L60.6283 91.6302Z" fill="#F2F2F2"/>
<path d="M124.72 13.0366L125.211 13.3202L119.596 23.0063C121.022 22.3521 125.523 20.0992 127.075 17.0698C128.93 13.4507 127.963 11.1632 125.871 10.0953C123.779 9.02733 121.355 9.58324 119.5 13.2024C117.928 16.2702 118.773 21.32 119.067 22.7879L124.72 13.0366Z" fill="#F2F2F2"/>
<path d="M177.189 73.6191L177.68 73.9027L172.065 83.5888C173.491 82.9347 177.992 80.6818 179.545 77.6523C181.399 74.0332 180.432 71.7458 178.34 70.6778C176.248 69.6099 173.824 70.1658 171.97 73.7849C170.398 76.8527 171.242 81.9026 171.536 83.3705L177.189 73.6191Z" fill="#F2F2F2"/>
</svg>
