<svg width="241" height="201" viewBox="0 0 241 201" fill="none" xmlns="http://www.w3.org/2000/svg">
<path d="M113.198 201C165.764 201 208.377 198.826 208.377 196.145C208.377 193.464 165.764 191.29 113.198 191.29C60.6328 191.29 18.02 193.464 18.02 196.145C18.02 198.826 60.6328 201 113.198 201Z" fill="#F2F2F2"/>
<path d="M168.806 46.6488H167.724V17.1013C167.724 12.5658 165.918 8.21598 162.703 5.00886C159.488 1.80175 155.128 5.00758e-06 150.581 0H87.8263C83.2796 -8.58435e-06 78.9191 1.80172 75.7041 5.00882C72.4891 8.21592 70.6829 12.5657 70.6829 17.1012V179.201C70.6829 183.737 72.489 188.086 75.704 191.293C78.9191 194.501 83.2795 196.302 87.8263 196.302H150.581C155.128 196.302 159.488 194.501 162.703 191.294C165.918 188.086 167.724 183.737 167.724 179.201V67.6812H168.806L168.806 46.6488Z" fill="#3F3D56"/>
<path d="M164.075 17.2206V179.082C164.075 182.469 162.727 185.718 160.325 188.113C157.924 190.508 154.668 191.853 151.272 191.853H88.2167C84.8211 191.853 81.5646 190.508 79.1636 188.113C76.7625 185.718 75.4136 182.469 75.4136 179.082V17.2206C75.4136 13.8334 76.7626 10.5849 79.1636 8.18977C81.5646 5.79464 84.8211 4.44904 88.2167 4.44897H95.8661C95.4902 5.37036 95.3471 6.36976 95.4493 7.35928C95.5515 8.3488 95.8959 9.29811 96.4521 10.1237C97.0084 10.9493 97.7596 11.6259 98.6395 12.0939C99.5194 12.562 100.501 12.8071 101.498 12.8079H137.45C138.447 12.8071 139.429 12.5619 140.309 12.0939C141.189 11.6258 141.94 10.9493 142.496 10.1237C143.052 9.2981 143.397 8.34879 143.499 7.35928C143.601 6.36976 143.458 5.37036 143.082 4.44897H151.272C154.668 4.44904 157.924 5.79464 160.325 8.18977C162.726 10.5849 164.075 13.8334 164.075 17.2206V17.2206Z" fill="white"/>
<path d="M143.762 87.0145C143.343 87.2329 142.916 87.4397 142.483 87.6348C142.088 87.8129 141.687 87.9801 141.28 88.1365C141.131 88.1932 140.98 88.2498 140.828 88.3065C139.631 88.7396 138.401 89.0778 137.151 89.3179C136.532 89.4393 135.904 89.5346 135.269 89.6039C134.744 89.6632 134.214 89.7054 133.679 89.7306C133.298 89.7495 132.916 89.7576 132.532 89.7576C131.012 89.7582 129.495 89.6164 128.001 89.3341C127.611 89.264 127.23 89.1804 126.849 89.0887C125.005 88.6478 123.219 87.9905 121.53 87.1304C121.379 87.0549 121.227 86.974 121.076 86.8958C120.851 86.7771 120.633 86.653 120.414 86.5236C120.519 86.3779 120.633 86.2349 120.749 86.0947C122.014 84.5306 123.595 83.2499 125.39 82.3363C127.185 81.4227 129.152 80.8966 131.164 80.7922C133.176 80.6879 135.188 81.0077 137.068 81.7308C138.948 82.4538 140.654 83.564 142.075 84.9888C142.568 85.4825 143.025 86.0107 143.443 86.5694C143.554 86.7151 143.659 86.8634 143.762 87.0145Z" fill="#F0E8E8"/>
<path d="M133.072 75.1662C139.629 75.1662 144.945 69.8636 144.945 63.3225C144.945 56.7814 139.629 51.4788 133.072 51.4788C126.515 51.4788 121.199 56.7814 121.199 63.3225C121.199 69.8636 126.515 75.1662 133.072 75.1662Z" fill="#2F2E41"/>
<path d="M136.23 75.1827C140.512 72.8475 142.086 67.4916 139.745 63.2198C137.404 58.948 132.035 57.3781 127.753 59.7132C123.47 62.0484 121.897 67.4044 124.238 71.6761C126.578 75.9479 131.948 77.5178 136.23 75.1827Z" fill="#A0616A"/>
<path d="M141.277 61.9035C139.257 63.2918 136.861 64.0307 134.408 64.0209C135.283 64.626 136.279 65.0347 137.327 65.2189C134.067 65.9166 130.697 65.9355 127.428 65.2744C126.702 65.1582 126.001 64.918 125.356 64.5644C125.035 64.3854 124.755 64.141 124.534 63.847C124.314 63.553 124.158 63.216 124.077 62.858C123.86 61.6203 124.826 60.4958 125.831 59.738C127.369 58.5955 129.143 57.8083 131.024 57.4334C132.904 57.0585 134.845 57.1053 136.705 57.5704C137.92 57.8836 139.137 58.4128 139.926 59.3859C140.715 60.359 140.949 61.8593 140.197 62.8613L141.277 61.9035Z" fill="#2F2E41"/>
<path d="M132.532 41.2065C127.225 41.2058 122.063 42.936 117.833 46.1335C113.603 49.331 110.538 53.8204 109.103 58.9175C107.668 64.0146 107.944 69.4398 109.887 74.3663C111.83 79.2928 115.335 83.4504 119.867 86.2053L120.024 86.297C120.154 86.3752 120.284 86.4508 120.414 86.5236C120.633 86.6531 120.851 86.7771 121.076 86.8958C121.227 86.974 121.379 87.055 121.53 87.1305C123.219 87.9905 125.005 88.6478 126.849 89.0887C127.23 89.1804 127.611 89.264 128.001 89.3342C129.495 89.6165 131.012 89.7583 132.532 89.7576C132.916 89.7576 133.298 89.7495 133.679 89.7307C134.214 89.7064 134.744 89.6641 135.269 89.6039C135.904 89.5338 136.532 89.4384 137.151 89.318C138.401 89.0778 139.631 88.7396 140.828 88.3065C140.98 88.2498 141.131 88.1932 141.28 88.1366C141.688 87.9801 142.089 87.8129 142.483 87.6349C142.916 87.4407 143.342 87.2339 143.762 87.0145C147.971 84.8155 151.45 81.4451 153.777 77.3124C153.788 77.2908 153.802 77.2692 153.812 77.2476C155.054 75.0255 155.935 72.6212 156.422 70.1241C157.106 66.6088 157.002 62.9862 156.118 59.5156C155.234 56.0449 153.592 52.8122 151.309 50.0488C149.027 47.2853 146.159 45.0596 142.913 43.531C139.667 42.0023 136.122 41.2086 132.532 41.2065H132.532ZM153.369 76.9321C153.347 76.9698 153.328 77.0076 153.307 77.0426C151.026 81.1144 147.596 84.4274 143.443 86.5694C143.029 86.7852 142.608 86.9875 142.18 87.1763C141.826 87.3355 141.464 87.4865 141.099 87.6268C140.944 87.6861 140.788 87.7455 140.631 87.7994C139.596 88.1763 138.537 88.4791 137.459 88.7057C136.66 88.8754 135.852 89.0024 135.039 89.086C134.539 89.14 134.03 89.1777 133.519 89.1966C133.192 89.2101 132.862 89.2182 132.532 89.2182C131.061 89.2199 129.593 89.0835 128.147 88.8109C127.267 88.649 126.398 88.4365 125.543 88.1743C124.24 87.773 122.975 87.2613 121.76 86.645C121.619 86.5721 121.479 86.4993 121.341 86.4238C121.143 86.3186 120.943 86.2107 120.749 86.0947C120.603 86.0138 120.457 85.9275 120.313 85.8412C120.23 85.7926 120.146 85.7414 120.062 85.6901C116.088 83.2559 112.919 79.7115 110.946 75.4967C108.974 71.2818 108.285 66.582 108.966 61.9803C109.646 57.3786 111.666 53.0775 114.775 49.6106C117.884 46.1437 121.945 43.6636 126.454 42.478C130.963 41.2923 135.722 41.4533 140.14 42.941C144.558 44.4287 148.441 47.1776 151.307 50.8466C154.173 54.5157 155.896 58.9435 156.263 63.5806C156.63 68.2178 155.623 72.8602 153.369 76.9321H153.369Z" fill="#3F3D56"/>
<path d="M127.06 51.6421C126.932 50.3021 125.286 49.4772 123.999 49.8819C122.712 50.2867 121.868 51.5793 121.612 52.901C121.489 53.4576 121.478 54.033 121.578 54.5941C121.679 55.1552 121.889 55.691 122.198 56.1708C122.848 57.1046 124.043 57.6874 125.158 57.4504C126.431 57.1797 127.313 55.94 127.565 54.6665C127.818 53.393 127.567 52.08 127.317 50.806L127.06 51.6421Z" fill="#2F2E41"/>
<path d="M145.171 53.5564C145.043 52.2164 143.398 51.3915 142.111 51.7962C140.824 52.201 139.979 53.4936 139.724 54.8153C139.601 55.372 139.589 55.9473 139.69 56.5084C139.79 57.0695 140.001 57.6053 140.309 58.0851C140.96 59.0189 142.155 59.6017 143.27 59.3647C144.543 59.094 145.425 57.8543 145.677 56.5808C145.929 55.3073 145.679 53.9943 145.428 52.7204L145.171 53.5564Z" fill="#2F2E41"/>
<path d="M90.4692 75.1839C90.3008 75.1837 90.1343 75.1485 89.9804 75.0805C89.8264 75.0125 89.6884 74.9131 89.5751 74.7889L76.1576 60.1876C76.0054 60.0223 75.8204 59.8902 75.6144 59.7998C75.4084 59.7094 75.1858 59.6626 74.9608 59.6624H4.05841C2.98242 59.6612 1.95085 59.2342 1.19001 58.4753C0.429176 57.7163 0.00120806 56.6873 0 55.6139V30.1078C0.00120734 29.0344 0.429176 28.0054 1.19001 27.2464C1.95085 26.4874 2.98242 26.0605 4.05841 26.0593H95.9178C96.9937 26.0605 98.0253 26.4874 98.7861 27.2464C99.547 28.0054 99.975 29.0344 99.9762 30.1078V55.6139C99.975 56.6873 99.547 57.7163 98.7861 58.4753C98.0253 59.2342 96.9937 59.6612 95.9178 59.6624H93.3135C92.883 59.6629 92.4703 59.8337 92.166 60.1373C91.8616 60.441 91.6904 60.8526 91.6899 61.2821V73.9682C91.6909 74.2132 91.6173 74.4526 91.4787 74.6547C91.34 74.8569 91.143 75.0122 90.9138 75.1C90.7721 75.1553 90.6213 75.1837 90.4692 75.1839V75.1839Z" fill="white"/>
<path d="M90.4692 75.1839C90.3008 75.1837 90.1343 75.1485 89.9804 75.0805C89.8264 75.0125 89.6884 74.9131 89.5751 74.7889L76.1576 60.1876C76.0054 60.0223 75.8204 59.8902 75.6144 59.7998C75.4084 59.7094 75.1858 59.6626 74.9608 59.6624H4.05841C2.98242 59.6612 1.95085 59.2342 1.19001 58.4753C0.429176 57.7163 0.00120806 56.6873 0 55.6139V30.1078C0.00120734 29.0344 0.429176 28.0054 1.19001 27.2464C1.95085 26.4874 2.98242 26.0605 4.05841 26.0593H95.9178C96.9937 26.0605 98.0253 26.4874 98.7861 27.2464C99.547 28.0054 99.975 29.0344 99.9762 30.1078V55.6139C99.975 56.6873 99.547 57.7163 98.7861 58.4753C98.0253 59.2342 96.9937 59.6612 95.9178 59.6624H93.3135C92.883 59.6629 92.4703 59.8337 92.166 60.1373C91.8616 60.441 91.6904 60.8526 91.6899 61.2821V73.9682C91.6909 74.2132 91.6173 74.4526 91.4787 74.6547C91.34 74.8569 91.143 75.0122 90.9138 75.1C90.7721 75.1553 90.6213 75.1837 90.4692 75.1839V75.1839ZM4.05841 26.5988C3.1258 26.5998 2.23169 26.9699 1.57223 27.6277C0.91278 28.2855 0.541839 29.1774 0.540786 30.1078V55.6139C0.54184 56.5443 0.912784 57.4362 1.57224 58.094C2.23169 58.7518 3.1258 59.1219 4.05841 59.1229H74.9608C75.2608 59.1232 75.5575 59.1856 75.8321 59.3061C76.1067 59.4267 76.3532 59.6027 76.5562 59.823L89.9737 74.4243C90.0658 74.5246 90.1861 74.5947 90.3189 74.6256C90.4517 74.6564 90.5907 74.6466 90.7177 74.5973C90.8448 74.548 90.954 74.4615 91.0309 74.3493C91.1079 74.237 91.1491 74.1042 91.1491 73.9682V61.2821C91.1497 60.7096 91.378 60.1608 91.7837 59.756C92.1895 59.3512 92.7397 59.1236 93.3135 59.1229H95.9178C96.8504 59.1219 97.7445 58.7518 98.4039 58.094C99.0634 57.4362 99.4343 56.5443 99.4354 55.6139V30.1078C99.4343 29.1774 99.0634 28.2855 98.4039 27.6277C97.7445 26.9699 96.8504 26.5998 95.9178 26.5988H4.05841Z" fill="#3F3D56"/>
<path d="M9.95477 37.3107C11.9161 37.3107 13.506 35.7246 13.506 33.7681C13.506 31.8116 11.9161 30.2256 9.95477 30.2256C7.99346 30.2256 6.4035 31.8116 6.4035 33.7681C6.4035 35.7246 7.99346 37.3107 9.95477 37.3107Z" fill="#F0E8E8"/>
<path d="M91.7746 53.3702H8.20157C7.95265 53.3705 7.70612 53.3219 7.47607 53.2271C7.24602 53.1323 7.03696 52.9931 6.86084 52.8177C6.68473 52.6422 6.54501 52.4338 6.44969 52.2044C6.35436 51.9751 6.3053 51.7292 6.3053 51.4809C6.3053 51.2326 6.35436 50.9867 6.44969 50.7574C6.54501 50.528 6.68473 50.3196 6.86084 50.1441C7.03696 49.9687 7.24602 49.8295 7.47607 49.7347C7.70612 49.6399 7.95265 49.5913 8.20157 49.5916H91.7746C92.2766 49.5922 92.7577 49.7915 93.1124 50.1457C93.4671 50.5 93.6664 50.9802 93.6664 51.4809C93.6664 51.9816 93.4671 52.4618 93.1124 52.8161C92.7577 53.1703 92.2766 53.3696 91.7746 53.3702V53.3702Z" fill="#E6E6E6"/>
<path d="M64.5483 45.3405H8.20157C7.95265 45.3408 7.70612 45.2921 7.47607 45.1973C7.24602 45.1025 7.03696 44.9634 6.86084 44.7879C6.68473 44.6124 6.54501 44.404 6.44969 44.1747C6.35436 43.9453 6.3053 43.6994 6.3053 43.4511C6.3053 43.2028 6.35436 42.9569 6.44969 42.7276C6.54501 42.4982 6.68473 42.2898 6.86084 42.1143C7.03696 41.9389 7.24602 41.7998 7.47607 41.7049C7.70612 41.6101 7.95265 41.5615 8.20157 41.5618H64.5483C65.0506 41.5618 65.5324 41.7608 65.8876 42.1151C66.2428 42.4695 66.4423 42.95 66.4423 43.4511C66.4423 43.9522 66.2428 44.4328 65.8876 44.7871C65.5324 45.1414 65.0506 45.3405 64.5483 45.3405Z" fill="#E6E6E6"/>
<path d="M150.086 161.683C149.857 161.595 149.66 161.44 149.521 161.237C149.383 161.035 149.309 160.796 149.31 160.551V147.865C149.31 147.435 149.138 147.024 148.834 146.72C148.53 146.416 148.117 146.246 147.686 146.245H145.082C144.006 146.244 142.975 145.817 142.214 145.058C141.453 144.299 141.025 143.27 141.024 142.197V116.691C141.025 115.617 141.453 114.588 142.214 113.829C142.975 113.07 144.006 112.643 145.082 112.642H236.942C238.018 112.643 239.049 113.07 239.81 113.829C240.571 114.588 240.999 115.617 241 116.691V142.197C240.999 143.27 240.571 144.299 239.81 145.058C239.049 145.817 238.018 146.244 236.942 146.245H166.039C165.814 146.245 165.592 146.292 165.386 146.383C165.18 146.473 164.995 146.605 164.842 146.77L151.425 161.372C151.312 161.496 151.174 161.595 151.02 161.663C150.866 161.731 150.699 161.766 150.531 161.767C150.379 161.766 150.228 161.738 150.086 161.683V161.683Z" fill="white"/>
<path d="M150.086 161.683C149.857 161.595 149.66 161.44 149.521 161.237C149.383 161.035 149.309 160.796 149.31 160.551V147.865C149.31 147.435 149.138 147.024 148.834 146.72C148.53 146.416 148.117 146.246 147.686 146.245H145.082C144.006 146.244 142.975 145.817 142.214 145.058C141.453 144.299 141.025 143.27 141.024 142.197V116.691C141.025 115.617 141.453 114.588 142.214 113.829C142.975 113.07 144.006 112.643 145.082 112.642H236.942C238.018 112.643 239.049 113.07 239.81 113.829C240.571 114.588 240.999 115.617 241 116.691V142.197C240.999 143.27 240.571 144.299 239.81 145.058C239.049 145.817 238.018 146.244 236.942 146.245H166.039C165.814 146.245 165.592 146.292 165.386 146.383C165.18 146.473 164.995 146.605 164.842 146.77L151.425 161.372C151.312 161.496 151.174 161.595 151.02 161.663C150.866 161.731 150.699 161.766 150.531 161.767C150.379 161.766 150.228 161.738 150.086 161.683V161.683ZM145.082 113.182C144.15 113.183 143.256 113.553 142.596 114.21C141.937 114.868 141.566 115.76 141.565 116.691V142.197C141.566 143.127 141.937 144.019 142.596 144.677C143.256 145.335 144.15 145.705 145.082 145.706H147.686C148.26 145.706 148.81 145.934 149.216 146.339C149.622 146.744 149.85 147.292 149.851 147.865V160.551C149.851 160.687 149.892 160.82 149.969 160.932C150.046 161.044 150.155 161.131 150.282 161.18C150.409 161.229 150.548 161.239 150.681 161.208C150.814 161.177 150.934 161.107 151.026 161.007L164.444 146.406C164.647 146.185 164.893 146.009 165.168 145.889C165.443 145.768 165.739 145.706 166.039 145.706H236.942C237.874 145.705 238.768 145.335 239.428 144.677C240.087 144.019 240.458 143.127 240.459 142.197V116.691C240.458 115.76 240.087 114.868 239.428 114.21C238.768 113.553 237.874 113.183 236.942 113.182H145.082Z" fill="#3F3D56"/>
<path d="M121.455 169.581C117.688 171.987 113.323 173.299 108.851 173.37C104.378 173.441 99.974 172.268 96.1321 169.983C96.808 168.728 97.6643 167.578 98.6739 166.571C100.232 165.009 102.128 163.825 104.216 163.109C106.304 162.392 108.529 162.163 110.72 162.438C112.911 162.714 115.01 163.486 116.855 164.697C118.699 165.907 120.242 167.524 121.363 169.422C121.392 169.473 121.425 169.527 121.455 169.581Z" fill="#F0E8E8"/>
<path d="M107.736 156.682C114.337 156.682 119.688 151.345 119.688 144.76C119.688 138.175 114.337 132.838 107.736 132.838C101.135 132.838 95.7843 138.175 95.7843 144.76C95.7843 151.345 101.135 156.682 107.736 156.682Z" fill="#2F2E41"/>
<path d="M116.629 153.17C118.986 148.869 117.402 143.478 113.091 141.127C108.78 138.776 103.375 140.357 101.019 144.657C98.6622 148.957 100.247 154.349 104.557 156.699C108.868 159.05 114.273 157.47 116.629 153.17Z" fill="#FFB8B8"/>
<path d="M99.4771 143.332C101.51 144.729 103.922 145.473 106.391 145.463C105.511 146.072 104.508 146.484 103.453 146.669C106.735 147.372 110.127 147.391 113.418 146.725C114.149 146.608 114.855 146.366 115.504 146.01C115.827 145.83 116.109 145.584 116.331 145.288C116.553 144.992 116.709 144.653 116.791 144.293C117.01 143.047 116.037 141.915 115.025 141.152C113.477 140.002 111.691 139.209 109.798 138.832C107.905 138.455 105.951 138.502 104.079 138.97C102.856 139.285 101.631 139.818 100.837 140.798C100.042 141.777 99.8072 143.287 100.564 144.296L99.4771 143.332Z" fill="#2F2E41"/>
<path d="M108.467 173.643C102.614 173.641 96.9577 171.534 92.5357 167.709C88.1137 163.883 85.2227 158.595 84.3929 152.815C83.5632 147.035 84.8503 141.151 88.0183 136.241C91.1862 131.331 96.0225 127.725 101.64 126.084C107.258 124.444 113.28 124.879 118.602 127.309C123.924 129.74 128.189 134.003 130.615 139.317C133.041 144.631 133.465 150.639 131.809 156.24C130.153 161.84 126.529 166.657 121.601 169.808C117.682 172.315 113.123 173.646 108.467 173.643V173.643ZM108.467 125.631C103.761 125.631 99.1595 127.023 95.2458 129.631C91.3321 132.239 88.2817 135.947 86.4803 140.284C84.6789 144.622 84.2074 149.395 85.1256 154C86.0437 158.605 88.3102 162.835 91.6383 166.155C94.9665 169.475 99.2069 171.736 103.823 172.652C108.44 173.568 113.225 173.098 117.573 171.301C121.921 169.504 125.638 166.461 128.253 162.557C130.867 158.652 132.263 154.063 132.262 149.367C132.255 143.074 129.746 137.041 125.285 132.591C120.824 128.141 114.776 125.638 108.467 125.631V125.631Z" fill="#3F3D56"/>
<path d="M152.452 123.624C154.413 123.624 156.003 122.038 156.003 120.081C156.003 118.125 154.413 116.539 152.452 116.539C150.491 116.539 148.901 118.125 148.901 120.081C148.901 122.038 150.491 123.624 152.452 123.624Z" fill="#F0E8E8"/>
<path d="M234.272 139.683H150.699C150.45 139.684 150.203 139.635 149.973 139.54C149.743 139.445 149.534 139.306 149.358 139.131C149.182 138.955 149.042 138.747 148.947 138.517C148.851 138.288 148.802 138.042 148.802 137.794C148.802 137.546 148.851 137.3 148.947 137.07C149.042 136.841 149.182 136.633 149.358 136.457C149.534 136.282 149.743 136.143 149.973 136.048C150.203 135.953 150.45 135.904 150.699 135.905H234.272C234.774 135.905 235.256 136.104 235.611 136.458C235.966 136.812 236.166 137.293 236.166 137.794C236.166 138.295 235.966 138.776 235.611 139.13C235.256 139.484 234.774 139.683 234.272 139.683Z" fill="#E6E6E6"/>
<path d="M207.045 131.653H150.699C150.45 131.654 150.203 131.605 149.973 131.51C149.743 131.415 149.534 131.276 149.358 131.101C149.182 130.925 149.042 130.717 148.947 130.488C148.851 130.258 148.802 130.012 148.802 129.764C148.802 129.516 148.851 129.27 148.947 129.041C149.042 128.811 149.182 128.603 149.358 128.427C149.534 128.252 149.743 128.113 149.973 128.018C150.203 127.923 150.45 127.874 150.699 127.875H207.045C207.547 127.875 208.029 128.075 208.383 128.429C208.738 128.783 208.937 129.263 208.937 129.764C208.937 130.265 208.738 130.745 208.383 131.099C208.029 131.454 207.547 131.653 207.045 131.653V131.653Z" fill="#E6E6E6"/>
<path d="M149.972 164.097C153.631 164.097 156.597 163.769 156.597 163.364C156.597 162.959 153.631 162.63 149.972 162.63C146.312 162.63 143.346 162.959 143.346 163.364C143.346 163.769 146.312 164.097 149.972 164.097Z" fill="#F2F2F2"/>
<path d="M90.7557 77.7845C94.415 77.7845 97.3814 77.4561 97.3814 77.0509C97.3814 76.6458 94.415 76.3174 90.7557 76.3174C87.0964 76.3174 84.13 76.6458 84.13 77.0509C84.13 77.4561 87.0964 77.7845 90.7557 77.7845Z" fill="#F2F2F2"/>
</svg>
