<svg width="262" height="176" viewBox="0 0 262 176" fill="none" xmlns="http://www.w3.org/2000/svg">
<g clip-path="url(#clip0_12_220)">
<path opacity="0.1" d="M152.224 29.0169C135.428 28.428 119.432 22.9912 104.166 17.0363C88.9002 11.0814 73.7595 4.48279 57.3657 1.32844C46.8095 -0.700665 34.7501 -0.985971 26.2542 4.69049C18.0789 10.1501 15.4364 19.5767 14.0174 28.3207C12.9486 34.901 12.321 41.8283 15.2477 47.9864C17.2807 52.2637 20.8896 55.8585 23.3866 59.9555C32.0781 74.2072 25.9381 91.7844 16.5212 105.703C12.1049 112.231 6.98372 118.459 3.57716 125.409C0.170608 132.36 -1.40532 140.323 1.57598 147.412C4.53227 154.438 11.5705 159.717 19.1977 163.428C34.6887 170.96 52.9426 173.126 70.7418 174.35C110.145 177.055 149.757 175.884 189.264 174.71C203.884 174.277 218.57 173.836 232.951 171.568C240.94 170.308 249.186 168.308 254.985 163.479C262.346 157.35 264.17 146.972 259.237 139.285C250.964 126.393 228.082 123.193 222.304 109.357C219.12 101.743 222.39 93.2588 227.016 86.1969C236.94 71.046 253.572 57.7553 254.45 40.436C255.051 28.5421 247.055 16.6323 234.691 10.9923C221.729 5.09449 203.763 5.83628 194.201 15.6006C184.357 25.6662 167.055 29.535 152.224 29.0169Z" fill="#F0E8E8"/>
<g opacity="0.5">
<path opacity="0.5" d="M113.876 91.8871L106.267 92.0446L105.023 93.7587V99.6817L106.576 100.773H113.876L115.429 99.0586V93.446L113.876 91.8871Z" fill="#F0E8E8"/>
<path opacity="0.2" d="M113.717 92.8228C113.717 92.8228 106.729 93.9139 106.108 92.8228L106.265 92.0445L113.717 91.8802V92.8228Z" fill="white"/>
<path opacity="0.5" d="M114.497 109.033L115.739 110.281V116.216L114.497 117.444C114.497 117.444 109.994 119.003 107.043 117.754L105.644 116.353V110.418L106.888 109.015L114.497 109.033Z" fill="#F0E8E8"/>
<path opacity="0.2" d="M114.186 110.437C114.186 110.437 108.751 111.683 106.888 110.437V109.033H114.497L114.186 110.437Z" fill="white"/>
<path opacity="0.5" d="M111.545 100.732V109.163C111.528 109.497 111.379 109.81 111.132 110.034C110.885 110.258 110.559 110.375 110.226 110.359C109.894 110.375 109.568 110.258 109.321 110.034C109.074 109.81 108.925 109.497 108.907 109.163V100.732C108.907 100.015 109.59 99.4602 110.381 99.5424C110.687 99.5613 110.976 99.6932 111.19 99.9128C111.405 100.132 111.532 100.424 111.545 100.732Z" fill="#F0E8E8"/>
<path opacity="0.5" d="M126.063 92.129L118.454 92.2842L117.21 93.9983V99.9213L118.763 101.012H126.063L127.616 99.2981V93.6856L126.063 92.129Z" fill="#F0E8E8"/>
<path opacity="0.2" d="M125.906 93.0625C125.906 93.0625 118.918 94.1535 118.297 93.0625L118.452 92.2842L125.906 92.129V93.0625Z" fill="white"/>
<path opacity="0.5" d="M126.679 109.272L127.921 110.521V116.455L126.679 117.69C126.679 117.69 122.174 119.249 119.225 118.001L117.826 116.599V110.676L119.07 109.272H126.679Z" fill="#F0E8E8"/>
<path opacity="0.2" d="M126.372 110.676C126.372 110.676 120.937 111.922 119.075 110.676V109.272H126.679L126.372 110.676Z" fill="white"/>
<path opacity="0.5" d="M123.723 100.971V109.403C123.705 109.736 123.556 110.049 123.309 110.273C123.062 110.497 122.737 110.614 122.404 110.599C122.071 110.615 121.745 110.498 121.498 110.274C121.25 110.05 121.101 109.737 121.083 109.403V100.971C121.083 100.254 121.765 99.6998 122.559 99.782C122.865 99.8009 123.153 99.9328 123.368 100.152C123.583 100.372 123.71 100.664 123.723 100.971Z" fill="#F0E8E8"/>
<path opacity="0.5" d="M141.577 96.6368L135.312 96.7669L134.288 98.1775V103.053L135.566 103.952H141.577L142.855 102.539V97.9196L141.577 96.6368Z" fill="#F0E8E8"/>
<path opacity="0.2" d="M141.447 97.4083C141.447 97.4083 135.696 98.3053 135.184 97.4083L135.312 96.7669L141.452 96.6368L141.447 97.4083Z" fill="white"/>
<path opacity="0.5" d="M142.086 110.751L143.109 111.779V116.654L142.086 117.681C142.086 117.681 138.379 118.964 135.946 117.937L134.795 116.782V111.906L135.819 110.751H142.086Z" fill="#F0E8E8"/>
<path opacity="0.2" d="M141.831 111.906C141.831 111.906 137.356 112.934 135.823 111.906V110.751H142.086L141.831 111.906Z" fill="white"/>
<path opacity="0.5" d="M139.657 103.918V110.859C139.643 111.134 139.52 111.392 139.316 111.576C139.113 111.76 138.844 111.856 138.57 111.842C138.297 111.856 138.029 111.76 137.825 111.576C137.622 111.391 137.5 111.133 137.486 110.859V103.918C137.494 103.771 137.534 103.628 137.601 103.497C137.668 103.366 137.762 103.251 137.876 103.159C137.99 103.067 138.122 102.999 138.263 102.961C138.405 102.924 138.553 102.916 138.698 102.939C138.95 102.954 139.187 103.063 139.365 103.244C139.542 103.424 139.646 103.664 139.657 103.918Z" fill="#F0E8E8"/>
<path opacity="0.5" d="M151.608 96.8354L145.343 96.9633L144.322 98.3738V103.251L145.6 104.148H151.608L152.886 102.738V98.1182L151.608 96.8354Z" fill="#F0E8E8"/>
<path opacity="0.2" d="M151.48 97.6046C151.48 97.6046 145.727 98.5039 145.215 97.6046L145.343 96.9633L151.483 96.8354L151.48 97.6046Z" fill="white"/>
<path opacity="0.5" d="M152.119 110.95L153.14 111.975V116.85L152.119 117.877C152.119 117.877 148.41 119.16 145.979 118.135L144.831 116.987V112.105L145.854 110.95H152.119Z" fill="#F0E8E8"/>
<path opacity="0.2" d="M151.862 112.105C151.862 112.105 147.389 113.13 145.854 112.105V110.95H152.119L151.862 112.105Z" fill="white"/>
<path opacity="0.5" d="M149.691 104.114V111.053C149.676 111.328 149.553 111.586 149.349 111.77C149.146 111.954 148.878 112.05 148.604 112.037C148.33 112.05 148.061 111.954 147.858 111.77C147.654 111.586 147.531 111.328 147.517 111.053V104.114C147.517 103.525 148.085 103.069 148.731 103.137C148.983 103.152 149.22 103.26 149.398 103.441C149.575 103.621 149.679 103.861 149.691 104.114Z" fill="#F0E8E8"/>
</g>
<path d="M238.563 122.025C238.075 121.137 237.16 120.552 236.198 120.283C235.225 120.048 234.219 119.985 233.224 120.096C231.617 120.211 230.023 120.474 228.464 120.883C227.498 121.139 226.495 121.481 225.842 122.253C225.824 122.276 225.804 122.303 225.783 122.326C224.785 122.588 223.793 122.992 222.827 123.321C221.857 123.644 220.87 123.913 219.871 124.127C221.178 123.38 222.452 122.591 223.53 121.536C224.039 121.04 224.496 120.492 224.894 119.902C225.633 120.114 226.408 120.166 227.168 120.055C228.708 119.79 229.952 118.685 231.109 117.608L234.832 114.171C235.425 113.623 236.028 113.061 236.424 112.345C236.958 111.347 237.006 110.16 237.019 109.021C237.038 107.456 237.019 105.89 236.974 104.326L238.152 105.239C237.973 103.311 238.33 101.37 239.184 99.6337C239.594 98.8051 240.13 97.9812 240.142 97.0522C240.16 95.6188 238.932 94.4913 237.674 93.8568C236.417 93.2223 235.002 92.816 233.972 91.8414C232.439 90.392 232.153 88.0799 231.396 86.0942C230.946 85.0069 230.414 83.9561 229.804 82.9512L228.33 80.372C227.589 79.0129 226.763 77.7024 225.856 76.4485C224.323 74.4194 222.393 72.7464 220.476 71.0916L210.506 62.4708C208.082 60.3732 205.649 58.2733 203.027 56.4382C197.708 52.7155 191.706 50.1592 185.744 47.628C184.243 46.9889 182.68 46.3407 181.057 46.4183C179.834 46.4978 178.675 46.9956 177.773 47.8288C176.919 47.5683 176.083 47.2496 175.272 46.8748L175.208 46.8451C175.226 46.7104 175.247 46.578 175.26 46.4434C175.281 46.2653 175.292 46.0873 175.306 45.907C175.755 45.8375 176.19 45.6949 176.593 45.4847C176.797 45.3877 176.978 45.2466 177.123 45.0716C177.306 44.7668 177.4 44.4164 177.393 44.0605C177.575 41.6753 177.757 39.2673 177.562 36.8936C177.366 34.5198 176.772 32.1164 175.515 30.0987C175.126 29.4733 174.639 28.8639 173.964 28.5923C173.054 28.2271 172.001 28.5672 171.03 28.4028C169.35 28.1175 168.302 26.4673 167.085 25.2508C164.008 22.1717 158.746 21.7084 155.194 24.2008C153.848 25.1481 152.77 26.4331 151.569 27.5652C150.368 28.6973 148.961 29.7221 147.339 29.9435C147.04 29.9562 146.748 30.0341 146.482 30.1717C146.15 30.3817 146 30.7857 145.872 31.1601C145.418 32.4519 144.981 33.778 144.842 35.1292C144.826 35.0471 144.813 34.9649 144.799 34.8827C144.737 35.3832 144.724 35.8885 144.76 36.3914C144.806 37.0324 144.991 37.6557 145.302 38.2174C145.561 38.7514 146.002 39.1742 146.546 39.4088C146.93 39.5454 147.336 39.6111 147.744 39.6028H147.924C147.858 39.7786 147.794 39.9543 147.735 40.1324C147.229 41.6407 146.971 43.222 146.973 44.8137C146.973 52.8023 153.325 59.2753 161.166 59.2753C162.109 59.2707 163.05 59.1713 163.974 58.9786C164.281 59.0767 164.588 59.1772 164.884 59.2845C165.489 59.4852 166.083 59.7199 166.662 59.9874C166.908 60.1038 167.901 60.6859 169.102 61.4368L169.02 61.608C167.849 62.7061 166.989 64.0972 166.53 65.6386C166.071 67.18 166.029 68.8162 166.407 70.3795C167.276 73.7735 170.125 76.6836 169.839 80.178C169.798 80.6756 169.693 81.18 169.777 81.673C169.893 82.3578 170.355 82.9147 170.817 83.4214C171.217 83.8642 171.633 84.2933 172.056 84.7133C172.022 86.9432 171.829 89.1709 171.619 91.394C171.601 91.588 171.597 91.7843 171.594 91.9829C171.607 92.944 171.954 93.8704 172.577 94.6009C173.236 95.4066 173.5 96.614 173.375 97.6913C173.195 99.2342 172.438 100.633 171.931 102.096C169.643 108.677 172.454 116.097 170.871 122.892C170.482 124.565 169.827 126.192 169.734 127.913C169.682 128.988 169.85 130.116 169.439 131.109C169.082 131.971 168.338 132.595 167.635 133.199C166.642 134.053 165.675 134.936 164.734 135.847C163.311 135.066 161.842 134.373 160.335 133.77C160.09 133.671 159.839 133.584 159.585 133.51C157.807 131.839 155.564 130.771 153.459 129.543C151.712 128.527 150.048 127.386 148.374 126.245C146.782 125.149 145.156 124.045 143.81 122.636C143.128 121.924 142.52 121.139 141.786 120.488C141.14 119.949 140.456 119.458 139.739 119.019C136.513 116.921 133.437 114.598 130.534 112.068C128.321 110.142 126.511 107.661 124.146 105.933C122.697 104.874 121.012 103.909 119.239 104.107C118.674 104.174 118.126 104.343 117.622 104.607C117.152 104.407 116.649 104.294 116.139 104.274C114.697 104.228 113.374 105.013 112.137 105.769C104.86 110.208 97.4689 114.448 89.9644 118.491C88.4499 119.308 86.9263 120.119 85.48 121.055C82.658 122.887 80.1576 125.175 78.0802 127.827C77.6981 128.313 77.216 128.865 76.6088 128.792C76.4426 128.766 76.2828 128.709 76.1381 128.623C75.2035 128.114 74.6304 127.13 74.0914 126.197C73.7003 125.512 73.2773 124.798 72.7043 124.277C72.5816 123.953 72.418 123.647 72.2176 123.364C73.0249 121.365 73.7208 119.318 74.3666 117.257C74.7032 116.175 75.0284 115.086 75.4582 114.036C76.5179 111.439 78.2075 109.085 78.8056 106.337C78.9488 105.673 79.033 104.991 79.1444 104.32C85.6824 103.028 90.6171 97.1663 90.6171 90.1273C90.6171 82.1387 84.2633 75.6656 76.4246 75.6656C68.5859 75.6656 62.2344 82.1387 62.2344 90.1273C62.2274 92.5588 62.8298 94.953 63.9862 97.0897C65.1426 99.2264 66.8159 101.037 68.852 102.354C68.852 102.382 68.852 102.409 68.852 102.434C68.8383 102.893 68.7935 103.351 68.7178 103.804C68.4563 105.333 67.8082 106.771 67.1555 108.165C66.7234 109.099 66.2914 110.037 65.8434 110.968C65.6284 110.925 65.4198 110.854 65.2226 110.758C64.8382 110.544 64.67 110.074 64.5244 109.658C63.8804 107.755 63.092 105.904 62.1662 104.121C61.8051 103.363 61.3464 102.657 60.8018 102.019C59.8421 100.964 58.5277 100.339 57.2565 99.7067C57.0291 99.5972 56.8176 99.4785 56.5993 99.3735C56.4105 99.2326 56.213 99.1038 56.008 98.9877C54.9506 98.3875 53.7772 97.9561 52.8948 97.1161C52.2331 96.4862 51.7783 95.6668 51.1597 94.998C50.1296 93.8865 48.7083 93.2519 47.3279 92.6471C46.6093 92.3321 45.8543 92.0103 45.0698 92.0536C44.9592 92.059 44.8491 92.0712 44.74 92.0902C44.5514 92.1225 44.3646 92.1651 44.1806 92.218C44.0015 92.1225 43.8324 92.0094 43.6758 91.8802C42.8321 91.2274 42.5046 90.1067 42.2295 89.0636C41.7746 87.3198 41.2948 85.5144 41.5768 83.7295C41.6259 83.4216 41.6927 83.1167 41.7769 82.8166C41.8474 82.7001 41.9156 82.5883 41.977 82.4628C43.7875 81.9166 45.4418 80.944 46.8019 79.6262C48.1621 78.3083 49.1887 76.6832 49.7964 74.8864C50.404 73.0896 50.575 71.1731 50.2952 69.2965C50.0153 67.4199 49.2927 65.6376 48.1875 64.0981C48.0715 63.9384 47.9601 63.7832 47.8305 63.628L47.9669 63.5526C49.2245 62.7812 49.511 60.9369 48.9289 59.5629C48.3467 58.1889 47.1096 57.2188 45.8566 56.4565C45.6747 56.3446 45.4905 56.2397 45.304 56.1347L45.1448 56.0479C45.0038 55.9703 44.8651 55.895 44.7241 55.8197L44.5581 55.7352C44.3921 55.6508 44.2261 55.5709 44.0601 55.4933L43.985 55.4568C43.7781 55.3632 43.5712 55.2719 43.3619 55.1852C43.1595 55.1007 42.9572 55.0231 42.7525 54.9569L42.6684 54.925C42.4751 54.8542 42.2795 54.788 42.0839 54.7241L42.0407 54.7104C40.6103 54.2437 39.1191 53.9915 37.6154 53.9618C36.1433 53.9706 34.6762 54.1335 33.2378 54.4479C31.8374 54.7024 30.466 55.0978 29.1445 55.628C26.9603 56.557 25.0347 58.0063 23.5343 59.8505C23.2181 59.8746 22.9046 59.9265 22.5974 60.0057C21.3671 60.3184 20.2597 61.0077 19.2477 61.7883C18.4001 62.4137 17.6492 63.1613 17.0191 64.0068C16.2771 65.0903 15.7654 66.3156 15.516 67.6063C14.6541 71.6531 15.7138 75.8231 16.4938 79.8904C17.2738 83.9578 17.7241 88.3903 15.8116 92.04C15.0907 93.4094 14.0674 94.5986 13.3101 95.9429C12.5529 97.2873 12.0275 98.9101 12.4642 100.401C12.994 102.211 14.7382 103.35 15.6479 104.993C16.7121 106.908 16.4188 109.48 15.027 111.156C14.9656 111.229 14.9042 111.302 14.8383 111.384C14.7723 111.466 14.6791 111.553 14.5927 111.63C16.0276 112.137 17.6263 111.591 18.9134 110.779C19.9428 110.169 20.8157 109.325 21.4627 108.316C23.0886 105.637 22.3586 102.172 22.9317 99.0745C23.6844 95.0185 26.7226 91.4009 26.3041 87.2947C26.0222 84.5398 24.2302 82.2368 22.8226 79.8676C21.8869 78.2775 21.1026 76.6024 20.4803 74.8645C20.4552 74.7914 20.4302 74.7161 20.4029 74.6362C19.9913 73.4608 19.6752 72.2146 19.8867 70.9843C19.9589 70.5858 20.0779 70.1974 20.2415 69.8271C20.2415 69.8705 20.2415 69.9161 20.2415 69.9595C20.2691 71.1494 20.5328 72.3218 21.0169 73.4083C22.4382 76.3755 25.8584 77.7449 28.0302 80.1506C28.1211 80.2511 28.2075 80.3538 28.294 80.4588C28.319 80.4862 28.3417 80.5158 28.3645 80.5455L28.5487 80.7738L28.626 80.881C28.6828 80.9609 28.7397 81.0408 28.792 81.123L28.8625 81.2257C28.9352 81.3421 29.008 81.4539 29.0762 81.5795C29.6288 80.9655 30.1996 80.3195 30.4225 79.5253C30.443 79.4568 30.4566 79.386 30.4702 79.3153C30.4884 79.3335 30.5044 79.3541 30.5225 79.3746C30.5658 79.6188 30.5999 79.8631 30.6317 80.1096C30.6317 80.4618 30.669 80.813 30.7431 81.1572C30.916 83.3484 30.7772 85.5989 30.6317 87.7969C30.5544 88.9723 30.8591 90.7184 30.1132 91.5949L30.0905 91.62C30.0467 91.6711 29.9988 91.7184 29.9472 91.7615C29.8199 91.8939 29.6902 92.024 29.5697 92.1609C27.0682 94.9912 25.9312 99.0083 25.9903 102.857C26.0495 107.237 27.4435 111.48 29.0239 115.554C29.5759 117.041 30.2262 118.49 30.9705 119.89C31.3548 120.647 31.8629 121.333 32.4737 121.92C33.1127 122.488 33.8904 122.862 34.6568 123.227C34.8478 123.319 35.0411 123.408 35.2321 123.501L35.7211 123.73L39.4437 125.505C40.1259 126.512 40.7854 127.546 41.4517 128.582C41.5472 128.728 41.6405 128.879 41.7383 129.025C42.466 130.166 43.1982 131.307 43.9441 132.417L50.2183 141.743C50.6731 142.427 51.1483 143.112 51.7874 143.619C51.9692 143.762 52.1659 143.885 52.3741 143.986C52.4798 144.037 52.5884 144.082 52.6993 144.121C52.5615 144.329 52.5026 144.579 52.5333 144.826C52.6171 145.069 52.7766 145.278 52.9881 145.422C54.4071 146.6 55.983 147.841 56.4287 149.651C56.7448 150.941 56.4287 152.322 56.713 153.618C57.2338 155.956 59.5374 157.373 61.7159 158.272C66.5984 160.285 72.022 161.059 77.2092 160.123C82.3963 159.187 87.3242 156.487 90.683 152.363C91.7155 151.089 92.5955 149.699 93.5757 148.385C94.2579 147.458 95.0083 146.575 95.7838 145.723C96.6205 145.339 97.4271 144.892 98.1966 144.386C99.8362 143.292 101.248 141.889 102.745 140.588C103.861 139.611 105.03 138.689 106.056 137.621C106.977 136.607 107.837 135.54 108.632 134.425C110.452 132.006 112.331 129.634 114.27 127.311C115.307 126.067 116.405 124.8 117.854 124.115L117.92 124.088C118.092 125.11 118.9 125.978 119.466 126.861C121.808 130.513 124.26 134.272 127.88 136.6C129.863 137.874 132.105 138.655 134.343 139.367C140.028 141.17 145.804 142.585 151.585 144.002C151.776 143.637 151.962 143.299 152.172 142.971C152.261 143.066 152.345 143.166 152.422 143.272C152.447 143.308 152.467 143.347 152.492 143.384C152.45 143.392 152.409 143.403 152.369 143.418C151.998 143.591 151.707 143.9 151.553 144.281C150.93 145.534 150.871 146.988 150.841 148.389C150.821 149.759 150.841 151.128 150.841 152.498C150.808 153.009 150.886 153.521 151.069 153.999C151.51 154.912 152.631 155.253 153.634 155.369C155.376 155.563 157.131 155.399 158.864 155.163C158.964 155.574 159.128 155.966 159.349 156.325C160.322 157.923 162.002 158.977 163.751 159.596C165.5 160.215 167.353 160.461 169.17 160.824C172.397 161.468 175.699 162.497 178.908 161.771C180.188 161.481 181.409 160.92 182.69 160.673C185.621 160.116 188.659 161.244 191.611 160.792C193.037 160.564 194.385 159.993 195.677 159.338C196.328 159.051 196.918 158.642 197.416 158.133C197.889 157.599 198.174 156.841 197.978 156.15C197.867 155.752 197.612 155.415 197.441 155.04C197.213 154.441 197.083 153.809 197.057 153.169C196.82 150.744 196.411 148.34 195.834 145.974C195.818 145.908 195.8 145.84 195.781 145.771C198.012 144.883 200.011 143.489 201.985 142.101L206.231 139.12C207.595 138.155 208.994 137.185 210.526 136.509C212.878 135.473 215.482 135.176 218.045 135.178C219.093 135.178 220.144 135.231 221.187 135.327C221.054 135.472 220.954 135.645 220.894 135.833C220.685 136.486 221.017 137.203 221.51 137.68C222.004 138.157 222.647 138.426 223.227 138.757C224.829 139.663 226.163 140.979 227.093 142.571C227.675 143.573 228.098 144.79 227.73 145.892C227.275 147.275 225.654 148.229 225.747 149.686C225.801 150.544 226.49 151.254 227.275 151.571C228.06 151.888 228.93 151.884 229.776 151.859C231.161 151.815 232.587 151.708 233.827 151.076C234.661 150.649 235.368 150.005 236.062 149.368C236.694 148.786 237.34 148.181 237.699 147.396C238.036 146.657 238.088 145.819 238.104 145.007C238.172 141.181 237.515 137.303 238.272 133.556C238.5 132.414 238.864 131.298 239.057 130.148C239.362 128.322 239.246 126.478 239.13 124.643C239.073 123.739 239.005 122.807 238.563 122.025Z" fill="url(#paint0_linear_12_220)"/>
<path opacity="0.06" d="M190.517 69.1195C189.623 69.7244 189.312 70.893 189.198 71.9703C188.714 76.5512 190.597 81.0864 190.471 85.6901C190.371 89.3535 189.011 92.8479 187.67 96.2556C185.382 102.069 184.19 108.382 183.729 114.616C183.267 120.849 182.592 127.34 179.258 132.613C178.501 133.807 177.618 134.916 176.877 136.116C176.099 137.372 175.483 138.718 174.796 140.024C172.773 143.88 170.164 147.396 167.064 150.448C166.155 151.338 165.191 152.201 164.031 152.714C163.283 153.04 162.479 153.212 161.664 153.221C160.849 153.229 160.041 153.074 159.287 152.765C157.732 152.119 156.422 150.662 156.358 148.973C156.301 147.462 157.2 146.1 158.1 144.89C161.152 140.792 164.662 137.058 168.561 133.761C169.268 133.163 170.014 132.544 170.38 131.691C170.792 130.707 170.623 129.591 170.676 128.525C170.76 126.825 171.419 125.211 171.813 123.554C173.405 116.823 170.576 109.473 172.877 102.952C173.389 101.503 174.148 100.118 174.328 98.5906C174.455 97.5224 174.191 96.3287 173.525 95.5275C172.901 94.8076 172.552 93.8887 172.54 92.9346C172.54 92.7384 172.54 92.5443 172.563 92.3526C172.841 89.3649 173.116 86.3635 172.966 83.3666C172.816 80.3697 172.222 77.3569 170.844 74.6933C170.13 73.3124 169.207 72.0205 168.765 70.5301C168.056 68.1175 168.711 65.5087 169.768 63.2262C170.594 61.4413 171.694 59.7409 173.232 58.5175C176.088 56.2465 180.363 55.984 183.49 57.8625C185.796 59.2456 187.374 61.5715 188.654 63.9429C189.573 65.6753 190.531 67.1429 190.517 69.1195Z" fill="black"/>
<path d="M182.937 50.9284C182.501 52.1107 182.066 53.293 181.634 54.4753C181.348 55.2513 181.064 56.0342 180.768 56.8103C179.404 60.3869 177.878 63.9064 175.49 66.8667C175.847 66.4239 172.488 64.1963 170.012 62.6762C168.804 61.9298 167.804 61.3546 167.558 61.2405C166.974 60.9758 166.377 60.7427 165.768 60.5421C164.824 60.2225 163.869 59.9463 162.926 59.6017C160.743 58.8097 162.268 57.6205 163.203 56.3423C166.262 52.1563 166.842 46.4365 170.314 42.5906C171.588 45.0191 173.602 46.9747 176.063 48.1712C176.111 48.1963 176.161 48.2191 176.211 48.2396C178.273 49.2074 180.552 49.6251 182.685 50.4354C182.801 50.4787 182.935 50.5404 182.974 50.6636C182.988 50.7535 182.976 50.8457 182.937 50.9284Z" fill="#A1616A"/>
<path d="M177 135.475C176.012 136.896 175.397 138.543 175.212 140.266C175.027 141.988 175.279 143.729 175.942 145.328C176.11 145.775 176.372 146.181 176.709 146.518C177.138 146.854 177.638 147.088 178.171 147.202C182.687 148.492 187.508 148.238 192.134 147.43C193.701 147.188 195.241 146.795 196.732 146.255C199.022 145.376 201.066 143.973 203.086 142.571L207.356 139.618C208.739 138.661 210.133 137.7 211.677 137.029C214.042 136.005 216.662 135.71 219.238 135.712C221.452 135.715 223.66 135.927 225.833 136.345C227.282 136.625 229.017 136.915 230.036 135.854C230.618 135.254 230.791 134.375 230.904 133.546C231.354 130.323 231.346 127.051 230.879 123.83C230.868 123.559 230.77 123.299 230.6 123.088C230.439 122.951 230.244 122.862 230.036 122.83C228.023 122.374 226.004 123.321 224.048 123.971C219.984 125.327 215.62 125.489 211.486 126.605C207.147 127.776 203.072 129.993 198.588 130.442C196.45 130.657 194.303 130.47 192.161 130.518C190.174 130.561 188.32 131.25 186.374 131.332C182.621 131.499 179.358 132.156 177 135.475Z" fill="#A1616A"/>
<path opacity="0.06" d="M177 135.475C176.012 136.896 175.397 138.543 175.212 140.266C175.027 141.988 175.279 143.729 175.942 145.328C176.11 145.775 176.372 146.181 176.709 146.518C177.138 146.854 177.638 147.088 178.171 147.202C182.687 148.492 187.508 148.238 192.134 147.43C193.701 147.188 195.241 146.795 196.732 146.255C199.022 145.376 201.066 143.973 203.086 142.571L207.356 139.618C208.739 138.661 210.133 137.7 211.677 137.029C214.042 136.005 216.662 135.71 219.238 135.712C221.452 135.715 223.66 135.927 225.833 136.345C227.282 136.625 229.017 136.915 230.036 135.854C230.618 135.254 230.791 134.375 230.904 133.546C231.354 130.323 231.346 127.051 230.879 123.83C230.868 123.559 230.77 123.299 230.6 123.088C230.439 122.951 230.244 122.862 230.036 122.83C228.023 122.374 226.004 123.321 224.048 123.971C219.984 125.327 215.62 125.489 211.486 126.605C207.147 127.776 203.072 129.993 198.588 130.442C196.45 130.657 194.303 130.47 192.161 130.518C190.174 130.561 188.32 131.25 186.374 131.332C182.621 131.499 179.358 132.156 177 135.475Z" fill="black"/>
<path d="M180.67 130.65C180.563 131.154 180.468 131.688 180.618 132.181C180.804 132.666 181.119 133.091 181.528 133.409C185.393 136.883 190.917 137.602 196.082 138.166C197.48 138.319 198.904 138.472 200.289 138.219C201.551 137.99 202.729 137.431 203.891 136.879C206.392 135.69 208.907 134.487 211.052 132.738C213.155 131.026 214.843 128.835 217.021 127.222C219.498 125.396 222.543 124.35 224.753 122.2C226.351 120.653 227.413 118.632 227.784 116.435C228.035 114.935 227.953 113.404 227.784 111.893C227.605 110.156 227.316 108.389 226.493 106.851C225.54 105.07 223.939 103.726 222.249 102.621C218.674 100.289 214.465 98.8416 210.197 98.8781C204.284 98.9306 198.826 102.384 194.583 106.262C190.094 110.369 186.462 115.329 183.895 120.854C182.446 123.983 181.364 127.27 180.67 130.65Z" fill="#464353"/>
<path opacity="0.06" d="M180.67 130.65C180.563 131.154 180.468 131.688 180.618 132.181C180.804 132.666 181.119 133.091 181.528 133.409C185.393 136.883 190.917 137.602 196.082 138.166C197.48 138.319 198.904 138.472 200.289 138.219C201.551 137.99 202.729 137.431 203.891 136.879C206.392 135.69 208.907 134.487 211.052 132.738C213.155 131.026 214.843 128.835 217.021 127.222C219.498 125.396 222.543 124.35 224.753 122.2C226.351 120.653 227.413 118.632 227.784 116.435C228.035 114.935 227.953 113.404 227.784 111.893C227.605 110.156 227.316 108.389 226.493 106.851C225.54 105.07 223.939 103.726 222.249 102.621C218.674 100.289 214.465 98.8416 210.197 98.8781C204.284 98.9306 198.826 102.384 194.583 106.262C190.094 110.369 186.462 115.329 183.895 120.854C182.446 123.983 181.364 127.27 180.67 130.65Z" fill="black"/>
<path d="M190.517 69.1195C189.623 69.7244 189.312 70.893 189.198 71.9703C188.714 76.5512 190.597 81.0864 190.471 85.6901C190.371 89.3535 189.011 92.8479 187.67 96.2556C185.382 102.069 184.19 108.382 183.729 114.616C183.267 120.849 182.592 127.34 179.258 132.613C178.501 133.807 177.618 134.916 176.877 136.116C176.099 137.372 175.483 138.718 174.796 140.024C172.773 143.88 170.164 147.396 167.064 150.448C166.155 151.338 165.191 152.201 164.031 152.714C163.283 153.04 162.479 153.212 161.664 153.221C160.849 153.229 160.041 153.074 159.287 152.765C157.732 152.119 156.422 150.662 156.358 148.973C156.301 147.462 157.2 146.1 158.1 144.89C161.152 140.792 164.662 137.058 168.561 133.761C169.268 133.163 170.014 132.544 170.38 131.691C170.792 130.707 170.623 129.591 170.676 128.525C170.76 126.825 171.419 125.211 171.813 123.554C173.405 116.823 170.576 109.473 172.877 102.952C173.389 101.503 174.148 100.118 174.328 98.5906C174.455 97.5224 174.191 96.3287 173.525 95.5275C172.901 94.8076 172.552 93.8887 172.54 92.9346C172.54 92.7384 172.54 92.5443 172.563 92.3526C172.841 89.3649 173.116 86.3635 172.966 83.3666C172.816 80.3697 172.222 77.3569 170.844 74.6933C170.13 73.3124 169.207 72.0205 168.765 70.5301C168.056 68.1175 168.711 65.5087 169.768 63.2262C170.594 61.4413 171.694 59.7409 173.232 58.5175C176.088 56.2465 180.363 55.984 183.49 57.8625C185.796 59.2456 187.374 61.5715 188.654 63.9429C189.573 65.6753 190.531 67.1429 190.517 69.1195Z" fill="#A1616A"/>
<path d="M177.953 84.4531C182.706 84.4531 186.56 78.3841 186.56 70.8976C186.56 63.4111 182.706 57.3421 177.953 57.3421C173.199 57.3421 169.345 63.4111 169.345 70.8976C169.345 78.3841 173.199 84.4531 177.953 84.4531Z" fill="#A1616A"/>
<path d="M156.001 141.733C156.255 142.093 156.428 142.504 156.506 142.938C156.585 143.372 156.568 143.818 156.456 144.244C157.267 144.829 158.254 145.117 159.251 145.061C160.241 145.007 161.214 144.782 162.127 144.397C162.922 144.106 163.675 143.71 164.365 143.219C165.552 142.338 166.412 141.078 167.094 139.773C167.478 139.052 167.806 138.118 167.321 137.47C167.131 137.25 166.899 137.07 166.639 136.94C164.887 135.937 163.063 135.067 161.181 134.336C160.665 134.097 160.104 133.971 159.535 133.966C158.837 134.005 158.202 134.389 157.648 134.818C156.4 135.791 155.395 137.041 154.709 138.47C154.496 138.926 153.85 140.01 154.17 140.48C154.316 140.697 154.853 140.773 155.08 140.91C155.442 141.116 155.756 141.397 156.001 141.733Z" fill="#FBBEBE"/>
<path opacity="0.03" d="M156.001 141.733C156.255 142.093 156.428 142.504 156.506 142.938C156.585 143.372 156.568 143.818 156.456 144.244C157.267 144.829 158.254 145.117 159.251 145.061C160.241 145.007 161.214 144.782 162.127 144.397C162.922 144.106 163.675 143.71 164.365 143.219C165.552 142.338 166.412 141.078 167.094 139.773C167.478 139.052 167.806 138.118 167.321 137.47C167.131 137.25 166.899 137.07 166.639 136.94C164.887 135.937 163.063 135.067 161.181 134.336C160.665 134.097 160.104 133.971 159.535 133.966C158.837 134.005 158.202 134.389 157.648 134.818C156.4 135.791 155.395 137.041 154.709 138.47C154.496 138.926 153.85 140.01 154.17 140.48C154.316 140.697 154.853 140.773 155.08 140.91C155.442 141.116 155.756 141.397 156.001 141.733Z" fill="black"/>
<path d="M165.418 136.445C169.266 137.162 172.804 139.029 176.586 140.035C178.116 140.442 179.692 140.72 181.155 141.318C182.617 141.916 183.995 142.939 184.625 144.395C184.891 145.094 185.068 145.824 185.15 146.568C185.314 147.62 185.448 148.795 184.825 149.658C184.168 150.571 182.926 150.772 181.814 150.907C177.816 151.384 173.818 151.863 169.807 152.201C168.995 152.25 168.186 152.347 167.385 152.491C166.726 152.623 166.082 152.824 165.427 152.979C164.579 153.178 163.717 153.303 162.857 153.436C160.658 153.753 158.434 154.07 156.226 153.828C155.219 153.716 154.091 153.39 153.647 152.477C153.463 152.004 153.386 151.496 153.42 150.989C153.409 149.633 153.397 148.28 153.42 146.926C153.441 145.536 153.509 144.094 154.136 142.854C154.292 142.475 154.585 142.169 154.957 141.998C155.186 141.933 155.425 141.911 155.662 141.934C156.845 141.975 158.068 142.026 159.126 142.555C159.965 142.973 160.647 143.669 161.502 144.048C163.121 144.769 165.075 144.251 166.714 144.929C167.096 143.747 167.01 142.551 166.726 141.339C166.441 140.127 166.043 138.938 165.923 137.7C165.918 137.429 165.866 137.16 165.768 136.906C165.645 136.653 165.686 136.406 165.418 136.445Z" fill="#464353"/>
<path opacity="0.06" d="M165.418 136.445C169.266 137.162 172.804 139.029 176.586 140.035C178.116 140.442 179.692 140.72 181.155 141.318C182.617 141.916 183.995 142.939 184.625 144.395C184.891 145.094 185.068 145.824 185.15 146.568C185.314 147.62 185.448 148.795 184.825 149.658C184.168 150.571 182.926 150.772 181.814 150.907C177.816 151.384 173.818 151.863 169.807 152.201C168.995 152.25 168.186 152.347 167.385 152.491C166.726 152.623 166.082 152.824 165.427 152.979C164.579 153.178 163.717 153.303 162.857 153.436C160.658 153.753 158.434 154.07 156.226 153.828C155.219 153.716 154.091 153.39 153.647 152.477C153.463 152.004 153.386 151.496 153.42 150.989C153.409 149.633 153.397 148.28 153.42 146.926C153.441 145.536 153.509 144.094 154.136 142.854C154.292 142.475 154.585 142.169 154.957 141.998C155.186 141.933 155.425 141.911 155.662 141.934C156.845 141.975 158.068 142.026 159.126 142.555C159.965 142.973 160.647 143.669 161.502 144.048C163.121 144.769 165.075 144.251 166.714 144.929C167.096 143.747 167.01 142.551 166.726 141.339C166.441 140.127 166.043 138.938 165.923 137.7C165.918 137.429 165.866 137.16 165.768 136.906C165.645 136.653 165.686 136.406 165.418 136.445Z" fill="black"/>
<path d="M36.8854 97.527C36.1099 97.2805 35.3618 97.9698 34.9274 98.6682C33.1218 101.517 33.2696 105.319 34.7137 108.369C35.0572 109.142 35.5311 109.85 36.1145 110.462C36.8968 111.235 37.9042 111.731 38.8434 112.288C41.4494 113.833 43.6827 115.937 45.3836 118.45C46.4956 120.096 47.3711 121.906 48.6332 123.437C51.7396 127.208 56.8449 128.915 59.858 132.75C60.5789 133.663 61.1884 134.722 62.1503 135.386C62.7221 135.781 63.3885 136.015 64.0807 136.065C64.7729 136.114 65.4657 135.977 66.0877 135.669C66.7096 135.36 67.238 134.89 67.6185 134.307C67.9989 133.725 68.2175 133.051 68.2516 132.355C69.4228 130.627 70.3801 128.719 71.292 126.838C72.6413 123.968 73.7813 121.003 74.7032 117.966C75.042 116.894 75.3695 115.814 75.8015 114.771C76.8681 112.196 78.5668 109.866 79.1672 107.145C79.4082 106.054 79.4673 104.92 79.8175 103.861C80.1312 102.91 80.6678 102.049 81.3821 101.35C83.7471 99.0425 85.0206 95.6805 86.9013 92.9644C87.6653 91.8665 88.459 90.7709 88.9638 89.5293C89.4687 88.2876 89.662 86.8657 89.1912 85.6103C88.7205 84.355 87.4902 83.3416 86.1576 83.4123C85.5613 83.4744 84.9827 83.6527 84.4544 83.9373C82.6178 84.812 80.9333 85.9772 79.4651 87.3883C78.823 88.0085 78.2157 88.6638 77.6458 89.3513C74.8669 92.6836 72.6929 96.7281 72.5019 101.069C72.4382 102.558 72.5564 104.208 71.615 105.36C69.018 108.544 68.1834 112.922 65.9685 116.387C64.9429 117.985 63.7672 119.639 62.0139 120.368C61.7549 120.493 61.4684 120.549 61.1815 120.532C60.4811 120.452 60.0786 119.712 59.783 119.069C58.6277 116.558 57.2908 114.136 55.7829 111.822C55.1871 110.909 54.5299 109.973 53.5771 109.437C52.9267 109.074 52.1717 108.912 51.56 108.487C50.7072 107.896 50.2615 106.89 49.818 105.947C48.3808 102.902 46.5612 100.055 44.4035 97.4745C43.4165 96.2945 42.1158 95.0756 40.5921 95.2514C39.1413 95.4226 38.2544 96.9541 36.8854 97.527Z" fill="#FBBEBE"/>
<path opacity="0.03" d="M36.8854 97.527C36.1099 97.2805 35.3618 97.9698 34.9274 98.6682C33.1218 101.517 33.2696 105.319 34.7137 108.369C35.0572 109.142 35.5311 109.85 36.1145 110.462C36.8968 111.235 37.9042 111.731 38.8434 112.288C41.4494 113.833 43.6827 115.937 45.3836 118.45C46.4956 120.096 47.3711 121.906 48.6332 123.437C51.7396 127.208 56.8449 128.915 59.858 132.75C60.5789 133.663 61.1884 134.722 62.1503 135.386C62.7221 135.781 63.3885 136.015 64.0807 136.065C64.7729 136.114 65.4657 135.977 66.0877 135.669C66.7096 135.36 67.238 134.89 67.6185 134.307C67.9989 133.725 68.2175 133.051 68.2516 132.355C69.4228 130.627 70.3801 128.719 71.292 126.838C72.6413 123.968 73.7813 121.003 74.7032 117.966C75.042 116.894 75.3695 115.814 75.8015 114.771C76.8681 112.196 78.5668 109.866 79.1672 107.145C79.4082 106.054 79.4673 104.92 79.8175 103.861C80.1312 102.91 80.6678 102.049 81.3821 101.35C83.7471 99.0425 85.0206 95.6805 86.9013 92.9644C87.6653 91.8665 88.459 90.7709 88.9638 89.5293C89.4687 88.2876 89.662 86.8657 89.1912 85.6103C88.7205 84.355 87.4902 83.3416 86.1576 83.4123C85.5613 83.4744 84.9827 83.6527 84.4544 83.9373C82.6178 84.812 80.9333 85.9772 79.4651 87.3883C78.823 88.0085 78.2157 88.6638 77.6458 89.3513C74.8669 92.6836 72.6929 96.7281 72.5019 101.069C72.4382 102.558 72.5564 104.208 71.615 105.36C69.018 108.544 68.1834 112.922 65.9685 116.387C64.9429 117.985 63.7672 119.639 62.0139 120.368C61.7549 120.493 61.4684 120.549 61.1815 120.532C60.4811 120.452 60.0786 119.712 59.783 119.069C58.6277 116.558 57.2908 114.136 55.7829 111.822C55.1871 110.909 54.5299 109.973 53.5771 109.437C52.9267 109.074 52.1717 108.912 51.56 108.487C50.7072 107.896 50.2615 106.89 49.818 105.947C48.3808 102.902 46.5612 100.055 44.4035 97.4745C43.4165 96.2945 42.1158 95.0756 40.5921 95.2514C39.1413 95.4226 38.2544 96.9541 36.8854 97.527Z" fill="black"/>
<path d="M36.7262 86.6214C40.0369 86.6214 42.7207 84.1903 42.7207 81.1914C42.7207 78.1926 40.0369 75.7615 36.7262 75.7615C33.4156 75.7615 30.7318 78.1926 30.7318 81.1914C30.7318 84.1903 33.4156 86.6214 36.7262 86.6214Z" fill="#FBBEBE"/>
<path d="M42.3477 82.2414C43.5396 82.2414 44.5058 81.2716 44.5058 80.0753C44.5058 78.8791 43.5396 77.9093 42.3477 77.9093C41.1558 77.9093 40.1896 78.8791 40.1896 80.0753C40.1896 81.2716 41.1558 82.2414 42.3477 82.2414Z" fill="#FBBEBE"/>
<path d="M37.513 81.1914C42.0733 81.1914 45.7702 80.1992 45.7702 78.9752C45.7702 77.7512 42.0733 76.7589 37.513 76.7589C32.9527 76.7589 29.2559 77.7512 29.2559 78.9752C29.2559 80.1992 32.9527 81.1914 37.513 81.1914Z" fill="#FBBEBE"/>
<path d="M30.1496 78.5027C30.3505 79.1419 30.5085 79.7938 30.6226 80.4542C29.9293 79.7478 29.3287 78.9554 28.8352 78.0964C28.7022 77.9483 28.5953 77.7785 28.5191 77.5943C27.7823 75.8733 27.2797 74.1318 27.2797 72.2465C27.2796 70.0605 27.8883 67.9181 29.0373 66.0611C30.1863 64.2041 31.8298 62.7065 33.782 61.7375C35.7343 60.7686 37.9176 60.3668 40.0854 60.5775C42.2532 60.7882 44.319 61.6032 46.0497 62.9302C47.7804 64.2572 49.1069 66.0435 49.8795 68.0873C50.652 70.1311 50.8398 72.351 50.4217 74.4963C50.0035 76.6416 48.996 78.6268 47.5131 80.2277C46.0301 81.8286 44.1307 82.9815 42.0293 83.556C42.3864 82.4011 42.8753 81.2736 42.939 80.0753C42.9773 79.6756 42.9196 79.2725 42.7707 78.8998C42.5711 78.5034 42.2765 78.163 41.9134 77.9092C40.6126 76.9118 38.9389 76.4759 37.3015 76.5033C35.6623 76.5716 34.0519 76.9592 32.5601 77.6445C32.0894 77.8476 31.5254 78.1215 30.9683 78.3087C30.7026 78.4011 30.4283 78.4661 30.1496 78.5027Z" fill="#FBBEBE"/>
<path d="M59.7694 104.153C59.0212 105.356 57.4225 105.723 56.0171 105.616C53.3974 105.422 51.0142 104.018 48.9903 102.329C46.9663 100.64 45.1971 98.6773 43.1277 97.0522C39.2777 94.0234 34.9411 92.8069 30.0427 92.7361C31.0001 91.9395 30.6476 90.0497 30.7249 88.808C30.8932 86.2973 31.0524 83.7204 30.7249 81.2462C30.6908 80.9792 30.6522 80.7167 30.6067 80.4542C30.684 80.5364 30.7659 80.6163 30.85 80.6984C32.3067 82.1015 34.1005 83.1021 36.0568 83.6029C38.013 84.1037 40.0652 84.0875 42.0134 83.5561C41.8881 83.9536 41.7901 84.3593 41.7201 84.7703C41.4381 86.5347 41.9111 88.3241 42.3773 90.0519C42.6547 91.0859 42.9845 92.1952 43.8327 92.8411C44.383 93.2611 45.0766 93.4254 45.7293 93.6468C47.0302 94.0919 48.2311 94.7899 49.2632 95.701C49.9818 96.3333 50.6276 97.0705 51.3985 97.6206C52.1317 98.0861 52.904 98.4863 53.7067 98.8166C55.6767 99.729 57.5381 100.861 59.2554 102.192C59.5795 102.395 59.8317 102.696 59.9763 103.051C60.0188 103.239 60.0223 103.434 59.9867 103.623C59.9511 103.813 59.8771 103.993 59.7694 104.153Z" fill="#FBBEBE"/>
<path d="M73.2023 126.268C73.0454 127.308 72.0948 128.121 71.424 128.929C69.6002 131.138 67.7513 133.355 65.7115 135.377C63.5284 137.538 61.1315 139.465 58.7369 141.391L55.6305 143.886C55.2473 144.238 54.7982 144.509 54.3093 144.685C53.7366 144.828 53.1315 144.756 52.6083 144.482C52.4 144.381 52.2026 144.26 52.0193 144.119C51.3758 143.617 50.9028 142.932 50.4411 142.258C48.3399 139.18 46.2364 136.101 44.1306 133.021C43.3801 131.921 42.6433 130.791 41.9111 129.662C41.8133 129.516 41.7201 129.367 41.6223 129.221C40.9537 128.194 40.2874 127.167 39.6029 126.174L35.8598 124.414L35.3686 124.186L34.7887 123.914C34.0178 123.552 33.2355 123.182 32.5942 122.62C31.9802 122.041 31.4688 121.361 31.082 120.609C30.333 119.22 29.6781 117.781 29.1217 116.302C27.5299 112.269 26.129 108.065 26.0699 103.724C26.0176 99.9053 27.141 95.9338 29.6698 93.131C30.0154 92.7453 30.387 92.3838 30.7818 92.0491C31.2684 91.6405 31.771 91.4009 32.3964 91.4899C33.0217 91.5789 33.6153 91.6702 34.2156 91.7729C35.8712 92.059 37.5138 92.4089 39.1435 92.8228C40.6126 93.1994 42.1339 93.6285 43.6189 93.3295C43.8577 93.2816 44.0942 93.2131 44.3307 93.1515C44.524 93.1013 44.715 93.0534 44.9129 93.0214C45.0227 93.0023 45.1336 92.9901 45.2449 92.9849C46.034 92.9438 46.7912 93.2611 47.5189 93.5738C48.9084 94.1718 50.3388 94.8017 51.3849 95.9019C52.008 96.5638 52.465 97.3763 53.1291 97.9994C54.016 98.8325 55.1985 99.2593 56.2627 99.8551C56.4683 99.9695 56.6666 100.097 56.8563 100.236C57.276 100.552 57.6576 100.916 57.9933 101.32C59.3714 102.952 60.1901 105.155 61.7114 106.778C62.9289 108.074 63.9871 109.512 64.8633 111.062C65.0065 111.32 65.1453 111.58 65.2817 111.845C65.5091 112.285 65.7206 112.733 65.9162 113.185C65.9662 113.301 66.0162 113.413 66.0617 113.534C66.3479 114.218 66.5976 114.916 66.8099 115.627C67.3261 117.35 67.6695 119.21 68.8156 120.593C69.6161 121.554 70.7258 122.191 71.6605 123.02C72.2624 123.531 72.736 124.178 73.0431 124.907C73.2119 125.339 73.2667 125.808 73.2023 126.268Z" fill="#FBBEBE"/>
<path opacity="0.06" d="M66.8713 112.559C66.6105 112.889 66.3429 113.215 66.0685 113.536C66.023 113.595 65.973 113.652 65.923 113.71C63.5292 116.52 60.789 119.013 57.7682 121.13C55.8989 122.44 53.9273 123.602 51.9602 124.761L48.3217 126.9C46.8003 127.797 45.2585 128.701 43.5712 129.217C43.0299 129.379 42.4637 129.509 41.9111 129.662C41.8133 129.516 41.7201 129.367 41.6223 129.221C40.9537 128.194 40.2874 127.167 39.6029 126.174L35.8598 124.414C37.927 123.103 39.7609 121.453 41.2857 119.534C43.5598 116.72 45.3085 113.511 47.0323 110.322C47.3379 109.808 47.5756 109.255 47.7395 108.679C47.9669 107.723 47.7759 106.718 47.4962 105.778C46.4723 102.406 44.3194 99.4932 41.4017 97.5315C39.355 96.162 37.0264 95.3289 34.7114 94.5255C33.0945 93.964 31.323 93.4208 29.6789 93.6513C30.024 93.2658 30.3956 92.9051 30.7909 92.5717C31.2775 92.1609 31.7801 91.9212 32.4055 92.0103C33.0308 92.0993 33.6244 92.1906 34.2247 92.2956C35.4414 92.6699 36.6375 93.1172 37.8269 93.5783C38.6093 93.8662 39.3694 94.2118 40.1009 94.6122C40.8291 95.0585 41.5286 95.5502 42.1953 96.0844C44.1672 97.5931 46.2433 98.9591 48.4081 100.172C50.9096 101.558 53.5361 102.683 56.1604 103.824C56.4387 103.968 56.7459 104.046 57.0587 104.052C57.2153 104.052 57.3675 104 57.491 103.903C57.6145 103.806 57.7025 103.671 57.7409 103.518C57.7513 103.352 57.7133 103.186 57.6317 103.041C57.1769 102.108 56.1445 101.638 55.2098 101.183C51.3303 99.2981 47.9192 96.5843 44.5445 93.891C44.4625 93.8258 44.3905 93.7489 44.3307 93.6627L44.9129 93.5326C48.6896 96.2553 52.6782 98.6688 56.8403 100.75C57.0602 100.862 57.2808 100.972 57.5021 101.078C57.6613 101.158 57.8182 101.236 57.9797 101.307C59.1008 101.859 60.2219 102.448 61.0656 103.361C61.6097 103.991 62.0685 104.69 62.43 105.44C63.3595 107.203 64.1532 109.034 64.8041 110.918C64.8165 110.958 64.8309 110.998 64.8473 111.037C64.9299 111.325 65.0725 111.591 65.2658 111.82C65.3339 111.896 65.4146 111.96 65.5045 112.009C65.9321 112.262 66.5188 112.235 66.8713 112.559Z" fill="black"/>
<path d="M44.922 93.0214C48.6982 95.7441 52.6869 98.1569 56.8494 100.236L57.5112 100.567C58.7847 101.193 60.1105 101.813 61.0769 102.85C61.6206 103.481 62.0793 104.18 62.4414 104.931C63.3715 106.693 64.1644 108.525 64.8132 110.409C64.9588 110.827 65.1293 111.286 65.5159 111.5C65.9025 111.715 66.5165 111.699 66.8599 112.023C66.5506 112.411 66.2368 112.794 65.9116 113.164C63.5185 115.976 60.7782 118.47 57.7568 120.587C55.8875 121.897 53.9159 123.058 51.9488 124.218L48.3103 126.357C46.789 127.251 45.2471 128.155 43.5598 128.671C42.9253 128.865 42.2545 129.011 41.6109 129.198C40.9423 128.171 40.276 127.144 39.5915 126.151L35.3572 124.161C37.6313 122.869 39.6143 121.032 41.2698 118.989C43.5439 116.177 45.2926 112.968 47.0164 109.779C47.3216 109.264 47.5593 108.712 47.7236 108.136C47.951 107.179 47.76 106.173 47.4803 105.233C46.4558 101.872 44.3092 98.9675 41.4017 97.0088C39.355 95.6394 37.0264 94.8086 34.7114 94.0029C33.0945 93.4436 31.323 92.8981 29.6789 93.131C30.0245 92.7453 30.3961 92.3838 30.7909 92.0491C31.2775 91.6405 31.7801 91.4009 32.4055 91.4899C33.0308 91.5789 33.6244 91.6702 34.2247 91.7729C35.4414 92.1495 36.6375 92.5969 37.8269 93.0579C38.6097 93.3448 39.3698 93.6904 40.1009 94.0919C40.8291 94.5381 41.5286 95.0298 42.1953 95.5641C44.1704 97.0692 46.2496 98.4315 48.4172 99.6405C50.9187 101.028 53.5452 102.163 56.1695 103.292C56.4477 103.436 56.7549 103.514 57.0678 103.521C57.2246 103.521 57.3772 103.469 57.5009 103.372C57.6246 103.275 57.7123 103.139 57.75 102.987C57.7602 102.821 57.7223 102.656 57.6408 102.512C57.186 101.578 56.1536 101.106 55.2189 100.654C51.3394 98.7686 47.9283 96.0525 44.5536 93.3501C44.4709 93.2856 44.3988 93.2086 44.3398 93.1218L44.922 93.0214Z" fill="#F0E8E8"/>
<path d="M76.7839 105.413C84.6674 105.413 91.0583 98.9984 91.0583 91.0859C91.0583 83.1733 84.6674 76.7589 76.7839 76.7589C68.9004 76.7589 62.5096 83.1733 62.5096 91.0859C62.5096 98.9984 68.9004 105.413 76.7839 105.413Z" fill="#F0E8E8"/>
<path d="M90.9764 148.106C93.6484 147.264 96.3614 146.406 98.7082 144.865C100.357 143.783 101.778 142.391 103.275 141.104C104.4 140.136 105.574 139.223 106.606 138.155C107.531 137.155 108.397 136.102 109.199 135C111.024 132.602 112.909 130.25 114.854 127.943C115.898 126.713 117.001 125.46 118.459 124.775C121.049 123.554 124.089 124.378 126.823 125.215C130.916 126.471 134.989 127.801 138.818 129.712C140.997 130.801 143.107 132.015 145.306 133.058C149.327 134.964 153.595 136.272 157.848 137.573C158.164 137.708 158.515 137.736 158.848 137.655C159.087 137.545 159.292 137.373 159.442 137.157C159.996 136.47 160.441 135.7 160.758 134.875C160.819 134.781 160.842 134.668 160.822 134.558C160.802 134.448 160.741 134.35 160.652 134.284C158.832 132.506 156.472 131.412 154.266 130.145C152.51 129.139 150.83 128.009 149.152 126.879C147.539 125.795 145.913 124.7 144.56 123.305C143.878 122.6 143.264 121.821 142.525 121.178C141.872 120.642 141.18 120.155 140.456 119.722C137.214 117.644 134.12 115.343 131.196 112.835C128.972 110.927 127.15 108.469 124.774 106.757C123.316 105.707 121.619 104.751 119.837 104.943C117.667 105.171 116.066 106.997 114.554 108.572C109.471 113.869 103.059 117.66 97.387 122.319C92.757 126.117 88.4294 130.629 82.7898 132.633C83.0422 133.473 83.1309 134.313 83.3856 135.144C83.703 136.299 84.0988 137.431 84.5703 138.531C85.0379 139.506 85.5642 140.451 86.1463 141.361L88.4067 145.066C88.8615 145.819 89.3368 146.584 89.9872 147.182C90.3283 147.51 90.9764 147.629 90.9764 148.106Z" fill="#464353"/>
<path opacity="0.06" d="M90.9764 148.106C93.6484 147.264 96.3614 146.406 98.7082 144.865C100.357 143.783 101.778 142.391 103.275 141.104C104.4 140.136 105.574 139.223 106.606 138.155C107.531 137.155 108.397 136.102 109.199 135C111.024 132.602 112.909 130.25 114.854 127.943C115.898 126.713 117.001 125.46 118.459 124.775C121.049 123.554 124.089 124.378 126.823 125.215C130.916 126.471 134.989 127.801 138.818 129.712C140.997 130.801 143.107 132.015 145.306 133.058C149.327 134.964 153.595 136.272 157.848 137.573C158.164 137.708 158.515 137.736 158.848 137.655C159.087 137.545 159.292 137.373 159.442 137.157C159.996 136.47 160.441 135.7 160.758 134.875C160.819 134.781 160.842 134.668 160.822 134.558C160.802 134.448 160.741 134.35 160.652 134.284C158.832 132.506 156.472 131.412 154.266 130.145C152.51 129.139 150.83 128.009 149.152 126.879C147.539 125.795 145.913 124.7 144.56 123.305C143.878 122.6 143.264 121.821 142.525 121.178C141.872 120.642 141.18 120.155 140.456 119.722C137.214 117.644 134.12 115.343 131.196 112.835C128.972 110.927 127.15 108.469 124.774 106.757C123.316 105.707 121.619 104.751 119.837 104.943C117.667 105.171 116.066 106.997 114.554 108.572C109.471 113.869 103.059 117.66 97.387 122.319C92.757 126.117 88.4294 130.629 82.7898 132.633C83.0422 133.473 83.1309 134.313 83.3856 135.144C83.703 136.299 84.0988 137.431 84.5703 138.531C85.0379 139.506 85.5642 140.451 86.1463 141.361L88.4067 145.066C88.8615 145.819 89.3368 146.584 89.9872 147.182C90.3283 147.51 90.9764 147.629 90.9764 148.106Z" fill="black"/>
<path d="M153.231 143.758C153.485 144.118 153.657 144.529 153.736 144.963C153.814 145.397 153.797 145.842 153.686 146.269C154.494 146.855 155.478 147.146 156.474 147.093C157.466 147.038 158.441 146.814 159.358 146.431C160.152 146.139 160.904 145.743 161.595 145.253C162.785 144.372 163.642 143.112 164.336 141.804C164.72 141.085 165.047 140.152 164.552 139.504C164.362 139.282 164.13 139.102 163.869 138.974C162.121 137.972 160.3 137.101 158.423 136.37C157.906 136.131 157.345 136.005 156.777 135.998C156.076 136.036 155.442 136.422 154.887 136.851C153.641 137.825 152.636 139.075 151.951 140.503C151.737 140.96 151.091 142.046 151.41 142.516C151.555 142.733 152.092 142.809 152.319 142.943C152.677 143.148 152.987 143.425 153.231 143.758Z" fill="#FBBEBE"/>
<path d="M163.644 138.358C167.492 139.077 171.03 140.942 174.812 141.948C176.343 142.354 177.919 142.633 179.381 143.231C180.843 143.829 182.221 144.851 182.851 146.308C183.117 147.007 183.294 147.737 183.376 148.481C183.54 149.533 183.674 150.708 183.051 151.571C182.394 152.484 181.152 152.687 180.04 152.819C176.042 153.299 172.045 153.776 168.033 154.114C167.223 154.164 166.416 154.261 165.616 154.403C164.956 154.538 164.313 154.737 163.658 154.892C162.812 155.093 161.948 155.216 161.088 155.348C158.889 155.663 156.665 155.983 154.457 155.739C153.45 155.627 152.322 155.3 151.878 154.388C151.694 153.914 151.617 153.406 151.651 152.899C151.651 151.546 151.628 150.19 151.651 148.837C151.671 147.447 151.74 146.004 152.367 144.765C152.523 144.386 152.817 144.08 153.188 143.909C153.417 143.843 153.656 143.821 153.893 143.845C155.076 143.886 156.299 143.936 157.356 144.466C158.196 144.883 158.8 143.635 159.656 144.009C161.277 144.728 160.179 142.548 161.816 143.226C162.198 142.044 163.822 142.747 163.54 141.535C163.258 140.323 164.27 140.85 164.154 139.604C164.149 139.332 164.096 139.063 163.999 138.81C163.872 138.566 163.913 138.319 163.644 138.358Z" fill="#464353"/>
<path opacity="0.06" d="M48.3854 65.3306C47.503 65.8465 46.4092 65.7506 45.3813 65.7278C44.4824 65.7092 43.5833 65.7557 42.6911 65.867C42.3698 65.8896 42.0557 65.9732 41.7655 66.1135C41.3877 66.3581 41.089 66.7079 40.9059 67.1201C40.542 67.8217 40.2969 68.5791 40.1805 69.3615C40.0532 70.2402 40.0668 71.2011 39.521 71.8973C38.7774 72.8445 37.6176 72.6984 36.5647 72.8856C35.6484 73.0621 34.7701 73.3989 33.97 73.8807C33.1811 74.3589 32.5042 75.0021 31.9853 75.7667C31.4665 76.5312 31.1181 77.399 30.9637 78.311C30.9342 78.5187 30.9137 78.7241 30.9046 78.9318C30.8818 79.5207 30.941 80.121 30.8637 80.6984C30.8449 80.8426 30.8161 80.9852 30.7772 81.1252C30.7672 81.1664 30.7543 81.2068 30.7386 81.2462C30.7045 80.9792 30.6658 80.7167 30.6203 80.4542C29.927 79.7478 29.3264 78.9554 28.8329 78.0964C28.6999 77.9483 28.593 77.7785 28.5168 77.5943C27.78 75.8733 27.2775 74.1318 27.2775 72.2465C27.2773 69.7741 28.0561 67.3649 29.5026 65.3636C30.949 63.3623 32.989 61.8714 35.3307 61.1041C37.6724 60.3367 40.1959 60.3323 42.5402 61.0915C44.8846 61.8506 46.9297 63.3344 48.3831 65.3306H48.3854Z" fill="black"/>
<path d="M49.1335 60.8388C48.5491 59.4807 47.3143 58.5175 46.0453 57.762C43.5439 56.2648 40.6649 55.3244 37.745 55.2856C36.2718 55.286 34.8025 55.4389 33.3606 55.7421C31.9554 55.9942 30.5789 56.3864 29.2513 56.913C27.0609 57.8273 25.1247 59.2623 23.6094 61.0944C23.2911 61.1187 22.9754 61.1698 22.6656 61.2474C21.4285 61.5578 20.3143 62.2402 19.2977 63.014C18.4471 63.6324 17.6916 64.373 17.0555 65.212C16.3111 66.2834 15.7961 67.4981 15.5433 68.7794C14.6768 72.7874 15.7434 76.9232 16.5257 80.9472C17.3079 84.9712 17.765 89.3672 15.8434 92.9826C15.118 94.3521 14.0879 95.5161 13.3147 96.8491C12.5415 98.182 12.0276 99.7866 12.4664 101.266C12.9895 103.064 14.7496 104.205 15.6683 105.824C16.231 106.882 16.4318 108.097 16.24 109.281C16.0481 110.465 15.4742 111.554 14.6063 112.379C16.0504 112.881 17.6581 112.34 18.9589 111.537C19.9902 110.934 20.8677 110.099 21.5218 109.097C23.1568 106.44 22.4314 103.009 22.9999 99.9395C23.7572 95.9224 26.8135 92.3389 26.3928 88.2716C26.1086 85.5327 24.3075 83.2616 22.8908 80.913C21.9458 79.3466 21.1516 77.6935 20.5189 75.976C20.0641 74.7503 19.6957 73.4334 19.9208 72.1461C19.9953 71.753 20.1152 71.3701 20.2779 71.0048C20.2779 71.0482 20.2779 71.0916 20.2779 71.1349C20.3038 72.3172 20.5684 73.4819 21.0556 74.5586C22.7475 78.0279 27.2524 79.3061 29.1604 82.659C29.7175 82.0496 30.2974 81.4105 30.5248 80.6162C30.7249 79.9087 30.6226 79.1555 30.6522 78.4205C30.7318 76.3663 31.9757 74.4308 33.7176 73.3717C34.5171 72.8891 35.3957 72.553 36.3123 72.3789C37.3629 72.1894 38.5227 72.3332 39.2686 71.386C39.8144 70.7013 39.8008 69.7289 39.9304 68.8525C40.0457 68.0692 40.2909 67.3108 40.6558 66.6088C40.8382 66.1968 41.1371 65.8476 41.5154 65.6046C41.8059 65.463 42.121 65.3793 42.4432 65.358C43.3347 65.2466 44.233 65.2001 45.1312 65.2188C46.1704 65.2439 47.2824 65.3375 48.1739 64.8011C49.4292 64.0342 49.718 62.2083 49.1335 60.8388Z" fill="#464353"/>
<path opacity="0.06" d="M176.211 48.2397C176.211 48.2716 176.211 48.3013 176.211 48.3332C175.799 51.8939 172.388 51.7295 171.592 57.3398C171.278 59.5378 167.954 59.9441 165.768 60.5352C164.824 60.2157 163.869 59.9395 162.926 59.5949C160.743 58.8029 162.268 57.6137 163.203 56.3355C166.262 52.1495 166.842 46.4297 170.314 42.5837C171.588 45.0123 173.602 46.9679 176.063 48.1643C176.111 48.1963 176.161 48.2191 176.211 48.2397Z" fill="black"/>
<path d="M176.29 46.1969C176.29 46.7368 176.26 47.2763 176.199 47.8128C175.781 51.5187 173.938 54.9146 171.064 57.2788C168.19 59.643 164.511 60.7891 160.808 60.4736C157.106 60.1581 153.672 58.4058 151.236 55.5892C148.8 52.7725 147.555 49.1136 147.764 45.3899C147.974 41.6661 149.622 38.1712 152.358 35.6479C155.095 33.1245 158.704 31.7716 162.418 31.8767C166.133 31.9818 169.66 33.5366 172.25 36.2106C174.841 38.8847 176.29 42.4672 176.29 46.1969Z" fill="#A1616A"/>
<path d="M182.032 47.7992C183.667 47.7193 185.239 48.3629 186.749 48.9952C192.736 51.5059 198.774 54.0371 204.125 57.7233C206.763 59.5492 209.207 61.6217 211.648 63.701L221.674 72.2511C223.6 73.8922 225.54 75.5492 227.086 77.5578C227.996 78.7966 228.827 80.0926 229.572 81.438L231.059 83.9829C231.668 84.979 232.2 86.0206 232.651 87.0985C233.415 89.0637 233.699 91.3552 235.241 92.7909C236.276 93.7564 237.702 94.149 238.966 94.7858C240.23 95.4226 241.467 96.541 241.447 97.9607C241.447 98.8736 240.897 99.6953 240.483 100.517C239.625 102.234 239.266 104.158 239.446 106.07L223.05 93.4939C222.397 92.994 221.715 92.4782 220.912 92.3093C219.871 92.0811 218.809 92.4759 217.803 92.832C209.88 95.6367 201.459 96.7477 193.082 96.0936C189.378 95.8015 185.616 95.1327 182.373 93.3136C180.579 92.3093 178.992 90.9786 177.416 89.6617C175.449 88.0092 173.475 86.3521 171.731 84.4622C171.276 83.9578 170.803 83.4032 170.687 82.7276C170.601 82.2391 170.708 81.7415 170.748 81.2485C171.035 77.786 168.17 74.9033 167.296 71.5413C166.908 69.956 166.962 68.2941 167.452 66.7374C167.942 65.1808 168.848 63.7892 170.073 62.715C172.026 64.4314 171.956 67.4465 171.729 70.0417C171.422 73.5361 172.395 75.2685 172.088 78.7652C173.325 78.7196 173.1 79.5184 173.627 78.3932C174.155 77.2679 174.257 75.9989 174.357 74.7595C174.723 70.2768 175.166 65.8016 175.688 61.3341C175.947 59.0996 176.243 56.8696 176.527 54.6374C176.7 53.2793 176.677 52.0103 177.391 50.8052C178.382 49.1367 180.068 47.8927 182.032 47.7992Z" fill="#F0E8E8"/>
<path d="M184.172 51.871C185.214 51.5423 186.335 51.8436 187.381 52.1563C189.231 52.7071 191.07 53.2892 192.898 53.9024C194.392 54.4022 195.906 54.9386 197.171 55.8813C198.483 56.8582 199.445 58.2162 200.398 59.5515C201.08 60.5124 201.762 61.4847 202.217 62.5757C202.808 64.0045 202.967 65.5703 203.127 67.1087C203.231 67.7725 203.223 68.4494 203.102 69.1104C202.888 69.8281 202.512 70.4866 202.003 71.0345C201.22 71.9646 200.313 72.7811 199.306 73.4607C196.63 75.2684 193.394 76.0217 190.242 76.6859C187.429 77.277 184.595 77.8271 181.725 78.0051C180.609 78.0759 179.313 78.0051 178.63 77.1195C178.436 76.8434 178.283 76.5405 178.176 76.2202C176.499 71.7627 175.773 67.0016 176.045 62.2448C176.069 61.3777 176.203 60.5173 176.443 59.6838C176.679 59.0169 176.972 58.3716 177.318 57.7552C178.18 56.1187 179.087 54.4251 180.572 53.3295C182.126 52.1883 184.138 51.8276 186.064 51.9007" fill="#A1616A"/>
<path opacity="0.06" d="M194.649 68.7977C193.755 69.4026 193.444 70.5712 193.33 71.6485C192.846 76.2294 194.729 80.7646 194.603 85.3684C194.503 89.0203 193.143 92.5261 191.802 95.9338C189.514 101.747 188.322 108.061 187.861 114.294C187.399 120.527 186.724 127.019 183.39 132.291C182.633 133.485 181.75 134.594 181.009 135.795C180.231 137.05 179.615 138.397 178.928 139.702C176.905 143.558 174.296 147.075 171.196 150.126C170.287 151.016 169.323 151.879 168.163 152.393C167.415 152.718 166.611 152.89 165.796 152.899C164.981 152.907 164.173 152.752 163.419 152.443C161.864 151.797 160.554 150.341 160.49 148.652C160.433 147.141 161.332 145.778 162.232 144.568C165.284 140.47 168.794 136.736 172.693 133.439C173.4 132.841 174.146 132.223 174.512 131.369C174.924 130.385 174.755 129.269 174.808 128.203C174.892 126.503 175.551 124.889 175.945 123.232C177.537 116.501 174.708 109.152 177.009 102.631C177.521 101.181 178.28 99.7957 178.46 98.2688C178.587 97.2006 178.321 96.0069 177.657 95.2057C177.033 94.4856 176.684 93.567 176.67 92.6129C176.67 92.4166 176.67 92.2226 176.695 92.0308C176.973 89.0431 177.248 86.0417 177.098 83.0448C176.948 80.048 176.354 77.0351 174.976 74.3715C174.262 72.9906 173.339 71.6987 172.897 70.2083C172.188 67.7957 172.843 65.1869 173.9 62.9044C174.726 61.1196 175.826 59.4191 177.364 58.1957C180.22 55.9247 184.495 55.6622 187.622 57.5407C189.928 58.9238 191.506 61.2497 192.786 63.6211C193.705 65.3535 194.674 66.8211 194.649 68.7977Z" fill="black"/>
<path d="M195.167 68.7977C194.274 69.4026 193.962 70.5712 193.848 71.6485C193.364 76.2294 195.247 80.7646 195.122 85.3684C195.022 89.0203 193.662 92.5261 192.32 95.9338C190.033 101.747 188.843 108.061 188.379 114.294C187.915 120.527 187.242 127.019 183.908 132.291C183.151 133.485 182.271 134.594 181.528 135.795C180.752 137.05 180.134 138.397 179.447 139.702C177.423 143.558 174.814 147.074 171.715 150.126C170.805 151.016 169.839 151.879 168.679 152.393C167.932 152.718 167.127 152.89 166.312 152.899C165.498 152.907 164.689 152.752 163.935 152.443C162.382 151.797 161.072 150.341 161.009 148.652C160.95 147.141 161.848 145.778 162.751 144.568C165.803 140.47 169.312 136.736 173.211 133.439C173.919 132.841 174.667 132.223 175.031 131.369C175.444 130.385 175.274 129.269 175.326 128.203C175.41 126.503 176.07 124.889 176.463 123.232C178.055 116.501 175.226 109.152 177.527 102.631C178.039 101.181 178.801 99.7957 178.981 98.2688C179.106 97.2006 178.842 96.0069 178.178 95.2057C177.542 94.4905 177.183 93.5709 177.164 92.6129C177.164 92.4166 177.164 92.2226 177.189 92.0308C177.464 89.0431 177.739 86.0417 177.589 83.0448C177.439 80.048 176.845 77.0351 175.467 74.3715C174.753 72.9906 173.83 71.6987 173.389 70.2083C172.679 67.7957 173.334 65.1869 174.392 62.9044C175.219 61.1196 176.318 59.4191 177.855 58.1957C180.711 55.9247 184.986 55.6622 188.113 57.5407C190.419 58.9238 191.997 61.2497 193.278 63.6211C194.219 65.3535 195.183 66.8211 195.167 68.7977Z" fill="#A1616A"/>
<path d="M218.164 128.399L217.969 128.458L218.164 128.399Z" fill="#464353"/>
<path d="M178.335 138.584C178.343 138.507 178.357 138.431 178.376 138.355L178.335 138.584Z" fill="#464353"/>
<path d="M227.091 122.922C227.746 122.161 228.755 121.821 229.726 121.568C231.291 121.162 232.89 120.901 234.502 120.787C235.503 120.679 236.515 120.742 237.495 120.972C238.463 121.239 239.382 121.819 239.873 122.698C240.308 123.474 240.376 124.396 240.433 125.284C240.551 127.11 240.66 128.936 240.36 130.734C240.167 131.876 239.805 132.98 239.571 134.112C238.811 137.824 239.471 141.665 239.403 145.454C239.387 146.262 239.334 147.09 238.996 147.823C238.634 148.601 237.984 149.193 237.349 149.777C236.651 150.409 235.941 151.046 235.1 151.468C233.854 152.096 232.419 152.201 231.025 152.244C230.177 152.269 229.303 152.272 228.523 151.959C227.743 151.646 227.041 150.943 226.984 150.092C226.893 148.647 228.517 147.702 228.981 146.333C229.349 145.242 228.926 144.037 228.339 143.044C227.398 141.461 226.056 140.157 224.448 139.266C223.852 138.938 223.218 138.661 222.722 138.198C222.227 137.735 221.89 137.016 222.101 136.372C222.354 135.594 223.257 135.231 224.069 135.153C224.88 135.076 225.738 135.135 226.468 134.772C227.118 134.45 227.571 133.829 227.882 133.174C228.545 131.776 228.637 130.173 228.139 128.708C227.942 128.15 227.656 127.628 227.293 127.162C226.952 126.724 226.252 126.354 226.008 125.875C225.576 125.012 226.511 123.606 227.091 122.922Z" fill="#F0E8E8"/>
<path opacity="0.06" d="M213.876 89.8442C210.119 86.5119 204.882 85.6057 199.97 84.5946C197.44 84.0757 194.922 83.4975 192.416 82.8599C190.769 82.44 189.118 81.9926 187.413 81.8762C185.707 81.7598 183.952 81.9994 182.492 82.8713C181.032 83.7432 179.931 85.3227 179.922 87.0277C179.922 87.7124 180.083 88.3835 180.033 89.0614C179.954 90.1524 179.351 91.1156 178.94 92.1358C178.31 93.7486 178.214 95.5217 178.664 97.1937C179.392 99.8574 181.489 102.204 181.307 104.954C181.004 109.558 181.098 114.369 182.039 118.877C182.981 123.385 184.156 127.913 184.129 132.526C184.102 137.139 182.71 141.989 179.278 145.061C181.604 147.252 184.447 148.812 187.54 149.592C190.185 150.256 193.33 150.19 195.213 148.211C195.649 147.755 196.011 147.145 195.92 146.518C195.826 146.122 195.661 145.746 195.431 145.411C194.137 143.085 194.294 140.218 194.867 137.621C195.44 135.023 196.42 132.499 196.668 129.847C196.85 127.922 196.646 125.966 197.012 124.067C197.294 122.613 197.903 121.244 198.269 119.808C199.349 115.549 198.215 111.078 197.087 106.835C198.03 109.015 199.816 110.715 201.662 112.194C204.464 114.435 207.852 116.414 211.413 116.017C214.583 115.661 217.283 113.449 219.145 110.854C219.161 107.853 220.198 105.016 220.014 102.021C219.895 100.706 219.661 99.4035 219.313 98.1295C218.966 96.7053 218.608 95.2673 217.949 93.9595C217.078 92.2225 215.327 91.1293 213.876 89.8442Z" fill="black"/>
<path d="M214.654 89.8442C210.897 86.5118 205.662 85.6057 200.748 84.5946C198.218 84.0757 195.7 83.4975 193.196 82.8599C191.549 82.44 189.896 81.9926 188.193 81.8762C186.49 81.7598 184.734 81.9994 183.274 82.8713C181.814 83.7432 180.711 85.3227 180.704 87.0277C180.704 87.7124 180.863 88.3835 180.813 89.0614C180.736 90.1524 180.12 91.1156 179.72 92.1358C179.091 93.7489 178.995 95.522 179.447 97.1937C180.172 99.8574 182.269 102.204 182.089 104.954C181.784 109.558 181.878 114.369 182.819 118.877C183.761 123.385 184.936 127.913 184.909 132.526C184.882 137.139 183.481 141.973 180.047 145.041C182.372 147.231 185.216 148.791 188.309 149.571C190.954 150.236 194.101 150.169 195.981 148.191C196.418 147.734 196.78 147.125 196.689 146.497C196.595 146.101 196.429 145.726 196.2 145.39C194.906 143.064 195.063 140.197 195.636 137.6C196.209 135.003 197.189 132.478 197.439 129.826C197.619 127.902 197.414 125.946 197.783 124.047C198.062 122.593 198.674 121.223 199.038 119.788C200.118 115.529 198.986 111.057 197.855 106.814C198.799 108.994 200.584 110.694 202.433 112.173C205.235 114.415 208.621 116.394 212.182 115.997C215.352 115.641 218.051 113.429 219.914 110.834C219.927 107.832 220.964 104.995 220.78 102.001C220.661 100.685 220.427 99.383 220.08 98.109C219.734 96.6847 219.375 95.2468 218.715 93.939C217.869 92.2225 216.105 91.1293 214.654 89.8442Z" fill="#A1616A"/>
<path d="M188.557 147.442C186.888 146.422 185.448 145.068 184.325 143.464C183.92 142.888 183.556 142.277 183.051 141.788C182.546 141.3 181.862 140.937 181.164 141.01C180.375 141.092 179.742 141.695 179.242 142.316C177.9 143.984 177.036 146.025 175.547 147.565C173.828 149.348 171.428 150.304 169.034 150.916C166.639 151.528 164.167 151.849 161.82 152.623C161.084 152.865 160.308 153.194 159.91 153.862C159.405 154.714 159.683 155.83 160.215 156.674C161.195 158.272 162.882 159.302 164.643 159.913C166.403 160.525 168.265 160.769 170.1 161.13C173.343 161.767 176.666 162.787 179.892 162.068C181.18 161.78 182.394 161.223 183.695 160.981C186.651 160.429 189.701 161.545 192.668 161.098C194.103 160.881 195.458 160.306 196.762 159.658C197.415 159.374 198.009 158.969 198.513 158.464C198.988 157.934 199.274 157.183 199.079 156.499C198.967 156.104 198.71 155.771 198.54 155.399C198.271 154.823 198.217 154.177 198.153 153.545C197.908 151.139 197.491 148.753 196.907 146.406C196.705 145.586 196.402 144.673 195.64 144.315C195.485 144.231 195.303 144.21 195.133 144.258C194.863 144.361 194.774 144.689 194.692 144.965C194.469 145.729 194.041 146.417 193.456 146.953C192.871 147.49 192.15 147.856 191.373 148.011C190.595 148.166 189.79 148.104 189.045 147.832C188.3 147.559 187.643 147.088 187.147 146.467" fill="#F0E8E8"/>
<path opacity="0.06" d="M176.29 46.1969C176.29 46.7368 176.26 47.2763 176.199 47.8128C175.483 47.9206 174.751 47.857 174.063 47.6274C173.376 47.3978 172.752 47.0085 172.243 46.4913C171.763 45.98 171.403 45.3615 170.928 44.8457C170.453 44.3298 169.791 43.9007 169.109 43.9555C168.527 43.9989 168.022 44.3686 167.624 44.7977C167.106 45.3564 166.727 46.0296 166.516 46.7629C166.364 47.281 166.289 47.8699 165.861 48.2146C165.434 48.5592 164.909 48.5364 164.402 48.5181C163.744 48.4953 163.062 48.4633 162.482 48.1529C161.391 47.5618 161.022 46.2083 160.617 45.0305C159.935 43.0516 158.4 39.3084 156.015 38.909C154.878 38.7196 153.495 39.3221 152.604 39.9726C151.26 40.9518 150.268 41.5863 148.531 41.5589C149.626 38.3505 151.82 35.636 154.722 33.8984C157.624 32.1607 161.046 31.5124 164.379 32.0688C167.712 32.6253 170.741 34.3504 172.926 36.9373C175.111 39.5243 176.311 42.8053 176.313 46.1969H176.29Z" fill="black"/>
<path d="M148.51 41.0362C148.1 41.0451 147.692 40.9802 147.305 40.8445C146.202 40.4109 145.665 39.1327 145.572 37.9481C145.427 36.1427 146.027 34.3715 146.63 32.6619C146.757 32.2899 146.909 31.8905 147.241 31.6828C147.51 31.5503 147.804 31.4764 148.103 31.4659C149.736 31.2377 151.153 30.2357 152.358 29.1127C153.563 27.9897 154.65 26.7161 155.997 25.7803C159.567 23.3084 164.865 23.7695 167.954 26.8188C169.177 28.024 170.228 29.6582 171.924 29.9412C172.902 30.1033 173.95 29.7655 174.88 30.1307C175.563 30.3977 176.049 31.0026 176.44 31.6211C177.709 33.6206 178.305 35.9897 178.503 38.3521C178.701 40.7144 178.519 43.0905 178.335 45.4528C178.345 45.8065 178.254 46.1558 178.073 46.4594C177.928 46.6345 177.745 46.7748 177.539 46.8702C176.674 47.298 175.697 47.4418 174.747 47.2812C173.796 47.1206 172.92 46.6638 172.242 45.9755C171.76 45.4665 171.403 44.8479 170.928 44.3298C170.453 43.8117 169.791 43.3872 169.109 43.442C168.529 43.4853 168.02 43.8551 167.624 44.2842C167.106 44.8428 166.727 45.5161 166.516 46.2494C166.366 46.7675 166.289 47.3564 165.861 47.6987C165.434 48.0411 164.909 48.0228 164.399 48.0046C163.744 47.9795 163.062 47.9498 162.482 47.6371C161.388 47.0482 161.02 45.6947 160.617 44.517C159.935 42.5381 158.403 38.7926 156.015 38.3954C154.878 38.2037 153.495 38.8086 152.604 39.4591C151.239 40.4314 150.257 41.0659 148.51 41.0362Z" fill="#464353"/>
<path opacity="0.06" d="M73.2023 126.268C73.0454 127.308 72.0948 128.121 71.424 128.929C69.6002 131.138 67.7513 133.355 65.7115 135.377C63.5284 137.538 61.1315 139.465 58.7369 141.391L55.6305 143.886C55.2473 144.238 54.7982 144.509 54.3093 144.685C53.7366 144.828 53.1315 144.756 52.6083 144.482C52.6538 144.39 52.7015 144.306 52.7538 144.221L56.4788 137.956C57.211 136.728 57.6909 135.61 58.5254 134.457C59.783 132.732 61.0519 130.997 62.6006 129.534C64.5585 127.683 67.0691 126.338 69.3978 125.001C69.7343 123.987 71.1443 123.707 72.0971 124.186C72.4502 124.37 72.7682 124.615 73.0363 124.91C73.207 125.34 73.2641 125.808 73.2023 126.268Z" fill="black"/>
<path d="M56.738 138.214L53.0131 144.482C52.8607 144.735 52.7038 145.023 52.7698 145.31C52.8534 145.551 53.0131 145.759 53.2246 145.901C54.6527 147.068 56.2354 148.298 56.6834 150.09C57.0041 151.368 56.6834 152.737 56.97 154.02C57.4953 156.334 59.8126 157.74 62.0048 158.631C66.9167 160.625 72.37 161.392 77.5889 160.456C82.8079 159.521 87.7609 156.855 91.1401 152.755C92.1771 151.496 93.064 150.117 94.0487 148.816C96.7775 145.221 100.241 142.27 103.677 139.348C108.1 135.587 110.706 129.977 114.593 125.654C115.3 124.866 116.08 124.056 117.094 123.796C117.663 123.652 118.459 123.864 118.481 124.453C118.534 125.594 119.448 126.528 120.073 127.482C122.429 131.097 124.894 134.825 128.535 137.13C130.527 138.394 132.785 139.168 135.036 139.869C140.744 141.654 146.564 143.064 152.376 144.461C152.67 143.872 153.022 143.315 153.427 142.797C154.029 142.055 154.823 141.489 155.428 140.743C156.536 139.399 156.924 137.621 157.279 135.913C153.807 133.779 150.243 131.577 146.818 129.358C145.095 128.244 143.36 127.105 141.963 125.599C141.054 124.608 140.29 123.474 139.378 122.476C138.445 121.509 137.44 120.614 136.371 119.799L128.185 113.219C125.833 111.331 123.436 109.339 121.135 107.385C119.841 106.285 118.406 105.128 116.714 105.075C115.266 105.029 113.933 105.808 112.687 106.556C105.367 110.955 97.9388 115.157 90.4011 119.16C88.8752 119.968 87.3424 120.771 85.887 121.7C83.0553 123.509 80.5411 125.774 78.4463 128.406C78.062 128.888 77.5753 129.436 76.9659 129.363C76.7983 129.338 76.637 129.281 76.4906 129.196C75.5514 128.692 74.976 127.717 74.4439 126.793C73.9118 125.868 73.3182 124.896 72.3654 124.417C71.4126 123.937 70.0049 124.218 69.6661 125.234C67.3261 126.61 64.8246 127.943 62.8644 129.794C61.3157 131.257 60.0468 132.989 58.7892 134.717C57.9501 135.87 57.468 136.988 56.738 138.214Z" fill="#464353"/>
<path opacity="0.06" d="M50.6367 99.9874C50.6367 99.9874 54.3821 101.656 57.0678 103.539L50.6367 99.9874Z" fill="black"/>
<path d="M238.216 103.418C238.284 105.548 238.338 107.682 238.313 109.809C238.3 110.936 238.252 112.112 237.713 113.1C237.329 113.81 236.721 114.365 236.121 114.908L232.376 118.316C231.214 119.372 229.961 120.475 228.412 120.737C226.641 121.039 224.91 120.173 223.207 119.596C221.491 119.016 219.695 118.713 217.885 118.699C216.848 118.699 215.802 118.781 214.779 118.617C214.039 118.475 213.313 118.268 212.609 117.998L209.228 116.821C209.323 115.965 210.138 115.419 210.82 114.878C213.242 112.906 214.304 109.736 215.068 106.702C215.689 104.334 216.131 101.922 216.391 99.4876C216.507 98.2825 216.56 97.0568 216.307 95.8722C216.069 94.9166 215.734 93.9881 215.307 93.1013L214.117 90.4103C213.435 88.8902 212.071 88.2146 210.681 87.3176C212.778 88.1164 215.334 88.4291 216.928 90.0131C217.236 90.3641 217.6 90.6604 218.006 90.8896C218.44 91.0973 218.934 91.1178 219.409 91.1955C221.776 91.5515 223.789 93.0442 225.745 94.4251C228.138 96.1172 230.599 97.7065 233.126 99.1932C234.263 99.8642 235.437 100.524 236.394 101.439C237.351 102.354 238.102 103.573 238.163 104.899" fill="#464353"/>
<path opacity="0.06" d="M34.2861 99.6793C31.3048 100.27 29.7539 103.788 29.929 106.83C30.0973 109.548 31.2094 112.12 33.0718 114.1C34.3157 115.412 35.8666 116.426 36.99 117.843C38.6501 119.934 39.2277 122.698 40.7127 124.919C41.7906 126.53 43.3028 127.795 44.806 129.007C48.2717 131.782 51.8503 134.409 55.5418 136.888C57.0427 137.894 58.6846 138.912 60.4902 138.874C62.1912 138.837 63.7581 137.835 64.8678 136.539C65.9776 135.242 66.6871 133.667 67.4079 132.115C70.0049 126.432 72.6201 120.687 73.8617 114.561C74.2506 112.637 74.5121 110.653 75.3808 108.894C76.063 107.524 77.0727 106.351 77.9733 105.114C80.1008 102.178 81.5941 98.8293 82.3577 95.281C82.8534 92.9666 83.0194 90.4879 82.2053 88.2739C81.3912 86.0599 79.415 84.1404 77.0614 83.9669C75.1989 83.83 73.3705 84.7886 72.1198 86.1832C70.8691 87.5778 70.1323 89.3604 69.6297 91.1658C68.9092 93.7631 68.6324 96.4642 68.811 99.1544C68.9566 101.325 69.3978 103.516 69.0248 105.662C68.761 107.175 68.1038 108.588 67.4534 109.98C65.7729 113.573 64.0651 117.211 61.5249 120.251C60.6972 121.242 59.5579 122.244 58.2912 122.011C56.5402 121.691 56.0763 119.466 55.2121 117.902C54.1524 115.985 52.1421 114.833 50.5662 113.31C48.324 111.142 46.98 108.234 45.3859 105.55C43.7917 102.866 41.7292 100.216 38.7911 99.1863C35.853 98.1569 31.937 99.4785 31.182 102.51" fill="black"/>
<path opacity="0.06" d="M36.5352 101.763C33.5516 102.354 29.7539 102.74 29.9404 105.787C30.1067 108.505 31.2191 111.078 33.0831 113.057C34.3271 114.372 35.878 115.385 37.0014 116.802C38.6614 118.893 39.2391 121.655 40.724 123.878C41.8019 125.492 43.3142 126.756 44.8173 127.966C48.283 130.743 51.8617 133.37 55.5532 135.847C57.0541 136.856 58.696 137.874 60.5016 137.835C62.2026 137.799 63.7694 136.794 64.8792 135.5C65.9889 134.206 66.6984 132.629 67.4193 131.074C70.0163 125.391 72.6315 119.646 73.8731 113.52C74.262 111.598 74.5235 109.613 75.3922 107.855C76.0744 106.486 77.0841 105.312 77.9846 104.073C80.1125 101.139 81.6059 97.7902 82.369 94.2425C82.8648 91.9258 83.0308 89.4494 82.2167 87.2331C81.4026 85.0169 79.4264 83.1019 77.0727 82.9261C75.2103 82.7892 73.3819 83.7501 72.1312 85.1424C70.8804 86.5347 70.1436 88.3196 69.6411 90.1273C68.9205 92.7246 68.6437 95.4257 68.8224 98.1159C68.9679 100.289 69.4091 102.48 69.0362 104.623C68.7724 106.139 68.1152 107.552 67.4648 108.944C65.7843 112.536 64.0764 116.172 61.5363 119.215C60.7085 120.205 59.5692 121.205 58.3026 120.975C56.5515 120.653 56.0876 118.427 55.2235 116.866C54.1638 114.949 52.1535 113.796 50.5776 112.274C48.3353 110.108 46.9914 107.198 45.3972 104.514C43.8031 101.829 41.7405 99.1818 38.8024 98.1501C35.8643 97.1184 39.5438 103.726 38.7865 106.757" fill="black"/>
<path d="M34.2861 99.1567C31.3048 99.7478 29.7539 103.265 29.929 106.308C30.0968 109.026 31.2089 111.599 33.0718 113.579C34.3157 114.892 35.8666 115.905 36.99 117.323C38.6501 119.413 39.2277 122.177 40.7127 124.398C41.7906 126.012 43.3028 127.276 44.806 128.488C48.2717 131.264 51.8503 133.89 55.5418 136.367C57.0427 137.376 58.6846 138.394 60.4902 138.356C62.1912 138.319 63.7581 137.317 64.8678 136.021C65.9776 134.724 66.6871 133.149 67.4079 131.597C70.0049 125.914 72.6201 120.169 73.8617 114.041C74.2506 112.119 74.5121 110.133 75.3808 108.375C76.063 107.006 77.0727 105.833 77.9733 104.593C80.1011 101.659 81.5945 98.3106 82.3577 94.7629C82.8534 92.4462 83.0194 89.9698 82.2053 87.7535C81.3912 85.5373 79.415 83.6223 77.0614 83.4488C75.1989 83.3096 73.3705 84.2705 72.1198 85.6651C70.8691 87.0597 70.1323 88.8423 69.6297 90.6477C68.9092 93.245 68.6324 95.9461 68.811 98.6363C68.9566 100.807 69.3978 102.998 69.0248 105.141C68.761 106.657 68.1038 108.07 67.4534 109.462C65.7729 113.055 64.0651 116.693 61.5249 119.733C60.6972 120.724 59.5579 121.723 58.2912 121.493C56.5402 121.171 56.0763 118.948 55.2121 117.384C54.1524 115.465 52.1421 114.312 50.5662 112.792C48.324 110.624 46.98 107.716 45.3859 105.032C43.7917 102.348 41.7292 99.6999 38.7911 98.6705C35.853 97.6411 31.937 98.9627 31.182 101.994" fill="#FBBEBE"/>
<g opacity="0.06">
<path opacity="0.06" d="M22.8908 80.9244C21.9458 79.3581 21.1516 77.705 20.5189 75.9875L20.4416 75.7592C19.9617 75.2422 19.5581 74.6588 19.2432 74.0269C18.7556 72.9503 18.491 71.7855 18.4654 70.6032C18.4654 70.5598 18.4654 70.5165 18.4654 70.4731C18.3027 70.8383 18.1829 71.2213 18.1084 71.6143C17.881 72.9016 18.2562 74.2163 18.7065 75.4443C19.3396 77.1616 20.1338 78.8147 21.0783 80.3812C22.4905 82.7504 24.2939 85.0329 24.5736 87.7513C24.9943 91.8186 21.9379 95.3998 21.1829 99.4192C20.6053 102.489 21.3376 105.92 19.7025 108.576C19.049 109.578 18.1714 110.413 17.1397 111.014C16.4925 111.428 15.7841 111.736 15.0407 111.927C14.9051 112.088 14.7593 112.241 14.6041 112.384C16.0481 112.886 17.6559 112.345 18.9566 111.541C19.988 110.939 20.8654 110.103 21.5195 109.101C23.1546 106.445 22.4291 103.014 22.9977 99.9441C23.7549 95.927 26.8113 92.3436 26.3906 88.2762C26.1086 85.5418 24.3075 83.2617 22.8908 80.9244Z" fill="black"/>
<path opacity="0.06" d="M49.1335 60.8388C48.5491 59.4808 47.3143 58.5176 46.0453 57.7621C44.4368 56.7933 42.6863 56.0847 40.8582 55.6622C42.0314 56.0733 43.1605 56.6017 44.2284 57.2394C45.4973 57.9972 46.7298 58.9581 47.3188 60.3184C47.9078 61.6788 47.6144 63.5139 46.3501 64.2716C45.4586 64.808 44.3466 64.7122 43.3074 64.6893C42.4092 64.6687 41.5108 64.7145 40.6194 64.8263C40.2975 64.8496 39.9828 64.9332 39.6916 65.0728C39.3121 65.3195 39.0132 65.6727 38.832 66.0885C38.4663 66.7903 38.2204 67.5487 38.1043 68.3321C37.9769 69.2086 37.9883 70.1695 37.4425 70.8656C36.7012 71.8129 35.5414 71.6691 34.4862 71.8562C33.5699 72.0327 32.6916 72.3696 31.8915 72.8514C30.1496 73.9082 28.9057 75.8391 28.8261 77.9002C28.7988 78.6351 28.8989 79.386 28.701 80.0936C28.5734 80.5064 28.3731 80.8929 28.1098 81.2348C28.5127 81.6672 28.8652 82.1442 29.1604 82.6568C29.7175 82.0474 30.2974 81.4083 30.5248 80.614C30.7249 79.9064 30.6226 79.1532 30.6522 78.4183C30.7318 76.3641 31.9757 74.4286 33.7176 73.3695C34.5171 72.8869 35.3956 72.5507 36.3123 72.3766C37.3629 72.1872 38.5227 72.331 39.2686 71.3838C39.8144 70.699 39.8007 69.7267 39.9304 68.8502C40.0456 68.0669 40.2908 67.3086 40.6558 66.6066C40.8382 66.1946 41.1371 65.8454 41.5154 65.6023C41.8059 65.4608 42.121 65.3771 42.4432 65.3558C43.3347 65.2444 44.233 65.1979 45.1312 65.2166C46.1704 65.2417 47.2824 65.3353 48.1739 64.7989C49.4291 64.0343 49.718 62.2083 49.1335 60.8388Z" fill="black"/>
</g>
<path opacity="0.06" d="M34.2429 82.6476C34.2429 82.6476 36.9286 84.9667 42.0293 83.5606C42.0293 83.5561 38.8706 84.8046 34.2429 82.6476Z" fill="black"/>
<path opacity="0.06" d="M178.285 43.5264C178.29 43.8788 178.195 44.2255 178.012 44.5261C177.866 44.7005 177.684 44.8401 177.477 44.9347C176.613 45.3629 175.637 45.5071 174.687 45.3469C173.736 45.1868 172.861 44.7302 172.183 44.0422C171.701 43.5309 171.344 42.901 170.869 42.3966C170.394 41.8921 169.732 41.4516 169.05 41.5064C168.47 41.5521 167.963 41.9218 167.565 42.3486C167.049 42.9091 166.67 43.5818 166.457 44.3138C166.309 44.8342 166.23 45.4208 165.805 45.7655C165.379 46.1101 164.852 46.0873 164.342 46.069C163.685 46.0462 163.003 46.0165 162.425 45.7038C161.332 45.115 160.963 43.7592 160.558 42.5837C159.876 40.6026 158.343 36.8593 155.958 36.4599C154.821 36.2705 153.436 36.8753 152.547 37.5235C151.203 38.5027 150.211 39.1372 148.472 39.1212C148.062 39.1291 147.654 39.0642 147.266 38.9295C146.266 38.5347 145.731 37.4436 145.57 36.3618C145.508 36.8576 145.495 37.3584 145.531 37.8568C145.627 39.0391 146.163 40.3172 147.266 40.7532C147.654 40.8879 148.062 40.9528 148.472 40.9449C150.211 40.9723 151.201 40.3378 152.547 39.3586C153.441 38.7104 154.821 38.1033 155.958 38.295C158.334 38.683 159.881 42.4262 160.549 44.4051C160.954 45.5829 161.322 46.9386 162.416 47.5275C162.994 47.8379 163.676 47.8699 164.333 47.8927C164.843 47.911 165.402 47.9133 165.796 47.5891C166.189 47.265 166.3 46.6556 166.448 46.1375C166.661 45.4052 167.04 44.7325 167.556 44.1723C167.954 43.7455 168.465 43.3757 169.041 43.3301C169.741 43.2753 170.405 43.7021 170.86 44.2202C171.315 44.7384 171.692 45.3615 172.174 45.8659C172.851 46.5539 173.727 47.0104 174.678 47.1706C175.628 47.3308 176.604 47.1866 177.468 46.7583C177.674 46.663 177.857 46.5236 178.003 46.3498C178.187 46.0485 178.281 45.701 178.276 45.3478C178.454 43.4253 178.529 41.4946 178.503 39.564C178.485 40.8856 178.387 42.2071 178.285 43.5264Z" fill="black"/>
<path d="M20.4234 140.896C20.4234 140.896 20.785 140.492 20.105 140.332V139.668H20.5144C20.5135 138.865 20.2382 138.088 19.7344 137.464C19.2307 136.841 18.529 136.41 17.7468 136.244V135.439H17.8537V134.391H15.2226V135.439H15.2977V136.253C14.5228 136.428 13.8303 136.862 13.3342 137.484C12.8381 138.107 12.5682 138.88 12.5688 139.677H12.9304V140.314C12.9304 140.314 12.0685 140.722 12.9304 141.455C13.7922 142.188 13.6581 142.717 13.6581 142.717C13.6581 142.717 13.2965 144.087 12.5711 144.265V156.962C12.5708 157.333 12.6432 157.7 12.7844 158.042C12.9255 158.385 13.1325 158.696 13.3935 158.958C13.6545 159.221 13.9645 159.429 14.3056 159.57C14.6468 159.712 15.0125 159.785 15.3818 159.785H17.6036C18.3496 159.785 19.0651 159.488 19.5927 158.959C20.1202 158.429 20.4166 157.711 20.4166 156.962V144.265C20.4166 144.265 19.1454 143.308 19.3728 142.717C19.6779 142.085 20.029 141.476 20.4234 140.896Z" fill="#464353"/>
</g>
<defs>
<linearGradient id="paint0_linear_12_220" x1="126.213" y1="162.025" x2="126.213" y2="22.5894" gradientUnits="userSpaceOnUse">
<stop stop-color="#808080" stop-opacity="0.25"/>
<stop offset="0.54" stop-color="#808080" stop-opacity="0.12"/>
<stop offset="1" stop-color="#808080" stop-opacity="0.1"/>
</linearGradient>
<clipPath id="clip0_12_220">
<rect width="262" height="176" fill="white"/>
</clipPath>
</defs>
</svg>
