<svg width="82" height="213" viewBox="0 0 82 213" fill="none" xmlns="http://www.w3.org/2000/svg">
<path d="M52.1305 22.8332C52.1305 22.8332 46.2073 20.7178 42.3996 29.1794C38.5919 37.641 32.6688 46.9488 32.6688 46.9488L36.0534 47.7949C36.0534 47.7949 36.8996 41.8718 39.015 41.0257L38.1688 48.6411C38.1688 48.6411 63.5536 57.5258 74.9768 47.7949L74.5537 44.8334C74.5537 44.8334 76.2461 45.2565 76.2461 47.7949L77.5153 46.5257C77.5153 46.5257 76.2461 43.9872 72.4383 40.6026C69.9391 38.381 69.0803 34.1546 68.7851 31.5122C68.564 29.3057 67.6812 27.2176 66.2525 25.5216C63.7221 22.589 59.1113 19.4721 52.1305 22.8332Z" fill="#2F2E41"/>
<path d="M45.8827 56.0093L39.7479 48.3408L35.1468 32.6203L52.7843 13.8325C52.7843 13.8325 56.6186 -0.737609 53.1678 0.0292422C49.717 0.796093 48.9501 11.532 48.9501 11.532L26.7115 28.7861C26.7115 28.7861 29.012 52.9419 35.5302 61.3772L40.5148 77.0976L45.8827 56.0093Z" fill="#FFB9B9"/>
<path d="M62.7534 56.0093L68.8882 48.3408L73.4893 32.6203L55.8518 13.8325C55.8518 13.8325 52.0175 -0.737609 55.4684 0.0292422C58.9192 0.796093 59.686 11.532 59.686 11.532L81.9247 28.7861C81.9247 28.7861 79.6241 52.9419 73.1059 61.3772L68.1214 77.0976L62.7534 56.0093Z" fill="#FFB9B9"/>
<path d="M54.3181 49.4903C59.8238 49.4903 64.2871 45.027 64.2871 39.5213C64.2871 34.0155 59.8238 29.5522 54.3181 29.5522C48.8123 29.5522 44.349 34.0155 44.349 39.5213C44.349 45.027 48.8123 49.4903 54.3181 49.4903Z" fill="#FFB9B9"/>
<path d="M49.7169 44.8901C49.7169 44.8901 50.1004 52.9421 47.7998 55.626C45.4993 58.31 43.1987 72.1133 54.318 72.4967C65.4373 72.8801 64.2871 60.994 64.2871 60.994L61.9865 54.4757C61.9865 54.4757 58.5357 49.4912 59.686 44.8901H49.7169Z" fill="#FFB9B9"/>
<path d="M39.3644 134.228L47.6081 136.72C47.6081 136.72 54.318 132.694 54.318 136.528C54.318 140.362 52.0174 145.347 52.7843 148.798C53.5511 152.249 55.0848 160.684 52.7843 160.684C50.4837 160.684 45.8826 145.73 45.8826 145.73L38.2141 141.513L39.3644 134.228Z" fill="#FFB9B9"/>
<path d="M49.717 187.908L46.6496 199.794C46.6496 199.794 43.9656 203.245 46.6496 204.778C47.909 205.498 48.8307 206.978 49.4544 208.345C49.998 209.577 50.9075 210.612 52.0596 211.309C53.2116 212.006 54.5503 212.331 55.8937 212.241C57.2024 212.132 58.3048 211.615 58.573 210.27C58.6472 209.849 58.6327 209.416 58.5305 209C58.4283 208.584 58.2406 208.194 57.9793 207.854C55.1509 204.032 54.5098 201.519 54.5098 201.519L55.6601 188.099L49.717 187.908Z" fill="#FFB9B9"/>
<path d="M42.2925 41.2922C42.2925 41.2922 45.6771 36.6383 48.6387 35.7922C51.6002 34.946 52.0233 30.7152 52.0233 30.7152C52.0233 30.7152 59.6388 39.1768 64.2927 39.5999C68.9465 40.023 64.7157 29.446 64.7157 29.446L56.2541 27.3306L48.2156 28.1767L41.8694 32.4075L42.2925 41.2922Z" fill="#2F2E41"/>
<path d="M35.9137 105.088L34.38 108.155C34.38 108.155 -2.81223 120.041 0.255164 131.161C3.32256 142.28 20.5767 139.212 20.5767 139.212L39.7479 142.663L41.665 134.228L28.2452 130.777L51.2507 122.342L52.0175 161.451L48.9501 189.441L56.6186 190.208C56.6186 190.208 65.054 164.518 63.9037 153.783C63.9037 153.783 78.0904 110.072 70.0385 103.554C61.9866 97.0357 35.9137 105.088 35.9137 105.088Z" fill="#2F2E41"/>
<path d="M54.7676 60.9992L48.7847 53.7686L44.7324 55.6259L40.5147 69.0458C40.5147 69.0458 37.0639 75.564 41.2816 82.4657C41.2816 82.4657 42.0484 87.0668 40.8982 88.217C39.7479 89.3673 39.3645 96.6524 39.3645 96.6524L34.38 106.238C34.38 106.238 62.7534 111.223 71.1887 104.321C71.1887 104.321 66.7624 88.0018 69.4463 83.0173C72.1303 78.0327 72.5137 70.3914 69.4463 66.9406C66.3789 63.4897 63.1368 54.4757 63.1368 54.4757L61.2799 53.2881L54.7676 60.9992Z" fill="#CFCCE0"/>
</svg>
