<svg width="566" height="435" viewBox="0 0 566 435" fill="none" xmlns="http://www.w3.org/2000/svg">
<g clip-path="url(#clip0_50_53)">
<path opacity="0.1" d="M335.884 71.8418C300.751 70.3973 267.29 56.9791 235.339 42.2955C203.387 27.612 171.718 11.3429 137.443 3.56125C115.387 -1.44005 90.1665 -2.14599 72.3776 11.8425C55.2781 25.3096 49.752 48.5513 46.7826 70.1204C44.5461 86.3461 43.2325 103.424 49.3557 118.613C53.6061 129.159 61.1571 138.026 66.3792 148.127C84.5481 183.277 71.7045 226.616 52.0211 260.941C42.7928 277.036 32.0716 292.399 24.9441 309.537C17.8166 326.675 14.5216 346.311 20.7588 363.791C26.9364 381.119 41.6636 394.135 57.6177 403.291C90.0199 421.884 128.187 427.184 165.431 430.22C247.846 436.888 330.705 434.021 413.342 431.11C443.92 430.024 474.639 428.938 504.724 423.356C521.432 420.249 538.678 415.319 550.805 403.41C566.206 388.298 570.022 362.683 559.702 343.753C542.397 311.964 494.562 304.068 482.451 269.95C475.796 251.172 482.63 230.254 492.309 212.839C513.062 175.479 547.858 142.702 549.687 99.9979C550.946 70.6743 534.222 41.2964 508.361 27.422C481.257 12.8742 443.665 14.7042 423.677 38.7821C403.093 63.5769 366.907 73.1179 335.884 71.8418Z" fill="#F0E8E8"/>
<path d="M231.691 142.311L202.768 146.845L187.948 148.257L183.997 148.637C183.997 148.637 176.94 149.756 176.25 148.637C175.561 147.518 161.963 148.637 161.963 148.637C161.963 148.637 153.701 138.786 134.072 143.989C132.09 145.163 129.857 145.848 127.557 145.987C127.555 145.947 127.555 145.907 127.557 145.868C127.628 143.603 127.346 135.794 120.457 131.521C118.498 131.723 116.597 132.306 114.86 133.237L114.703 133.324L114.236 133.595L114.176 133.66C114.379 132.766 114.517 131.859 114.589 130.945C114.589 130.603 114.589 130.261 114.627 129.919C115.417 129.7 116.109 129.217 116.587 128.55C116.783 128.155 116.867 127.714 116.831 127.274C116.831 127.117 116.831 126.954 116.831 126.796C116.828 126.762 116.828 126.728 116.831 126.693C116.831 126.693 116.831 126.693 116.831 126.726C116.717 125.117 116.481 123.52 116.125 121.947L118.253 123.359C118.763 123.696 119.404 124.054 120.012 123.864C120.207 123.794 120.384 123.68 120.527 123.53C120.67 123.38 120.776 123.199 120.837 123.001C121.217 121.969 120.94 120.736 121.744 119.884C121.934 119.683 122.172 119.52 122.335 119.308C122.557 119.018 122.663 118.656 122.634 118.293C122.636 118.082 122.619 117.871 122.585 117.663V117.706C122.444 117.174 122.422 116.618 122.52 116.077C122.804 116.188 123.115 116.204 123.409 116.122C123.702 116.041 123.962 115.867 124.148 115.626C124.44 115.168 124.584 114.632 124.561 114.089C124.61 113.172 124.648 112.232 124.626 111.298C124.629 111.28 124.629 111.262 124.626 111.244C124.572 109.034 124.154 106.856 122.634 105.091C123.03 102.561 120.278 99.8024 117.205 99.4548C116.451 99.3734 115.523 99.3299 115.186 98.7597C115.072 98.4887 115.022 98.1952 115.039 97.9017C114.964 96.9406 114.301 96.088 113.666 95.2789C113.408 94.9255 113.097 94.6141 112.743 94.3558C111.734 93.7041 110.3 93.8779 109.052 94.1005C106.765 94.5024 104.492 94.9513 102.234 95.4473C101.963 94.3539 101.98 93.2088 102.283 92.1239C102.493 91.5811 102.621 91.0101 102.663 90.4297C102.673 90.2466 102.653 90.0631 102.603 89.8866V89.9572C102.572 89.8667 102.535 89.7779 102.494 89.6911C102.386 89.4926 102.23 89.3242 102.041 89.2009C101.851 89.0777 101.634 89.0036 101.409 88.9852C101.114 88.9755 100.823 89.0513 100.571 89.2036C100.318 89.3559 100.115 89.578 99.9865 89.8432C98.6948 91.7247 97.799 93.8494 97.3537 96.088C96.4923 95.4869 95.4945 95.1105 94.4508 94.9929C93.4071 94.8753 92.3505 95.0203 91.3771 95.4147C90.8867 95.6789 90.357 95.8623 89.8082 95.9577C89.3516 95.959 88.9025 95.8409 88.5054 95.6152C88.1084 95.3894 87.7772 95.0639 87.5446 94.6707C86.9203 93.7421 86.6435 92.6344 85.4384 92.0207C85.1695 91.883 84.8718 91.8112 84.5698 91.8112C84.2678 91.8112 83.9701 91.883 83.7013 92.0207C83.5604 92.0947 83.4359 92.1962 83.3352 92.3194C83.2344 92.4426 83.1596 92.5848 83.115 92.7375C83.1177 92.7105 83.1177 92.6832 83.115 92.6561C83.1067 92.7355 83.1067 92.8156 83.115 92.895C83.115 92.9276 83.115 92.9602 83.115 92.9928C83.115 93.0253 83.115 93.0742 83.115 93.1122C83.0716 94.1603 83.8044 95.5179 82.9739 96.3433C82.6403 96.6219 82.2519 96.8273 81.8339 96.946L78.8808 98.0049C77.304 98.66 75.6363 99.0702 73.9356 99.2213C72.3885 99.2756 70.8251 98.9335 69.2997 98.9715C69.228 98.935 69.159 98.8933 69.0934 98.8466C68.7528 98.8647 68.4138 98.9046 68.0783 98.9661C68.1116 99.0084 68.1479 99.0484 68.1869 99.0856H68.0783C68.8559 99.9502 69.8816 100.553 71.0151 100.812C71.7153 100.986 72.4536 101.04 73.1322 101.258C73.8107 101.475 74.4567 101.909 74.5761 102.507C74.5886 103.007 74.4687 103.501 74.2287 103.94L74.2016 103.897C74.1306 104.09 74.0956 104.294 74.0984 104.5C74.0852 104.597 74.0852 104.695 74.0984 104.793C74.2173 105.135 74.4562 105.422 74.7708 105.6C75.0853 105.779 75.454 105.838 75.8084 105.765L72.3179 107.964C72.0578 108.12 71.8141 108.302 71.5905 108.507L71.4928 108.48C71.3935 108.577 71.3153 108.694 71.263 108.823C71.2107 108.952 71.1854 109.09 71.1888 109.229C71.1776 109.336 71.1906 109.444 71.2268 109.544L72.3505 109.865L69.2834 114.111C69.0965 114.358 68.9329 114.621 68.7949 114.899L68.7623 114.844C68.6926 115.017 68.6557 115.201 68.6537 115.387C68.6429 115.479 68.6429 115.572 68.6537 115.664C68.6799 115.817 68.7384 115.962 68.8254 116.09C68.9123 116.219 69.0256 116.327 69.1578 116.407C69.2899 116.488 69.4378 116.54 69.5915 116.559C69.7451 116.577 69.9011 116.563 70.0488 116.517C69.3767 117.191 68.8356 117.985 68.4529 118.857L68.404 118.825L68.3552 118.939C68.2786 119.109 68.2398 119.295 68.2412 119.482C68.2184 119.625 68.2472 119.771 68.3226 119.894C68.4604 120.039 68.6309 120.149 68.8198 120.214C69.0087 120.279 69.2105 120.298 69.4083 120.269C71.0368 120.269 72.5513 119.156 72.8064 117.826C73.3059 118.369 72.7685 119.015 72.2962 119.574C70.3745 121.822 68.4203 124.108 67.4106 126.731C67.0557 127.631 66.8397 128.579 66.7701 129.544C66.7701 129.544 66.7701 129.501 66.7701 129.479C66.7701 129.55 66.7701 129.62 66.7701 129.691C66.634 131.492 67.2023 133.275 68.3552 134.665C68.782 135.098 69.164 135.572 69.4951 136.082C70.1031 137.212 69.7557 138.662 70.7002 139.617C71.4624 137.585 72.3845 135.617 73.4579 133.731C73.4409 134.241 73.3644 134.748 73.2299 135.24V135.197C73.2299 135.327 73.1864 135.452 73.1756 135.577C73.1702 135.669 73.1702 135.762 73.1756 135.854C73.1504 136.181 73.2298 136.508 73.4026 136.788C73.5753 137.067 73.8323 137.284 74.1364 137.407C75.0972 137.749 76.0906 137.054 76.7421 136.359C76.8343 136.598 76.9266 136.832 77.0298 137.065C79.0503 141.561 82.7017 145.123 87.246 147.03L87.3329 147.209C83.6687 149.381 75.1515 154.665 74.5978 156.69C73.8867 159.275 74.1418 166.074 79.2445 167.453C80.3488 167.754 81.4945 167.875 82.6373 167.811C82.4202 168.153 82.2085 168.501 82.0022 168.838C80.5908 171.129 79.4074 173.253 79.0491 174.393C78.0177 177.722 68.3769 181.751 68.3769 181.751C68.3769 181.751 59.5937 188.81 57.7046 202.386C57.7046 202.386 48.4057 214.474 43.2433 216.994C38.0809 219.513 29.1295 234.957 29.1295 234.957C29.1295 234.957 20.2649 241.18 18.3812 247.246C16.4975 253.311 11.8671 254.805 11.8671 254.805C11.8671 254.805 12.2905 255.011 12.9528 255.424C12.7411 255.538 12.5185 255.668 12.2688 255.82C8.05635 258.329 -1.24252 265.198 0.814853 275.912C2.81251 286.23 14.4727 276.189 20.14 270.574L20.6503 270.064C20.5636 270.642 20.444 271.215 20.292 271.78C21.518 269.866 23.0386 268.158 24.7976 266.719C26.6905 265.189 28.2451 263.282 29.3629 261.12C30.2206 259.491 31.5939 257.862 33.7056 257.319C38.3523 256.146 61.9333 238.014 67.1066 228.609C72.2799 219.204 83.115 215.576 83.115 215.576L88.0874 231.134C88.8459 233.513 88.9787 236.047 88.4728 238.492C87.3872 243.792 86.0246 254.034 89.3143 262C89.3143 262 89.4663 261.859 89.7431 261.625C90.1937 263.645 90.7691 266.301 91.2902 268.913C91.415 269.553 91.5345 270.194 91.6485 270.824C91.9796 272.6 92.2565 274.267 92.4139 275.597C93.1033 281.31 94.9978 294.408 96.5449 295.749C98.092 297.09 106.859 324.291 106.859 324.291C106.859 324.291 114.605 342.091 113.406 349.981C113.296 350.948 113.313 351.924 113.454 352.887C113.721 354.849 114.117 356.792 114.638 358.703C114.79 359.278 114.942 359.865 115.116 360.462C115.257 360.978 115.409 361.505 115.561 362.031C119.312 374.765 126.488 391.789 126.488 391.789C126.488 391.789 127.085 393.337 127.861 395.406C128.117 396.101 128.404 396.856 128.681 397.632C129.957 401.108 131.303 405.007 131.303 405.892C131.303 406.093 131.574 406.315 132.047 406.543C130.817 408.588 129.729 410.715 128.79 412.908C127.281 416.47 122.938 420 122.938 420C122.938 420 117.77 421.466 117.77 425.973V429.416C117.77 429.416 128.746 429.204 132.362 430.214C135.977 431.224 140.797 429.497 140.797 429.497L141.829 428.161C141.829 428.161 154.352 428.704 155.128 425.593C155.356 424.681 155.345 422.737 155.161 420.418C154.924 417.59 154.507 414.781 153.912 412.006C154.737 411.974 155.302 411.919 155.302 411.919C155.302 411.919 161.029 415.612 161.626 419.267C161.809 420.341 162.223 421.362 162.84 422.261C163.457 423.159 164.261 423.912 165.198 424.469C165.198 424.469 171.142 427.184 182.542 425.94C188.513 425.305 189.637 422.264 189.088 419.56C188.589 417.084 186.678 414.89 185.772 415.069C183.883 415.449 176.261 404.491 176.261 404.491L172.391 396.345C172.738 392.001 171.718 389.943 170.284 389.069C171.267 379.908 171.397 367.63 171.397 367.63C171.397 367.63 172.26 352.854 171.397 339.588C170.534 326.322 170.534 300.3 167.597 291.568C166.24 287.506 164.275 276.129 162.571 265.128C162.44 264.302 162.31 263.499 162.191 262.668C161.778 259.991 161.393 257.373 161.034 254.919C161.203 254.837 161.376 254.756 161.528 254.669L160.606 246.61L160.475 245.497C160.508 245.53 160.551 245.551 160.584 245.579C163.683 248.43 159.552 232.649 159.552 232.649C159.552 232.649 157.691 214.501 157.815 204.064C157.827 200.351 157.63 196.639 157.224 192.948C156.909 189.842 157.642 185.807 162.332 182.967C163.564 182.189 164.72 181.297 165.784 180.301C167.093 179.112 169.948 177.586 176.098 177.407C186.412 177.075 196.726 171.699 196.726 171.699C196.726 171.699 208.609 172.373 214.097 165.319C219.585 158.265 233.379 156.592 233.379 156.592L231.691 142.311ZM19.0055 261.446L17.4801 259.306C18.0467 259.976 18.557 260.692 19.0055 261.446ZM148.837 348.792C148.75 349.878 148.685 351.154 148.674 352.593C148.63 357.09 149.076 363.085 151.1 368.814L150.237 391.377H150.167C149.439 391.301 148.761 393.603 148.234 396.639C147.804 395.386 147.27 394.17 146.638 393.006C145.607 391.496 146.47 383.106 146.47 383.106C146.47 383.106 142.16 376.221 141.823 374.706C141.487 373.191 136.308 348.678 136.308 348.678C136.308 348.678 135.966 329.542 134.072 324.676C132.177 319.811 131.661 298.649 131.661 298.649C131.661 298.649 141.128 313.924 141.823 321.652L149.222 345.328C149.222 345.328 148.994 346.62 148.837 348.792Z" fill="url(#paint0_linear_50_53)"/>
<path d="M169.546 366.93C169.546 366.93 169.264 393.793 166.436 397.448C163.608 401.103 148.815 397.616 148.815 397.616L149.901 368.092C147.941 362.423 147.507 356.482 147.556 352.029C147.556 350.606 147.626 349.314 147.708 348.266C147.865 346.094 148.082 344.812 148.082 344.812L140.933 321.364C140.265 313.707 131.124 298.557 131.124 298.557C131.124 298.557 131.623 319.512 133.453 324.335C135.282 329.157 135.624 348.114 135.624 348.114C135.624 348.114 140.613 372.398 140.944 373.897C141.275 375.396 145.433 382.211 145.433 382.211C145.433 382.211 144.603 390.524 145.601 392.023C146.6 393.522 150.753 405.165 149.754 407.326C148.755 409.487 130.804 406.489 130.804 404.828C130.804 403.954 129.501 400.087 128.269 396.644L127.476 394.44C126.727 392.392 126.146 390.861 126.146 390.861C126.146 390.861 119.219 373.995 115.599 361.38C115.447 360.837 115.306 360.337 115.164 359.832C115.002 359.235 114.85 358.654 114.708 358.084C114.206 356.191 113.824 354.269 113.563 352.328C113.427 351.374 113.41 350.407 113.514 349.45C114.676 341.63 107.195 324.003 107.195 324.003C107.195 324.003 98.7163 297.058 97.218 295.728C95.7198 294.397 93.8904 281.43 93.2281 275.771C93.0761 274.446 92.8102 272.796 92.4899 271.042C92.3813 270.417 92.2619 269.782 92.1425 269.141C91.1273 263.901 89.8788 258.476 89.8788 258.476L108.525 246.165L157.571 240.844C157.571 240.844 158.939 251.357 160.66 262.945C160.779 263.749 160.904 264.574 161.029 265.383C162.658 276.276 164.574 287.55 165.882 291.568C168.705 300.219 168.705 325.996 169.541 339.132C170.377 352.268 169.546 366.93 169.546 366.93Z" fill="#63667E"/>
<path opacity="0.1" d="M121.304 256.206L127.476 287.729H130.407L124.545 255.109L121.304 256.206Z" fill="black"/>
<path opacity="0.1" d="M92.5116 271.047C92.403 270.423 92.2836 269.787 92.1642 269.146C95.0358 268.56 101.534 266.165 100.524 256.564H102.516C102.516 256.564 104.405 269.212 92.5116 271.047Z" fill="black"/>
<path opacity="0.1" d="M161.051 265.405C157.327 266.089 145.688 268.093 143.251 266.768C140.347 265.188 137.475 256.624 137.475 256.624L140.135 256.206C140.135 256.206 137.79 268.766 160.682 262.967C160.801 263.77 160.926 264.585 161.051 265.405Z" fill="black"/>
<path d="M160.046 255.044C156.692 256.993 148.815 257.933 139.647 258.302C138.811 258.335 137.969 258.367 137.111 258.389C122.248 258.856 104.894 258.014 97.978 257.618C96.0292 257.509 94.9109 257.433 94.9109 257.433L100.98 253.236L110.957 249.575L131.944 245.459L158.836 244.71L159.107 247.018L160.046 255.044Z" fill="#33363D"/>
<path d="M139.647 258.323C138.811 258.356 137.969 258.389 137.111 258.41C136.058 253.947 132.736 246.811 132.736 246.811L135.559 246.437L139.647 258.323Z" fill="#63667E"/>
<path d="M26.4152 267.582C26.4152 267.582 25.2427 268.94 23.4405 270.775C17.9686 276.341 6.70468 286.284 4.78303 276.065C2.7908 265.47 11.7748 258.688 15.8407 256.179C16.9915 255.467 17.7461 255.093 17.7461 255.093L26.4152 267.582Z" fill="#FFA2A2"/>
<path d="M127.167 147.899C127.167 147.899 120.81 143.907 119.627 144.282C118.443 144.657 119.627 150.011 119.627 150.011C118.093 152.937 115.669 155.299 112.705 156.755C109.307 158.532 106.017 160.509 102.853 162.674C100.403 162.435 97.9298 162.711 95.5926 163.485C93.2555 164.258 91.1059 165.512 89.2817 167.165C88.0063 168.023 86.5633 168.6 85.0483 168.859C83.5332 169.117 81.9806 169.051 80.4931 168.664C75.5641 167.296 75.3198 160.562 76.0038 158.004C76.5466 155.995 84.7652 150.782 88.3046 148.61C89.2817 148.013 89.9005 147.649 89.9005 147.649C89.9005 147.649 105.871 147.106 109.475 140.291C110.584 138.184 112.238 136.414 114.263 135.165L114.356 135.116L114.812 134.844L114.958 134.763C116.636 133.838 118.481 133.258 120.386 133.058C128.187 138.043 127.167 147.899 127.167 147.899Z" fill="#CED7E7"/>
<path opacity="0.1" d="M127.167 147.899C127.167 147.899 120.81 143.907 119.627 144.282C118.443 144.657 119.627 150.011 119.627 150.011C118.093 152.937 115.669 155.299 112.705 156.755C109.307 158.532 106.017 160.509 102.853 162.674C100.403 162.435 97.9298 162.711 95.5926 163.485C93.2555 164.258 91.1059 165.512 89.2817 167.165C88.0063 168.023 86.5633 168.6 85.0483 168.859C83.5332 169.117 81.9806 169.051 80.4931 168.664C75.5641 167.296 75.3198 160.562 76.0038 158.004C76.5466 155.995 84.7652 150.782 88.3046 148.61C89.2817 148.013 89.9005 147.649 89.9005 147.649C89.9005 147.649 105.871 147.106 109.475 140.291C110.584 138.184 112.238 136.414 114.263 135.165L114.356 135.116L114.812 134.844L114.958 134.763C116.636 133.838 118.481 133.258 120.386 133.058C128.187 138.043 127.167 147.899 127.167 147.899Z" fill="black"/>
<path opacity="0.1" d="M159.107 247.039C156.116 244.21 137.497 249.364 137.497 249.364C137.497 249.364 124.675 253.045 114.893 253.643C113.561 253.731 112.226 253.748 110.892 253.692C106.783 253.48 102.5 255.141 98.9063 257.134L97.9997 257.677C96.0509 257.569 94.9327 257.493 94.9327 257.493L101.002 253.295L110.979 249.635L131.965 245.519L158.858 244.77L159.107 247.039Z" fill="black"/>
<path opacity="0.1" d="M23.4405 270.775C24.6836 262.489 18.2563 257.672 15.8407 256.179C16.9915 255.467 17.7461 255.093 17.7461 255.093L26.4315 267.582C26.4315 267.582 25.2427 268.94 23.4405 270.775Z" fill="black"/>
<path d="M229.416 157.879C229.416 157.879 216.111 159.508 210.797 166.524C205.482 173.54 194.001 172.845 194.001 172.845C194.001 172.845 184.024 178.167 174.052 178.498C168.129 178.694 165.366 180.181 164.107 181.36C163.083 182.346 161.967 183.231 160.774 184.004C156.247 186.817 155.535 190.809 155.845 193.887C156.233 197.545 156.423 201.222 156.415 204.9C156.295 215.218 158.092 233.214 158.092 233.214C158.092 233.214 162.082 248.848 159.086 246.024C156.089 243.2 137.475 248.348 137.475 248.348C137.475 248.348 124.653 252.03 114.871 252.632C113.539 252.719 112.204 252.734 110.87 252.676C106.761 252.464 102.478 254.126 98.8846 256.124C95.7923 257.869 92.8999 259.947 90.2588 262.32C87.0778 254.43 88.4023 244.281 89.4445 239.035C89.9315 236.613 89.8046 234.108 89.0754 231.748L84.2713 216.336C84.2713 216.336 73.7999 219.909 68.8112 229.222C63.8224 238.535 41.0448 256.499 36.5501 257.666C34.4927 258.209 33.1682 259.811 32.3377 261.408C31.2698 263.542 29.7707 265.432 27.9352 266.958C26.234 268.39 24.7685 270.082 23.5925 271.97C26.589 260.658 15.4499 255.168 15.4499 255.168C15.4499 255.168 19.9337 253.67 21.7631 247.696C23.5925 241.723 32.0771 235.56 32.0771 235.56C32.0771 235.56 40.7246 220.257 45.7133 217.759C50.702 215.261 59.6806 203.293 59.6806 203.293C61.5045 189.82 69.9946 182.837 69.9946 182.837C69.9946 182.837 79.3097 178.846 80.3085 175.549C80.656 174.42 81.7959 172.318 83.1585 170.048C84.4287 167.909 85.8727 165.634 87.0398 163.858C88.2069 162.082 89.1243 160.714 89.1243 160.714L104.052 160.573L106.767 160.545L114.719 145.569C114.719 145.569 117.547 142.745 122.449 146.068C123.859 147.01 125.534 147.471 127.226 147.382C129.448 147.239 131.603 146.561 133.507 145.406C152.463 140.247 160.443 150.011 160.443 150.011C160.443 150.011 173.574 148.897 174.236 150.011C174.899 151.124 181.717 150.011 181.717 150.011L199.842 148.23L227.777 143.744L229.416 157.879Z" fill="#CED7E7"/>
<path d="M120.348 152.889L111.869 166.856C111.869 166.856 88.7606 183.657 92.0882 170.516C92.6274 168.306 92.8197 166.025 92.6582 163.755C92.6093 162.87 92.5062 161.985 92.3759 161.111C91.7733 157.487 90.7078 153.955 89.2057 150.603C89.0374 150.201 88.8637 149.816 88.6628 149.435C88.4023 148.892 88.1471 148.349 87.892 147.839C86.8218 145.671 85.6048 143.579 84.2495 141.578C84.2495 141.578 109.356 121.122 110.186 133.927C110.368 136.819 111.029 139.662 112.141 142.338L112.336 142.789C113.733 145.945 115.743 148.793 118.248 151.168C118.903 151.795 119.605 152.37 120.348 152.889Z" fill="#FFA2A2"/>
<path d="M86.7683 165.862L90.6768 177.5L106.577 180.079L115.696 170.044C115.696 170.044 120.935 162.561 121.266 162.392C121.597 162.224 122.428 155.078 122.428 155.078L123.405 151.038L117.254 148.969L108.607 158.363L105.073 160.535L101.148 161.491L88.12 165.292L86.7683 165.862Z" fill="#CED7E7"/>
<path opacity="0.1" d="M127.167 148.898C127.167 148.898 122.824 148.855 121.668 149.229C120.511 149.604 119.627 151.005 119.627 151.005C118.095 153.933 115.67 156.297 112.705 157.755C109.307 159.532 106.017 161.508 102.853 163.674C100.403 163.434 97.9293 163.709 95.592 164.482C93.2547 165.256 91.1051 166.51 89.2817 168.165C87.4626 169.386 85.3221 170.04 83.1313 170.044C84.4015 167.904 85.8455 165.629 87.0126 163.853C92.3759 163.267 103.727 161.187 103.727 161.187L104.025 160.568C105.078 158.396 108.645 151.059 109.959 148.844C111.489 146.259 116.288 138.184 116.44 137.929L111.728 142.241L114.247 136.169L114.339 136.121L114.795 135.849L114.942 135.768C116.619 134.843 118.465 134.263 120.37 134.062C126.314 137.864 127.161 144.434 127.226 147.394C127.235 147.896 127.215 148.398 127.167 148.898Z" fill="black"/>
<path opacity="0.1" d="M88.2883 147.616L89.5205 150.332C89.5205 150.332 89.4174 150.418 89.2003 150.581C89.032 150.18 88.8583 149.794 88.6574 149.414C88.3969 148.871 88.1417 148.328 87.8866 147.817C88.0169 147.741 88.1363 147.66 88.2557 147.595L88.2883 147.616Z" fill="black"/>
<path opacity="0.1" d="M118.269 151.168C116.774 153.087 114.874 154.654 112.705 155.757C109.307 157.534 106.017 159.513 102.853 161.681C99.3234 161.332 95.7707 162.055 92.6582 163.755C92.6093 162.87 92.5062 161.985 92.3759 161.111C97.7174 160.285 103.727 159.183 103.727 159.183C103.727 159.183 108.406 149.457 109.959 146.84C110.501 145.96 111.392 144.424 112.358 142.789C113.755 145.946 115.764 148.794 118.269 151.168Z" fill="black"/>
<path d="M127.167 147.899C127.167 147.899 122.824 147.855 121.662 148.23C120.5 148.605 119.627 150.011 119.627 150.011C118.093 152.937 115.669 155.299 112.705 156.756C109.307 158.533 106.017 160.509 102.853 162.675C100.403 162.436 97.9298 162.712 95.5926 163.485C93.2555 164.258 91.1059 165.512 89.2817 167.165C88.0063 168.023 86.5633 168.601 85.0483 168.859C83.5332 169.117 81.9806 169.051 80.4931 168.664C75.5641 167.296 75.3198 160.562 76.0038 158.005C76.5466 155.995 84.7652 150.782 88.3046 148.61L89.5368 151.352C86.9696 153.321 84.2808 155.126 81.4865 156.756C76.1829 159.932 78.8646 163.364 78.8646 163.364C80.7728 163.034 82.7107 162.906 84.6458 162.984C87.3926 163.169 103.727 160.177 103.727 160.177C103.727 160.177 108.406 150.446 109.959 147.834C111.511 145.222 116.288 137.174 116.44 136.919L111.728 141.263L114.247 135.192L114.339 135.143L114.795 134.872L114.942 134.79C116.619 133.865 118.465 133.285 120.37 133.085C128.187 138.043 127.167 147.899 127.167 147.899Z" fill="#CED7E7"/>
<path opacity="0.1" d="M112.162 142.349C109.72 146.124 106.017 148.909 101.713 150.207C97.4089 151.505 92.784 151.232 88.6628 149.435C87.4086 146.7 85.9326 144.072 84.2495 141.578C84.2495 141.578 109.356 121.122 110.186 133.927C110.374 136.824 111.042 139.67 112.162 142.349Z" fill="black"/>
<path d="M114.719 131.049C114.719 131.523 114.703 131.99 114.67 132.45C114.313 137.417 112.022 142.046 108.289 145.34C104.555 148.634 99.6786 150.332 94.7074 150.066C89.7362 149.801 85.0677 147.594 81.7061 143.921C78.3445 140.248 76.5584 135.401 76.7319 130.425C76.9055 125.448 79.0248 120.738 82.6341 117.308C86.2434 113.878 91.0543 112.002 96.0319 112.084C101.009 112.165 105.756 114.198 109.251 117.745C112.746 121.292 114.709 126.069 114.719 131.049Z" fill="#FFA2A2"/>
<path opacity="0.1" d="M65.489 192.14C65.489 192.14 69.6634 199.954 74.7987 204.255C79.934 208.555 82.9413 215.235 82.9413 215.235C82.9413 215.235 81.4485 202.283 65.489 192.14Z" fill="black"/>
<path opacity="0.1" d="M59.002 211.764C59.002 211.764 73.6587 208.104 81.0359 211.764H59.002Z" fill="black"/>
<path opacity="0.1" d="M53.6822 233.578L69.4517 228.147C69.4517 228.147 59.3494 235.381 53.6822 233.578Z" fill="black"/>
<path opacity="0.1" d="M26.4153 254.838C26.4153 254.838 33.2333 254.506 35.3938 256.668C35.3938 256.668 28.744 257.167 26.4153 254.838Z" fill="black"/>
<path opacity="0.1" d="M185.511 149.631C185.511 149.631 170.225 158.71 169.546 173.345L185.511 149.631Z" fill="black"/>
<path opacity="0.1" d="M203.979 163.364C203.979 163.364 185.023 167.193 181.863 169.186C178.704 171.178 171.891 172.178 171.891 172.178C171.891 172.178 199.321 168.523 203.979 163.364Z" fill="black"/>
<path opacity="0.1" d="M148.375 243.63C146.997 245.063 129.978 249.104 114.768 252.481C113.388 252.573 112.003 252.589 110.621 252.53C106.359 252.313 101.935 254.023 98.1897 256.076C93.5973 257.054 90.6279 257.667 90.6279 257.667C90.6279 257.667 85.6284 253.725 92.5225 244.824C99.4165 235.924 100.627 221.881 100.627 221.881L131.319 214.029C131.319 214.029 139.598 225.433 143.56 227.263C147.523 229.093 150.927 240.991 148.375 243.63Z" fill="black"/>
<path d="M147.29 244.026C145.954 245.427 129.544 249.348 114.877 252.633C113.545 252.72 112.209 252.735 110.876 252.677C106.767 252.465 102.484 254.127 98.89 256.125C94.4604 257.07 91.5942 257.667 91.5942 257.667C91.5942 257.667 86.7738 253.839 93.4236 245.177C100.073 236.516 101.235 222.886 101.235 222.886L130.831 215.24C130.831 215.24 138.811 226.318 142.632 228.099C146.454 229.88 149.733 241.469 147.29 244.026Z" fill="#CED7E7"/>
<path opacity="0.1" d="M123.264 353.045L114.719 358.106C114.217 356.213 113.835 354.29 113.574 352.35C114.817 353.387 123.264 353.045 123.264 353.045Z" fill="black"/>
<path opacity="0.1" d="M115.186 359.854C118.204 359.278 125.37 357.845 129.3 356.498C125.739 358.236 119.295 361.141 115.637 361.385C115.468 360.88 115.327 360.359 115.186 359.854Z" fill="black"/>
<path opacity="0.1" d="M131.819 355.217C131.504 355.602 130.581 356.037 129.305 356.477C130.831 355.76 131.819 355.217 131.819 355.217Z" fill="black"/>
<path opacity="0.1" d="M136.976 397.03C134.555 397.231 130.619 396.905 128.29 396.666L127.498 394.462C129.989 394.728 134.935 395.146 136.976 394.538C139.76 393.712 140.596 396.742 136.976 397.03Z" fill="black"/>
<path opacity="0.1" d="M158.608 352.832C158.206 352.778 151.746 352.051 147.588 352.029C147.588 350.606 147.659 349.314 147.74 348.266C150.606 349.477 158.179 352.686 158.608 352.832Z" fill="black"/>
<path d="M153.853 424.35C153.104 427.44 141.009 426.896 141.009 426.896L140.01 428.221C140.01 428.221 135.358 429.927 131.868 428.927C128.377 427.928 117.754 428.14 117.754 428.14V424.724C117.754 420.277 122.742 418.822 122.742 418.822C122.742 418.822 126.939 415.33 128.393 411.795C129.301 409.607 130.354 407.482 131.547 405.436C131.547 405.436 127.644 400.695 138.116 399.463C148.43 398.268 144.386 407.635 144.272 407.896C144.44 407.744 148.31 404.263 150.46 405.36C152.012 406.158 153.418 413.717 153.858 419.191C154.059 421.515 154.07 423.443 153.853 424.35Z" fill="#CED7E7"/>
<path opacity="0.1" d="M153.853 424.35C153.104 427.44 141.009 426.897 141.009 426.897L140.01 428.222C140.01 428.222 135.358 429.927 131.868 428.928C128.377 427.929 117.754 428.14 117.754 428.14V424.882C124.148 425.197 136.949 425.621 139.826 424.138C139.826 424.138 143.273 423.264 144.065 422.683C144.733 422.189 151.757 419.892 153.836 419.213C154.059 421.515 154.07 423.443 153.853 424.35Z" fill="black"/>
<path d="M180.327 424.692C169.313 425.897 163.575 423.231 163.575 423.231C162.663 422.672 161.882 421.921 161.287 421.032C160.692 420.142 160.297 419.134 160.128 418.078C159.547 414.461 154.016 410.806 154.016 410.806C154.016 410.806 147.203 411.469 146.367 409.471C146.166 408.623 146.089 407.75 146.139 406.88C146.139 401.521 147.48 390.264 149.027 390.427C150.851 390.627 156.491 398.099 157.055 398.849C156.561 398.045 151.654 389.677 162.538 388.683C162.538 388.683 171.43 383.655 170.518 395.379L174.258 403.443C174.258 403.443 181.619 414.303 183.443 413.923C184.317 413.744 186.157 415.916 186.646 418.371C187.172 421.048 186.081 424.062 180.327 424.692Z" fill="#CED7E7"/>
<path opacity="0.1" d="M114.719 131.049C114.719 131.523 114.703 131.99 114.67 132.45L114.209 132.624L112.423 133.275C112.122 133.404 111.8 133.478 111.473 133.492C111.218 133.482 110.968 133.413 110.744 133.292C110.519 133.171 110.325 133 110.176 132.792C109.919 132.399 109.735 131.963 109.633 131.505L108.281 126.308C108.01 125.276 107.592 124.087 106.435 123.702C106.098 123.628 105.766 123.53 105.442 123.408C104.72 123.066 104.568 122.263 104.324 121.589C103.781 120.02 102.332 118.766 100.763 117.788C99.7022 117.045 98.4421 116.64 97.1475 116.626C96.4541 116.637 95.784 116.877 95.2421 117.31C94.1075 118.271 94.265 119.569 94.4007 120.938C94.5364 122.306 94.9001 123.767 94.4984 125.135C94.227 126.026 93.6461 126.857 93.543 127.78C93.4561 128.524 93.7004 129.279 93.657 130.023C93.6486 130.424 93.5045 130.812 93.2483 131.121C92.992 131.431 92.6387 131.644 92.2456 131.728C92.175 131.277 91.5182 131.13 91.0785 130.886C90.0851 130.343 90.0308 129.159 90.0742 128.171C90.1502 126.694 90.2208 125.211 90.2914 123.734C89.8528 127.038 89.1724 130.305 88.2557 133.509C88.1429 134.066 87.8844 134.583 87.5066 135.008C87.284 135.229 87.0001 135.379 86.6915 135.438C86.3829 135.497 86.0637 135.463 85.7749 135.339C85.439 135.127 85.1905 134.801 85.0747 134.421C84.3812 132.701 84.1419 130.831 84.3798 128.991C83.7773 131.396 83.1747 133.829 82.013 136.088C81.5516 136.984 80.8514 137.956 79.7168 138.135C79.3707 138.146 79.0276 138.203 78.6963 138.304C78.5641 138.367 78.4445 138.453 78.3434 138.559C77.2372 135.975 76.7191 133.178 76.8266 130.37C76.934 127.561 77.6644 124.812 78.9647 122.321C80.2651 119.829 82.103 117.658 84.3453 115.965C86.5876 114.272 89.1782 113.098 91.9296 112.53C94.6811 111.961 97.5245 112.012 100.254 112.678C102.983 113.344 105.531 114.608 107.712 116.38C109.892 118.152 111.652 120.387 112.863 122.923C114.074 125.459 114.706 128.233 114.714 131.043L114.719 131.049Z" fill="black"/>
<path d="M95.2421 116.338C95.7827 115.903 96.4533 115.66 97.1474 115.649C98.4418 115.665 99.7014 116.07 100.763 116.811C102.332 117.767 103.759 119.016 104.324 120.612C104.568 121.285 104.715 122.095 105.409 122.437C105.735 122.552 106.066 122.648 106.403 122.724C107.565 123.11 107.983 124.299 108.249 125.331L109.611 130.528C109.7 130.986 109.875 131.423 110.127 131.815C110.275 132.023 110.469 132.195 110.694 132.318C110.919 132.44 111.168 132.509 111.424 132.521C111.754 132.506 112.078 132.431 112.38 132.298L114.166 131.646C115.105 131.304 116.125 130.897 116.554 130.104C116.779 129.593 116.854 129.028 116.771 128.475C116.667 126.816 116.435 125.168 116.076 123.544L118.128 124.94C118.622 125.271 119.241 125.624 119.827 125.44C120.018 125.368 120.189 125.254 120.328 125.105C120.466 124.956 120.568 124.777 120.625 124.582C120.994 123.561 120.728 122.339 121.499 121.497C121.684 121.302 121.912 121.133 122.075 120.927C122.775 120.026 121.944 118.804 122.232 117.75C122.509 117.86 122.814 117.875 123.101 117.793C123.387 117.712 123.639 117.538 123.817 117.3C124.099 116.844 124.237 116.314 124.214 115.779C124.376 112.711 124.452 109.388 122.352 106.89C122.737 104.381 120.077 101.649 117.135 101.307C116.402 101.22 115.506 101.177 115.186 100.618C115.072 100.349 115.022 100.057 115.039 99.7652C114.963 98.8149 114.328 97.9677 113.715 97.1695C113.47 96.8174 113.169 96.5075 112.825 96.2518C111.853 95.611 110.469 95.7848 109.264 96.002C107.052 96.3966 104.856 96.84 102.674 97.3324C102.418 96.2593 102.434 95.1391 102.722 94.0742C102.945 93.2705 103.325 92.4451 102.912 91.6414C102.808 91.4407 102.652 91.2706 102.462 91.1478C102.272 91.025 102.053 90.9537 101.827 90.9409C101.54 90.9334 101.257 91.0101 101.013 91.1616C100.768 91.3131 100.574 91.5328 100.453 91.7935C99.2033 93.6634 98.3395 95.7645 97.9129 97.9732C97.0926 97.3927 96.1393 97.0287 95.141 96.9148C94.1428 96.8009 93.132 96.9408 92.2022 97.3215C91.7329 97.5855 91.2229 97.769 90.6931 97.8646C90.2516 97.8585 89.8193 97.7376 89.4386 97.5139C89.0579 97.2902 88.7419 96.9712 88.5217 96.5884C87.9246 95.6653 87.6532 94.5684 86.4915 93.9656C86.233 93.8291 85.9451 93.7578 85.6528 93.7578C85.3605 93.7578 85.0726 93.8291 84.8141 93.9656C83.2779 94.8616 85.1941 97.0826 84.0541 98.2501C83.7377 98.5226 83.3679 98.726 82.9684 98.8474L80.1185 99.8955C78.5993 100.545 76.9871 100.95 75.3415 101.096C73.4524 101.172 71.5416 100.591 69.6851 100.982C70.4317 101.832 71.4237 102.43 72.5242 102.692C73.1973 102.86 73.9084 102.915 74.5653 103.132C74.8837 103.203 75.1789 103.354 75.423 103.57C75.6671 103.787 75.852 104.062 75.9604 104.37C76.1069 105.136 75.3687 105.874 75.5152 106.64C75.6267 106.969 75.8524 107.246 76.1512 107.423C76.4501 107.599 76.8022 107.662 77.1437 107.601L73.7727 109.773C73.1647 110.164 72.4862 110.734 72.7142 111.353L73.7998 111.668L70.8739 115.866C70.4938 116.291 70.2766 116.838 70.2605 117.408C70.289 117.554 70.3472 117.693 70.4315 117.816C70.5159 117.939 70.6245 118.043 70.7508 118.122C70.8771 118.201 71.0182 118.253 71.1655 118.275C71.3127 118.297 71.4629 118.288 71.6068 118.25C70.9057 118.98 70.3527 119.84 69.9782 120.78C69.9101 120.904 69.8722 121.041 69.8674 121.182C69.8627 121.322 69.8914 121.462 69.9511 121.59C70.08 121.729 70.2403 121.836 70.4188 121.901C70.5972 121.966 70.7886 121.988 70.9771 121.964C72.5513 121.964 74.0116 120.878 74.2341 119.537C74.7172 120.08 74.2015 120.721 73.7401 121.269C71.889 123.496 70 125.765 69.0174 128.361C68.0349 130.957 68.0783 133.987 69.9185 136.219C70.3259 136.651 70.6896 137.122 71.0042 137.625C71.5905 138.744 71.2539 140.177 72.1659 141.128C72.8992 139.117 73.7885 137.167 74.8258 135.296C74.7672 135.954 74.6711 136.608 74.5381 137.256C74.4943 137.599 74.5607 137.947 74.7275 138.249C74.8944 138.552 75.1532 138.793 75.4664 138.939C76.4218 139.287 77.4152 138.543 78.0394 137.853C78.1947 137.648 78.393 137.479 78.6203 137.359C78.9502 137.26 79.2913 137.204 79.6354 137.191C80.7699 137.012 81.4648 136.045 81.9316 135.144C83.0933 132.89 83.7013 130.457 84.2984 128.041C84.0587 129.881 84.3 131.752 84.9987 133.471C85.1109 133.851 85.358 134.178 85.6935 134.389C85.983 134.511 86.3022 134.544 86.6105 134.484C86.9188 134.424 87.2023 134.273 87.4252 134.052C87.804 133.628 88.0627 133.111 88.1743 132.553C89.0889 129.349 89.7693 126.082 90.2099 122.779L89.9928 127.215C89.9439 128.214 89.9928 129.387 90.9916 129.93C91.4422 130.175 92.0773 130.321 92.1642 130.767C92.5576 130.687 92.9118 130.475 93.1677 130.166C93.4236 129.856 93.5656 129.469 93.5701 129.067C93.619 128.318 93.3747 127.568 93.4616 126.819C93.5647 125.901 94.151 125.07 94.417 124.174C94.8187 122.811 94.4658 121.383 94.3192 119.982C94.1727 118.581 94.0912 117.294 95.2421 116.338Z" fill="#896363"/>
<path opacity="0.1" d="M180.327 424.692C169.313 425.898 163.575 423.231 163.575 423.231C162.663 422.672 161.882 421.922 161.287 421.032C160.692 420.143 160.297 419.135 160.128 418.078C159.547 414.462 154.016 410.807 154.016 410.807C154.016 410.807 147.203 411.469 146.367 409.471C146.166 408.623 146.089 407.751 146.139 406.881C148.658 407.484 154.461 408.868 156.257 409.384C158.592 410.047 165.41 421.108 165.41 421.108C171.973 424.562 182.835 420.131 186.646 418.393C187.172 421.048 186.081 424.062 180.327 424.692Z" fill="black"/>
<path opacity="0.1" d="M131.547 405.436C131.547 405.436 128.193 410.583 144.271 407.923L131.547 405.436Z" fill="black"/>
<path opacity="0.1" d="M157.061 398.849C157.061 398.849 174.019 402.536 170.523 395.379L157.061 398.849Z" fill="black"/>
<g opacity="0.1">
<path opacity="0.1" d="M75.6347 105.716C75.5416 105.956 75.5117 106.216 75.5478 106.471C75.6189 106.764 75.8021 107.017 76.0581 107.177L77.2035 106.438C76.8996 106.492 76.5865 106.452 76.3061 106.323C76.0257 106.193 75.7914 105.982 75.6347 105.716Z" fill="black"/>
<path opacity="0.1" d="M72.5296 102.528C73.2082 102.697 73.9193 102.751 74.5761 102.968C75.1246 103.114 75.5941 103.469 75.8844 103.956C75.9777 103.718 76.0076 103.46 75.9712 103.207C75.8629 102.899 75.678 102.624 75.4339 102.407C75.1898 102.191 74.8946 102.04 74.5761 101.969C73.9193 101.752 73.2082 101.697 72.5296 101.529C71.8684 101.364 71.2417 101.082 70.6785 100.698C70.3483 100.711 70.0196 100.751 69.696 100.818C70.4414 101.667 71.4312 102.264 72.5296 102.528Z" fill="black"/>
<path opacity="0.1" d="M74.9073 134.133C73.8682 136.004 72.977 137.954 72.2419 139.965C71.3354 139.015 71.6665 137.581 71.0802 136.462C70.7675 135.957 70.4037 135.486 69.9945 135.056C69.0697 133.92 68.5348 132.517 68.4692 131.054C68.3189 132.855 68.8649 134.645 69.9945 136.055C70.4037 136.485 70.7675 136.957 71.0802 137.461C71.6665 138.58 71.3354 140.008 72.2419 140.964C72.9319 139.084 73.7573 137.256 74.7118 135.496C74.8307 135.051 74.8963 134.593 74.9073 134.133Z" fill="black"/>
<path opacity="0.1" d="M70.418 116.561C70.3216 116.775 70.2823 117.011 70.304 117.245C70.3351 117.411 70.4049 117.568 70.5077 117.703C70.6104 117.838 70.7433 117.947 70.8957 118.021C71.1224 117.691 71.3747 117.378 71.6502 117.087C71.4157 117.158 71.1636 117.145 70.9382 117.048C70.7129 116.952 70.5287 116.779 70.418 116.561Z" fill="black"/>
<path opacity="0.1" d="M102.549 95.1705C102.572 94.7448 102.64 94.3226 102.75 93.9107C102.945 93.2156 103.249 92.5096 103.059 91.8037C102.983 92.173 102.853 92.5477 102.75 92.8898C102.548 93.6321 102.48 94.4044 102.549 95.1705Z" fill="black"/>
<path opacity="0.1" d="M84.2658 94.5625C84.205 95.1944 84.2546 95.832 84.4124 96.4468C84.475 95.815 84.4254 95.177 84.2658 94.5625Z" fill="black"/>
<path opacity="0.1" d="M74.2938 118.374C74.0496 119.694 72.5839 120.774 71.0368 120.801C70.6943 120.828 70.3545 120.724 70.0868 120.508L70.038 120.617C69.9702 120.74 69.932 120.877 69.9264 121.017C69.9207 121.158 69.9478 121.298 70.0054 121.426C70.1359 121.565 70.2975 121.67 70.4767 121.734C70.656 121.799 70.8479 121.819 71.0368 121.795C71.6775 121.784 72.3043 121.606 72.8553 121.279C73.1756 120.883 73.5013 120.492 73.8216 120.106C73.9913 119.911 74.1473 119.704 74.2884 119.487C74.3 119.45 74.3091 119.412 74.3156 119.373V119.4C74.4302 119.253 74.4906 119.07 74.4867 118.883C74.4827 118.696 74.4146 118.517 74.2938 118.374Z" fill="black"/>
<path opacity="0.1" d="M73.0127 110.267C72.8868 110.38 72.7956 110.527 72.7495 110.691C72.7034 110.854 72.7043 111.027 72.7522 111.19L73.2624 111.336L73.8378 110.506L73.0127 110.267Z" fill="black"/>
<path opacity="0.1" d="M122.102 119.797C121.939 120.004 121.711 120.172 121.526 120.34C120.75 121.182 121.022 122.404 120.652 123.425C120.595 123.62 120.492 123.798 120.354 123.947C120.216 124.096 120.045 124.211 119.854 124.283C119.268 124.467 118.649 124.114 118.155 123.783L116.103 122.387C116.185 122.768 116.261 123.153 116.331 123.539L118.155 124.777C118.649 125.114 119.268 125.466 119.854 125.282C120.044 125.209 120.215 125.094 120.353 124.945C120.491 124.797 120.594 124.618 120.652 124.424C121.022 123.403 120.75 122.181 121.526 121.339C121.711 121.139 121.939 120.976 122.102 120.769C122.244 120.55 122.339 120.303 122.379 120.045C122.419 119.787 122.404 119.523 122.335 119.271C122.299 119.462 122.219 119.642 122.102 119.797Z" fill="black"/>
<path opacity="0.1" d="M116.787 128.23C116.765 128.479 116.695 128.72 116.581 128.942C116.152 129.735 115.132 130.142 114.187 130.484L112.407 131.136C112.104 131.266 111.78 131.341 111.451 131.358C111.196 131.347 110.946 131.278 110.721 131.155C110.496 131.033 110.302 130.861 110.154 130.652C109.895 130.261 109.711 129.824 109.611 129.365L108.254 124.169C107.983 123.137 107.57 121.948 106.408 121.562C106.072 121.486 105.74 121.39 105.415 121.274C104.693 120.927 104.541 120.123 104.329 119.45C103.786 117.875 102.337 116.626 100.768 115.648C99.7064 114.908 98.4471 114.503 97.1529 114.486C96.4585 114.497 95.7877 114.739 95.2475 115.176C94.341 115.942 94.2595 116.925 94.3301 117.989C94.3509 117.639 94.443 117.297 94.6008 116.984C94.7586 116.672 94.9786 116.394 95.2475 116.17C95.7901 115.738 96.4595 115.495 97.1529 115.48C98.4463 115.502 99.7042 115.906 100.768 116.642C102.337 117.603 103.765 118.852 104.329 120.443C104.568 121.117 104.72 121.92 105.415 122.268C105.74 122.384 106.072 122.48 106.408 122.556C107.57 122.941 107.983 124.131 108.254 125.162L109.611 130.354C109.71 130.813 109.894 131.25 110.154 131.641C110.301 131.851 110.495 132.024 110.72 132.148C110.945 132.271 111.195 132.341 111.451 132.352C111.78 132.332 112.103 132.257 112.407 132.129L114.176 131.489C115.121 131.146 116.141 130.739 116.57 129.946C116.795 129.435 116.871 128.87 116.787 128.317C116.793 128.306 116.793 128.274 116.787 128.23Z" fill="black"/>
<path opacity="0.1" d="M124.241 114.655C124.265 115.19 124.126 115.72 123.844 116.175C123.666 116.414 123.414 116.587 123.128 116.669C122.842 116.75 122.536 116.735 122.259 116.626C122.182 116.984 122.182 117.354 122.259 117.712V117.636C122.536 117.745 122.842 117.76 123.128 117.679C123.414 117.597 123.666 117.424 123.844 117.185C124.126 116.729 124.264 116.2 124.241 115.665C124.29 114.779 124.328 113.873 124.306 112.977C124.295 113.525 124.268 114.111 124.241 114.655Z" fill="black"/>
<path opacity="0.1" d="M84.3798 126.861C83.8711 129.313 83.0768 131.697 82.013 133.964C81.5462 134.866 80.8514 135.832 79.7114 136.011C79.3674 136.025 79.0264 136.082 78.6963 136.18C78.4715 136.302 78.2753 136.47 78.1209 136.674C77.4966 137.38 76.4923 138.124 75.5478 137.76C75.3238 137.673 75.1258 137.53 74.9728 137.344C74.8198 137.159 74.7169 136.938 74.6738 136.701C74.6738 136.831 74.6304 136.956 74.6195 137.081C74.5708 137.424 74.635 137.773 74.8025 138.076C74.9701 138.379 75.2317 138.618 75.5478 138.759C76.5032 139.112 77.4966 138.363 78.1209 137.673C78.2771 137.472 78.473 137.306 78.6963 137.184C79.0252 137.081 79.3668 137.025 79.7114 137.016C80.8514 136.837 81.5462 135.87 82.013 134.969C83.0296 132.818 83.7929 130.557 84.2875 128.23C84.2883 127.772 84.3191 127.315 84.3798 126.861Z" fill="black"/>
<path opacity="0.1" d="M90.2914 121.616C89.8507 124.919 89.1704 128.186 88.2557 131.391C88.1443 131.949 87.8835 132.467 87.5012 132.889C87.2787 133.112 86.9952 133.262 86.6867 133.322C86.3782 133.382 86.0589 133.349 85.7695 133.226C85.4377 133.012 85.1932 132.687 85.0801 132.308C84.6311 131.181 84.3742 129.986 84.3201 128.773C84.2495 130.323 84.5143 131.87 85.0964 133.308C85.2092 133.688 85.4536 134.015 85.7858 134.231C86.0754 134.352 86.3944 134.385 86.7026 134.325C87.0107 134.265 87.2942 134.115 87.5175 133.894C87.8989 133.471 88.1596 132.954 88.272 132.395C89.1412 129.348 89.7978 126.243 90.2371 123.104L90.2914 121.616Z" fill="black"/>
<path opacity="0.1" d="M94.493 123.028C94.227 123.924 93.6461 124.75 93.543 125.673C93.5077 125.97 93.5077 126.271 93.543 126.569C93.6733 125.689 94.2215 124.891 94.4767 124.027C94.649 123.397 94.706 122.74 94.645 122.089C94.6264 122.406 94.5754 122.721 94.493 123.028Z" fill="black"/>
<path opacity="0.1" d="M92.2456 129.62C92.1696 129.175 91.5182 129.028 91.0731 128.784C90.7636 128.584 90.51 128.309 90.3363 127.984C90.1625 127.659 90.0742 127.295 90.0797 126.927V127.052C90.0308 128.051 90.0797 129.224 91.0785 129.767C91.5236 130.011 92.1642 130.152 92.251 130.603C92.644 130.521 92.9972 130.307 93.2527 129.997C93.5082 129.687 93.6507 129.3 93.657 128.898C93.6696 128.641 93.6605 128.383 93.6298 128.127C93.5896 128.491 93.4333 128.833 93.1841 129.102C92.9348 129.371 92.6058 129.553 92.2456 129.62Z" fill="black"/>
</g>
<path d="M261.449 434.287H198.214C197.467 434.288 196.729 434.131 196.047 433.826C195.366 433.521 194.756 433.075 194.26 432.517C193.763 431.959 193.391 431.303 193.166 430.59C192.942 429.878 192.871 429.126 192.959 428.384L208.354 297.514L208.674 294.75C208.826 293.464 209.444 292.278 210.411 291.417C211.379 290.556 212.629 290.08 213.923 290.08H247.124C248.428 290.081 249.686 290.563 250.656 291.435C251.626 292.307 252.239 293.507 252.378 294.804L252.655 297.427L266.715 428.433C266.794 429.172 266.717 429.919 266.488 430.626C266.26 431.333 265.885 431.983 265.388 432.536C264.891 433.088 264.284 433.529 263.605 433.831C262.927 434.133 262.192 434.288 261.449 434.287Z" fill="#4E5A86"/>
<path opacity="0.1" d="M212.718 305.731C212.718 305.731 215.042 365.1 206.069 387.728C206.069 387.728 207.002 392.55 209.526 387.728C212.051 382.906 220.698 332.676 216.54 306.567C216.54 306.562 215.688 303.732 212.718 305.731Z" fill="black"/>
<path opacity="0.1" d="M223.857 305.731C223.857 305.731 226.181 365.1 217.208 387.728C217.208 387.728 218.141 392.55 220.666 387.728C223.19 382.906 231.837 332.676 227.679 306.567C227.679 306.562 226.849 303.732 223.857 305.731Z" fill="black"/>
<path opacity="0.1" d="M250.972 305.73C250.972 305.73 248.644 365.099 257.622 387.727C257.622 387.727 256.683 392.549 254.159 387.727C251.635 382.905 242.976 332.67 247.129 306.561C247.129 306.561 247.965 303.732 250.972 305.73Z" fill="black"/>
<path opacity="0.1" d="M239.817 305.73C239.817 305.73 237.488 365.099 246.467 387.727C246.467 387.727 245.528 392.549 243.003 387.727C240.479 382.905 231.837 332.67 235.99 306.561C235.99 306.561 236.826 303.732 239.817 305.73Z" fill="black"/>
<path d="M245.321 10.833H215.27V273.133H245.321V10.833Z" fill="#4E5A86"/>
<path opacity="0.1" d="M252.655 297.444C252.317 297.534 251.968 297.579 251.618 297.58H208.978C208.769 297.58 208.56 297.564 208.354 297.531L208.674 294.767C208.826 293.48 209.444 292.294 210.411 291.434C211.379 290.573 212.629 290.097 213.923 290.097H247.124C248.428 290.097 249.686 290.58 250.656 291.452C251.626 292.324 252.239 293.524 252.378 294.821L252.655 297.444Z" fill="black"/>
<path opacity="0.1" d="M245.631 267.892H215.27V273.132H245.631V267.892Z" fill="black"/>
<path d="M251.266 268.892H209.326C206.927 268.892 204.983 270.837 204.983 273.236V292.236C204.983 294.636 206.927 296.581 209.326 296.581H251.266C253.664 296.581 255.608 294.636 255.608 292.236V273.236C255.608 270.837 253.664 268.892 251.266 268.892Z" fill="#4E5A86"/>
<path opacity="0.1" d="M221.61 10.833H217.289V260.659H221.61V10.833Z" fill="black"/>
<path opacity="0.1" d="M228.841 10.833H224.52V260.659H228.841V10.833Z" fill="black"/>
<path opacity="0.1" d="M236.071 10.833H231.75V260.659H236.071V10.833Z" fill="black"/>
<path opacity="0.1" d="M243.307 10.833H238.986V260.659H243.307V10.833Z" fill="black"/>
<path d="M247.2 136.072C247.2 136.072 237.309 132.993 238.807 143.886C240.306 154.779 244.127 155.447 244.127 155.447C244.127 155.447 247.449 154.697 247.867 150.375C248.285 146.052 247.2 136.072 247.2 136.072Z" fill="#FFA2A2"/>
<g opacity="0.1">
<path opacity="0.1" d="M472.712 368.119C481.034 380.407 478.374 424.404 478.374 424.404C478.374 424.404 436.575 410.556 428.226 398.268C426.247 395.344 424.863 392.059 424.154 388.6C423.444 385.141 423.422 381.577 424.089 378.109C425.437 371.107 429.511 364.927 435.414 360.929C441.316 356.931 448.565 355.442 455.565 356.791C462.565 358.139 468.743 362.214 472.739 368.119H472.712Z" fill="#F0E8E8"/>
<path opacity="0.1" d="M472.712 368.119C481.034 380.407 478.374 424.404 478.374 424.404C478.374 424.404 436.575 410.556 428.226 398.268C426.247 395.344 424.863 392.059 424.154 388.6C423.444 385.141 423.422 381.577 424.089 378.109C425.437 371.107 429.511 364.927 435.414 360.929C441.316 356.931 448.565 355.442 455.565 356.791C462.565 358.139 468.743 362.214 472.739 368.119H472.712Z" fill="black"/>
<path opacity="0.1" d="M435.566 360.973C435.566 360.973 466.909 385.181 478.537 424.436" stroke="#535461" stroke-miterlimit="10"/>
<path opacity="0.1" d="M486.43 391.089C486.43 391.089 464.173 387.287 479.373 424.164C479.373 424.164 494.838 418.273 496.043 403.6C496.284 400.745 495.469 397.901 493.753 395.607C492.037 393.313 489.54 391.729 486.734 391.154L486.43 391.089Z" fill="#F0E8E8"/>
<path opacity="0.1" d="M486.761 391.057C486.761 391.057 491 411.453 479.4 424.181" stroke="#535461" stroke-miterlimit="10"/>
</g>
<g opacity="0.1">
<path opacity="0.1" d="M242.857 331.323C242.857 331.323 276.285 246.068 340.194 213.817C367.021 200.285 389.082 178.846 402.431 151.912C408.742 139.129 413.87 125.794 417.749 112.075" stroke="#535461" stroke-width="2" stroke-miterlimit="10"/>
<path opacity="0.1" d="M457.903 91.5104C451.303 100.02 416.767 112.727 416.767 112.727C416.767 112.727 420.513 76.1046 427.113 67.6008C428.661 65.5204 430.608 63.7697 432.84 62.4513C435.072 61.1328 437.544 60.273 440.113 59.9223C442.681 59.5716 445.293 59.7369 447.797 60.4087C450.301 61.0805 452.645 62.2451 454.693 63.8345C456.742 65.4239 458.452 67.406 459.725 69.6649C460.998 71.9238 461.808 74.414 462.106 76.9898C462.405 79.5655 462.188 82.1751 461.466 84.6656C460.744 87.1561 459.533 89.4776 457.903 91.4941V91.5104Z" fill="#F0E8E8"/>
<path opacity="0.1" d="M446.786 158.39C436.624 161.941 400.726 153.829 400.726 153.829C400.726 153.829 423.77 125.129 433.932 121.578C436.348 120.734 438.907 120.374 441.462 120.519C444.017 120.663 446.519 121.31 448.825 122.423C451.13 123.535 453.194 125.09 454.898 127C456.603 128.91 457.914 131.137 458.758 133.554C459.602 135.972 459.962 138.531 459.817 141.088C459.673 143.644 459.026 146.146 457.914 148.453C456.802 150.759 455.247 152.823 453.338 154.528C451.429 156.233 449.202 157.546 446.786 158.39Z" fill="#F0E8E8"/>
<path opacity="0.1" d="M383.192 238.036C372.623 235.973 345.736 210.841 345.736 210.841C345.736 210.841 380.114 197.7 390.678 199.769C393.19 200.26 395.58 201.242 397.713 202.657C399.846 204.073 401.679 205.894 403.107 208.019C404.536 210.143 405.533 212.528 406.04 215.037C406.548 217.546 406.556 220.131 406.065 222.644C405.574 225.157 404.593 227.548 403.178 229.681C401.763 231.815 399.941 233.648 397.818 235.078C395.695 236.507 393.311 237.504 390.802 238.011C388.293 238.519 385.709 238.527 383.198 238.036H383.192Z" fill="#F0E8E8"/>
<path opacity="0.1" d="M321.504 287.462C310.745 287.212 279.993 266.99 279.993 266.99C279.993 266.99 311.651 248.228 322.416 248.478C324.975 248.538 327.497 249.101 329.838 250.136C332.179 251.171 334.293 252.657 336.06 254.51C337.827 256.362 339.212 258.544 340.136 260.932C341.06 263.32 341.505 265.866 341.445 268.426C341.385 270.986 340.822 273.509 339.787 275.851C338.753 278.193 337.267 280.308 335.415 282.076C333.564 283.843 331.382 285.229 328.995 286.153C326.608 287.077 324.063 287.522 321.504 287.462Z" fill="#F0E8E8"/>
<path opacity="0.1" d="M367.14 130.402C368.639 141.062 392.285 169.267 392.285 169.267C392.285 169.267 407.24 135.632 405.742 124.966C404.949 119.91 402.2 115.368 398.089 112.32C393.978 109.273 388.834 107.965 383.767 108.679C378.7 109.392 374.117 112.07 371.006 116.134C367.896 120.198 366.507 125.323 367.14 130.402Z" fill="#F0E8E8"/>
<path opacity="0.1" d="M295.719 189.088C300.338 198.824 331.313 218.65 331.313 218.65C331.313 218.65 335.525 182.077 330.9 172.352C329.802 170.039 328.259 167.966 326.359 166.25C324.46 164.535 322.241 163.21 319.83 162.352C317.419 161.494 314.862 161.12 312.306 161.25C309.75 161.38 307.245 162.013 304.934 163.112C302.622 164.211 300.55 165.754 298.834 167.655C297.119 169.555 295.795 171.774 294.937 174.186C294.08 176.598 293.705 179.156 293.836 181.713C293.966 184.269 294.599 186.775 295.697 189.088H295.719Z" fill="#F0E8E8"/>
<path opacity="0.1" d="M234.144 255.684C237.054 266.051 264.261 290.846 264.261 290.846C264.261 290.846 274.575 255.511 271.676 245.144C270.222 240.231 266.894 236.087 262.41 233.61C257.926 231.132 252.648 230.52 247.716 231.905C242.784 233.29 238.595 236.561 236.056 241.011C233.516 245.461 232.829 250.732 234.144 255.684Z" fill="#F0E8E8"/>
</g>
<g opacity="0.1">
<path opacity="0.1" d="M237.325 177.765C237.325 177.765 249.404 146.959 272.491 135.317C282.206 130.492 290.096 122.646 294.975 112.955C297.256 108.337 299.11 103.52 300.512 98.5645" stroke="#535461" stroke-width="2" stroke-miterlimit="10"/>
<path opacity="0.1" d="M315.028 91.1411C312.639 94.2147 300.165 98.8033 300.165 98.8033C300.165 98.8033 301.516 85.5751 303.905 82.5124C304.441 81.7034 305.139 81.0139 305.954 80.4869C306.769 79.9599 307.684 79.6068 308.642 79.4496C309.6 79.2924 310.58 79.3345 311.52 79.5733C312.461 79.8121 313.342 80.2424 314.109 80.8373C314.876 81.4323 315.512 82.1791 315.978 83.0311C316.443 83.8831 316.728 84.822 316.814 85.789C316.9 86.756 316.786 87.7304 316.479 88.6513C316.171 89.5722 315.677 90.4198 315.028 91.1411Z" fill="#F0E8E8"/>
<path opacity="0.1" d="M311 115.301C307.33 116.582 294.362 113.672 294.362 113.672C294.362 113.672 302.683 103.3 306.353 102.018C307.242 101.64 308.199 101.448 309.165 101.454C310.131 101.461 311.086 101.666 311.969 102.056C312.853 102.447 313.647 103.015 314.303 103.725C314.958 104.435 315.461 105.272 315.779 106.184C316.098 107.097 316.226 108.065 316.156 109.028C316.085 109.992 315.818 110.931 315.37 111.788C314.922 112.644 314.303 113.399 313.551 114.006C312.799 114.613 311.931 115.059 311 115.317V115.301Z" fill="#F0E8E8"/>
<path opacity="0.1" d="M288.021 144.076C284.221 143.326 274.494 134.247 274.494 134.247C274.494 134.247 286.908 129.501 290.725 130.25C291.681 130.375 292.603 130.695 293.431 131.19C294.259 131.685 294.977 132.344 295.541 133.128C296.104 133.911 296.501 134.802 296.707 135.745C296.913 136.688 296.923 137.664 296.737 138.611C296.551 139.558 296.173 140.457 295.626 141.252C295.079 142.047 294.375 142.722 293.557 143.234C292.739 143.746 291.825 144.085 290.871 144.23C289.917 144.375 288.943 144.322 288.01 144.076H288.021Z" fill="#F0E8E8"/>
<path opacity="0.1" d="M265.738 161.931C261.851 161.839 250.744 154.535 250.744 154.535C250.744 154.535 262.182 147.752 266.069 147.845C267.856 148.001 269.516 148.832 270.712 150.169C271.909 151.507 272.551 153.249 272.509 155.043C272.467 156.837 271.743 158.548 270.485 159.827C269.228 161.106 267.53 161.859 265.738 161.931Z" fill="#F0E8E8"/>
<path opacity="0.1" d="M282.218 105.178C282.761 109.029 291.305 119.221 291.305 119.221C291.305 119.221 296.734 107.068 296.191 103.218C296.12 102.254 295.853 101.315 295.405 100.458C294.956 99.6022 294.337 98.847 293.585 98.2399C292.833 97.6328 291.965 97.1867 291.033 96.9291C290.102 96.6715 289.128 96.608 288.171 96.7425C287.214 96.877 286.295 97.2067 285.471 97.711C284.646 98.2154 283.934 98.8838 283.379 99.6746C282.823 100.466 282.436 101.362 282.241 102.309C282.046 103.256 282.048 104.232 282.245 105.178H282.218Z" fill="#F0E8E8"/>
<path opacity="0.1" d="M256.401 126.39C258.073 129.903 269.272 137.071 269.272 137.071C269.272 137.071 270.792 123.859 269.12 120.346C268.244 118.786 266.809 117.618 265.105 117.076C263.4 116.534 261.554 116.66 259.939 117.427C258.324 118.195 257.06 119.547 256.404 121.21C255.747 122.874 255.746 124.725 256.401 126.39Z" fill="#F0E8E8"/>
<path opacity="0.1" d="M234.177 150.451C235.23 154.192 245.034 163.152 245.034 163.152C245.034 163.152 248.801 150.386 247.715 146.639C247.507 145.702 247.111 144.818 246.55 144.04C245.989 143.262 245.275 142.606 244.452 142.113C243.629 141.62 242.715 141.3 241.764 141.173C240.814 141.045 239.847 141.113 238.924 141.372C238 141.63 237.139 142.075 236.393 142.677C235.647 143.28 235.031 144.029 234.584 144.877C234.137 145.726 233.867 146.657 233.791 147.613C233.716 148.57 233.836 149.532 234.144 150.44L234.177 150.451Z" fill="#F0E8E8"/>
</g>
<g opacity="0.1">
<path opacity="0.1" d="M339.048 433.283C339.048 433.283 339.559 400.201 357.098 381.195C364.51 373.273 369.15 363.158 370.321 352.371C370.837 347.246 370.883 342.083 370.457 336.949" stroke="#535461" stroke-width="2" stroke-miterlimit="10"/>
<path opacity="0.1" d="M381.439 324.911C380.283 328.609 370.207 337.297 370.207 337.297C370.207 337.297 366.842 324.427 367.998 320.713C368.648 319.049 369.905 317.694 371.514 316.92C373.124 316.146 374.967 316.012 376.671 316.544C378.376 317.075 379.816 318.234 380.701 319.785C381.585 321.337 381.849 323.167 381.439 324.905V324.911Z" fill="#F0E8E8"/>
<path opacity="0.1" d="M386.14 348.945C383.149 351.432 369.979 353.24 369.979 353.24C369.979 353.24 374.138 340.609 377.129 338.117C378.578 337.061 380.374 336.597 382.153 336.818C383.932 337.039 385.56 337.928 386.706 339.306C387.853 340.685 388.433 342.448 388.328 344.238C388.222 346.028 387.44 347.71 386.14 348.945Z" fill="#F0E8E8"/>
<path opacity="0.1" d="M374.74 383.949C370.902 384.589 358.623 379.496 358.623 379.496C358.623 379.496 368.59 370.693 372.422 370.053C374.205 369.874 375.988 370.381 377.411 371.47C378.834 372.558 379.79 374.148 380.084 375.915C380.379 377.683 379.991 379.496 378.999 380.988C378.006 382.48 376.484 383.538 374.74 383.949Z" fill="#F0E8E8"/>
<path opacity="0.1" d="M360.083 408.488C356.408 409.764 343.445 406.821 343.445 406.821C343.445 406.821 351.805 396.487 355.475 395.184C356.366 394.799 357.327 394.603 358.297 394.606C359.268 394.61 360.227 394.814 361.115 395.206C362.003 395.597 362.801 396.167 363.459 396.881C364.117 397.595 364.621 398.437 364.938 399.354C365.256 400.272 365.381 401.245 365.306 402.213C365.231 403.181 364.957 404.123 364.501 404.98C364.046 405.837 363.418 406.591 362.658 407.195C361.898 407.799 361.021 408.239 360.083 408.488Z" fill="#F0E8E8"/>
<path opacity="0.1" d="M355.648 349.559C357.505 352.98 369.078 359.523 369.078 359.523C369.078 359.523 369.876 346.252 367.993 342.831C367.034 341.32 365.537 340.23 363.805 339.781C362.074 339.333 360.236 339.558 358.665 340.413C357.093 341.268 355.905 342.688 355.34 344.385C354.775 346.083 354.875 347.932 355.621 349.559H355.648Z" fill="#F0E8E8"/>
<path opacity="0.1" d="M338.913 378.475C341.708 381.19 354.709 383.96 354.709 383.96C354.709 383.96 351.501 371.057 348.705 368.348C347.335 367.218 345.589 366.647 343.816 366.749C342.044 366.85 340.374 367.616 339.141 368.894C337.908 370.172 337.202 371.868 337.164 373.644C337.125 375.42 337.758 377.145 338.934 378.475H338.913Z" fill="#F0E8E8"/>
<path opacity="0.1" d="M326.525 408.809C328.821 411.948 341.182 416.889 341.182 416.889C341.182 416.889 340.199 403.623 337.925 400.484C336.773 399.112 335.143 398.228 333.365 398.013C331.587 397.798 329.793 398.267 328.348 399.326C326.903 400.385 325.915 401.954 325.583 403.715C325.252 405.476 325.602 407.297 326.563 408.809H326.525Z" fill="#F0E8E8"/>
</g>
<g opacity="0.1">
<path opacity="0.1" d="M257.649 428.079C257.649 428.079 258.16 394.993 275.699 375.987C283.111 368.065 287.751 357.95 288.922 347.163C289.438 342.039 289.484 336.878 289.058 331.746" stroke="#535461" stroke-width="2" stroke-miterlimit="10"/>
<path opacity="0.1" d="M300.04 319.702C298.884 323.416 288.808 332.094 288.808 332.094C288.808 332.094 285.443 319.23 286.599 315.515C286.82 314.571 287.233 313.682 287.812 312.905C288.392 312.127 289.125 311.477 289.967 310.996C290.808 310.514 291.74 310.212 292.704 310.106C293.668 310.001 294.643 310.095 295.568 310.384C296.494 310.672 297.35 311.148 298.084 311.782C298.818 312.416 299.413 313.195 299.832 314.069C300.252 314.943 300.487 315.895 300.522 316.864C300.558 317.833 300.394 318.799 300.04 319.702Z" fill="#F0E8E8"/>
<path opacity="0.1" d="M304.752 343.736C301.761 346.229 288.591 348.032 288.591 348.032C288.591 348.032 292.749 335.401 295.74 332.914C297.189 331.867 298.981 331.41 300.754 331.634C302.527 331.857 304.15 332.746 305.293 334.12C306.437 335.493 307.017 337.25 306.917 339.035C306.816 340.82 306.042 342.5 304.752 343.736Z" fill="#F0E8E8"/>
<path opacity="0.1" d="M293.314 378.746C289.476 379.381 277.197 374.288 277.197 374.288C277.197 374.288 287.164 365.485 290.996 364.85C291.936 364.628 292.912 364.603 293.862 364.774C294.813 364.945 295.718 365.309 296.522 365.845C297.326 366.38 298.012 367.074 298.537 367.885C299.061 368.696 299.414 369.607 299.573 370.56C299.732 371.513 299.694 372.488 299.461 373.426C299.228 374.363 298.805 375.243 298.218 376.01C297.631 376.778 296.893 377.416 296.05 377.887C295.206 378.358 294.275 378.65 293.314 378.746Z" fill="#F0E8E8"/>
<path opacity="0.1" d="M278.706 403.28C275.031 404.561 262.068 401.612 262.068 401.612C262.068 401.612 270.406 391.257 274.076 389.97C274.965 389.592 275.923 389.401 276.889 389.408C277.855 389.416 278.809 389.622 279.693 390.013C280.576 390.405 281.37 390.974 282.025 391.685C282.679 392.396 283.181 393.234 283.499 394.146C283.816 395.059 283.943 396.028 283.872 396.992C283.8 397.956 283.531 398.894 283.082 399.75C282.632 400.606 282.012 401.36 281.259 401.966C280.507 402.573 279.638 403.018 278.706 403.274V403.28Z" fill="#F0E8E8"/>
<path opacity="0.1" d="M274.249 344.355C276.106 347.776 287.679 354.32 287.679 354.32C287.679 354.32 288.477 341.048 286.594 337.627C286.203 336.728 285.63 335.92 284.911 335.255C284.192 334.589 283.342 334.081 282.415 333.762C281.488 333.444 280.506 333.322 279.529 333.404C278.553 333.486 277.604 333.77 276.744 334.239C275.884 334.708 275.13 335.351 274.532 336.127C273.934 336.904 273.503 337.796 273.269 338.748C273.034 339.699 273 340.689 273.169 341.655C273.338 342.62 273.706 343.54 274.249 344.355Z" fill="#F0E8E8"/>
<path opacity="0.1" d="M257.524 373.267C260.32 375.982 273.321 378.757 273.321 378.757C273.321 378.757 270.113 365.849 267.317 363.145C266.674 362.412 265.885 361.82 265.001 361.407C264.117 360.994 263.157 360.769 262.182 360.746C261.207 360.723 260.237 360.903 259.335 361.273C258.432 361.644 257.617 362.198 256.939 362.9C256.261 363.602 255.736 364.437 255.398 365.352C255.059 366.267 254.913 367.242 254.97 368.216C255.027 369.191 255.286 370.142 255.729 371.012C256.173 371.881 256.791 372.649 257.546 373.267H257.524Z" fill="#F0E8E8"/>
<path opacity="0.1" d="M245.126 403.6C247.422 406.739 259.783 411.681 259.783 411.681C259.783 411.681 258.8 398.414 256.526 395.276C256.007 394.46 255.327 393.76 254.528 393.218C253.728 392.677 252.826 392.305 251.877 392.126C250.927 391.947 249.952 391.965 249.01 392.179C248.068 392.392 247.18 392.797 246.401 393.368C245.621 393.939 244.968 394.664 244.48 395.498C243.992 396.332 243.68 397.257 243.565 398.216C243.449 399.175 243.531 400.148 243.806 401.074C244.081 402 244.543 402.86 245.164 403.6H245.126Z" fill="#F0E8E8"/>
</g>
<path d="M220.573 42.3558C221.659 45.7009 218.717 57.3434 218.717 57.3434C218.717 57.3434 209.554 49.5944 208.479 46.233C208.18 45.4275 208.047 44.5697 208.089 43.7115C208.131 42.8532 208.346 42.0124 208.722 41.2397C209.098 40.467 209.626 39.7785 210.275 39.2158C210.924 38.653 211.681 38.2277 212.499 37.9655C213.316 37.7032 214.179 37.6096 215.034 37.6901C215.889 37.7706 216.719 38.0237 217.474 38.434C218.229 38.8443 218.892 39.4034 219.425 40.0775C219.958 40.7515 220.348 41.5266 220.573 42.3558Z" fill="#F0E8E8"/>
<path d="M175.517 116.826C176.603 120.171 173.661 131.814 173.661 131.814C173.661 131.814 164.487 124.065 163.412 120.72C163.157 119.925 163.06 119.087 163.128 118.255C163.196 117.422 163.427 116.611 163.809 115.868C164.19 115.125 164.714 114.465 165.351 113.924C165.987 113.384 166.724 112.974 167.519 112.718C168.314 112.463 169.151 112.366 169.983 112.434C170.815 112.502 171.626 112.734 172.369 113.115C173.111 113.497 173.772 114.021 174.312 114.657C174.852 115.294 175.262 116.031 175.517 116.826Z" fill="#F0E8E8"/>
<path d="M270.439 84.0003C271.524 87.3453 268.577 98.9879 268.577 98.9879C268.577 98.9879 259.408 91.2443 258.333 87.8992C257.816 86.2934 257.958 84.548 258.728 83.0469C259.498 81.5458 260.832 80.412 262.437 79.895C264.042 79.3779 265.787 79.52 267.288 80.2899C268.788 81.0598 269.922 82.3945 270.439 84.0003Z" fill="#F0E8E8"/>
<path d="M319.544 140.275C320.63 143.615 317.688 155.257 317.688 155.257C317.688 155.257 308.514 147.514 307.428 144.169C307.152 143.368 307.038 142.521 307.094 141.677C307.149 140.832 307.373 140.007 307.751 139.25C308.13 138.493 308.655 137.82 309.297 137.269C309.939 136.717 310.685 136.3 311.49 136.041C312.296 135.782 313.145 135.686 313.988 135.759C314.83 135.833 315.65 136.073 316.399 136.468C317.147 136.862 317.81 137.402 318.347 138.056C318.884 138.71 319.286 139.464 319.528 140.275H319.544Z" fill="#F0E8E8"/>
<path d="M286.409 47.8622C284.623 50.8869 273.973 56.4204 273.973 56.4204C273.973 56.4204 273.674 44.4194 275.46 41.3948C276.317 39.9423 277.716 38.89 279.349 38.4695C280.982 38.0489 282.715 38.2944 284.167 39.152C285.619 40.0097 286.671 41.4092 287.091 43.0427C287.512 44.6761 287.266 46.4098 286.409 47.8622Z" fill="#F0E8E8"/>
<path d="M406.513 38.7986C404.727 41.8233 394.076 47.3568 394.076 47.3568C394.076 47.3568 393.783 35.3504 395.569 32.3312C395.984 31.5944 396.542 30.9479 397.211 30.4296C397.879 29.9112 398.644 29.5315 399.46 29.3125C400.277 29.0935 401.129 29.0397 401.967 29.1543C402.805 29.2689 403.611 29.5495 404.339 29.9797C405.067 30.41 405.702 30.9812 406.207 31.6599C406.711 32.3386 407.076 33.1112 407.278 33.9325C407.48 34.7537 407.517 35.6071 407.385 36.4427C407.254 37.2783 406.957 38.0792 406.513 38.7986Z" fill="#F0E8E8"/>
<path d="M164.661 62.1051C161.262 62.9903 149.809 59.39 149.809 59.39C149.809 59.39 158.065 50.6744 161.463 49.7892C162.272 49.5792 163.114 49.5305 163.941 49.646C164.768 49.7614 165.564 50.0387 166.284 50.462C167.004 50.8854 167.634 51.4464 168.137 52.1131C168.641 52.7799 169.008 53.5393 169.218 54.348C169.428 55.1566 169.476 55.9988 169.361 56.8262C169.246 57.6537 168.968 58.4504 168.545 59.1707C168.122 59.891 167.561 60.5209 166.895 61.0244C166.228 61.5279 165.469 61.8951 164.661 62.1051Z" fill="#F0E8E8"/>
<path d="M274.705 199.53C272.919 202.555 262.269 208.088 262.269 208.088C262.269 208.088 261.97 196.087 263.756 193.063C264.181 192.344 264.743 191.715 265.41 191.213C266.077 190.711 266.837 190.346 267.646 190.137C268.454 189.929 269.296 189.882 270.122 189.999C270.949 190.116 271.745 190.395 272.464 190.82C273.182 191.245 273.811 191.807 274.312 192.474C274.814 193.142 275.18 193.902 275.388 194.711C275.596 195.519 275.643 196.361 275.526 197.188C275.409 198.015 275.13 198.811 274.705 199.53Z" fill="#F0E8E8"/>
</g>
<defs>
<linearGradient id="paint0_linear_50_53" x1="116.956" y1="430.534" x2="116.956" y2="88.9689" gradientUnits="userSpaceOnUse">
<stop stop-color="#808080" stop-opacity="0.25"/>
<stop offset="0.54" stop-color="#808080" stop-opacity="0.12"/>
<stop offset="1" stop-color="#808080" stop-opacity="0.1"/>
</linearGradient>
<clipPath id="clip0_50_53">
<rect width="565" height="434" fill="white" transform="translate(0.5 0.287109)"/>
</clipPath>
</defs>
</svg>
