<svg width="254" height="140" viewBox="0 0 254 140" fill="none" xmlns="http://www.w3.org/2000/svg">
<g clip-path="url(#clip0_12_300)">
<path d="M254 130.807C254 123.22 250.161 117.069 245.426 117.069C242.45 117.069 239.828 119.5 238.291 123.189C237.772 122.973 237.215 122.861 236.653 122.859C235.219 122.859 233.894 123.596 232.813 124.842C231.428 120.243 228.489 117.069 225.088 117.069C221.907 117.069 219.134 119.846 217.653 123.966C216.831 123.27 215.795 122.879 214.719 122.859C211.085 122.859 208.139 127.579 208.139 133.402C208.124 135.342 208.476 137.269 209.176 139.078H252.271C253.356 136.777 254 133.913 254 130.807Z" fill="#F0E8E8"/>
<path d="M223.261 51.4809C216.509 36.8324 203.295 24.336 187.332 22.2993C183.111 21.7608 178.704 21.9767 174.788 23.645C169.648 25.8348 165.859 30.2549 162.03 34.3323C153.923 42.963 144.851 50.6277 134.993 57.1745C130.128 60.4048 124.909 63.4187 119.133 64.2453C107.551 65.9024 96.0953 57.9817 90.8133 47.5131C87.5138 40.9736 85.9891 33.2957 83.3219 26.4937C80.25 26.4878 76.5902 26.4889 72.6527 26.5071C61.7691 26.5574 52.9103 26.7187 52.9103 26.7187C52.9103 26.7187 63.4404 12.7306 72.6132 17.9131C75.5446 19.5693 78.6149 21.0472 81.4365 22.2922C79.8335 19.1999 77.8116 16.4176 75.03 14.1806C69.5452 9.7696 62.1166 8.53233 55.0936 8.86082C47.719 9.20577 40.2766 11.1858 34.2841 15.5102C23.6089 23.2138 19.2005 36.7734 15.4275 49.4083L24.5474 53.9933C28.4592 50.6017 34.1796 47.2467 39.4521 50.2256C48.6249 55.4081 59.1622 58.849 59.1622 58.849C59.1622 58.849 50.3752 58.7693 39.4916 58.8196C37.6637 58.8281 35.8951 58.8397 34.2137 58.8531L135.467 109.758C168.863 110.23 194.044 108.418 225.778 109.758C227.433 109.828 231.155 101.127 231.168 98.8377C231.255 82.7 230.013 66.1294 223.261 51.4809ZM190.833 55.8714C179.95 55.9217 171.091 56.0829 171.091 56.0829C171.091 56.0829 181.621 42.0949 190.794 47.2773C199.967 52.4598 210.504 55.9008 210.504 55.9008C210.504 55.9008 201.717 55.8211 190.833 55.8714L190.833 55.8714Z" fill="#F2F2F2"/>
<path opacity="0.3" d="M219.193 103.743C219.193 98.2271 215.787 93.7552 211.586 93.7552C208.945 93.7552 206.62 95.5225 205.256 98.2047C204.788 98.0462 204.297 97.9652 203.802 97.965C202.524 97.9867 201.303 98.5033 200.396 99.4068C199.167 96.0626 196.56 93.7552 193.542 93.7552C190.721 93.7552 188.26 95.7738 186.947 98.7696C186.176 98.2511 185.271 97.9713 184.343 97.965C181.119 97.965 178.506 101.397 178.506 105.63C178.496 107.058 178.811 108.47 179.425 109.758H217.659C218.684 107.921 219.213 105.848 219.193 103.743Z" fill="#F0E8E8"/>
<path d="M254 139.476H19.2852V139.004H253.765L254 139.476Z" fill="#2F2E41"/>
<path d="M234.715 110.23H0V109.758H234.48L234.715 110.23Z" fill="#2F2E41"/>
<path d="M99.6314 66.8082C99.6314 66.8082 101.11 55.9367 103.573 58.9016C106.037 61.8666 103.573 66.314 103.573 66.314L101.602 68.7848L99.6314 67.3023V66.8082Z" fill="#FFB8B8"/>
<path d="M93.7184 70.2673C93.7184 70.2673 98.6459 64.8316 99.6314 65.8199C100.617 66.8082 103.573 67.3024 103.081 69.279C102.588 71.2556 92.2401 77.6797 92.2401 77.6797L93.7184 70.2673Z" fill="#F0E8E8"/>
<path opacity="0.1" d="M93.7184 70.2673C93.7184 70.2673 98.6459 64.8316 99.6314 65.8199C100.617 66.8082 103.573 67.3024 103.081 69.279C102.588 71.2556 92.2401 77.6797 92.2401 77.6797L93.7184 70.2673Z" fill="black"/>
<path d="M65.6316 69.7731V73.7264C65.6316 73.7264 65.1389 82.6213 68.0954 82.1271C71.0519 81.633 69.5736 74.2206 69.5736 74.2206L69.0809 69.7731H65.6316Z" fill="#FFB8B8"/>
<path d="M67.1099 98.4343C67.1099 98.4343 62.6751 105.353 61.1969 105.847C59.7186 106.341 51.8346 110.788 50.8491 115.236L43.9506 124.131L47.3999 128.578C47.3999 128.578 63.1679 111.777 67.6026 110.294C72.0374 108.812 76.4721 101.399 76.4721 101.399L67.1099 98.4343Z" fill="#FFB8B8"/>
<path d="M102.095 87.0687C102.095 87.0687 111.457 88.5512 109.979 94.4811C108.501 100.411 94.2112 112.765 94.2112 112.765L93.7184 115.73L88.2982 116.718L85.8344 114.247L86.3272 112.765C86.3272 112.765 92.2402 107.329 92.7329 105.353C93.2257 103.376 98.6459 95.4694 101.11 94.9753L97.6604 92.9986L102.095 87.0687Z" fill="#FFB8B8"/>
<path d="M45.4289 124.131C45.4289 124.131 47.3999 121.166 44.4434 121.66C41.4869 122.154 39.5159 122.648 39.5159 124.625C39.5159 126.601 41.9796 140.438 44.9361 139.45C47.8926 138.461 45.4289 134.014 45.4289 134.014C45.4289 134.014 46.9071 130.061 47.8926 129.566C48.8781 129.072 48.8781 126.601 47.8926 126.601C46.9071 126.601 44.9361 125.119 45.4289 124.131Z" fill="#2F2E41"/>
<path d="M87.3127 113.259C87.3127 113.259 87.3127 110.788 85.3417 113.259C83.3707 115.73 82.3852 117.707 84.3562 119.189C86.3272 120.672 93.2257 124.131 93.2257 124.131C93.2257 124.131 100.617 125.613 99.6314 122.154C99.6314 122.154 94.7039 119.683 94.7039 117.707C94.7039 115.73 94.7039 112.271 93.2257 113.259C91.7474 114.247 87.3127 114.742 87.3127 113.259Z" fill="#2F2E41"/>
<path d="M77.9504 76.1972C77.9504 76.1972 71.0519 77.1855 71.5447 87.0687C71.5447 87.0687 62.6752 95.9635 65.1389 98.9285C67.6027 101.893 73.0229 107.329 74.9939 105.847C76.9649 104.364 82.8779 92.9986 82.8779 92.9986C82.8779 92.9986 96.6749 97.9402 99.1387 95.4694C101.602 92.9986 104.066 87.0687 104.066 87.0687L91.7474 80.6446L77.9504 76.1972Z" fill="#2F2E41"/>
<path d="M97.1676 48.0302C100.433 48.0302 103.081 45.3753 103.081 42.1003C103.081 38.8253 100.433 36.1703 97.1676 36.1703C93.902 36.1703 91.2546 38.8253 91.2546 42.1003C91.2546 45.3753 93.902 48.0302 97.1676 48.0302Z" fill="#FFB8B8"/>
<path d="M92.7329 42.5944C92.7329 42.5944 89.2836 48.0302 88.2981 48.5243C87.3126 49.0185 95.1966 53.9601 95.1966 53.9601C95.1966 53.9601 95.1967 47.536 97.6604 46.0535L92.7329 42.5944Z" fill="#FFB8B8"/>
<path d="M92.2401 48.0302C92.2401 48.0302 84.3561 45.5594 82.8779 49.5126C81.3996 53.4659 77.9504 60.8783 78.4431 65.8199C78.9359 70.7615 79.9214 69.7732 78.4431 71.2556C76.9649 72.7381 75.9794 71.7498 76.4721 73.7264C76.9649 75.7031 77.4576 75.7031 76.9649 76.6914C76.4721 77.6797 82.8779 81.1388 88.2982 81.633L93.7184 82.1271C93.7184 82.1271 93.7184 73.2323 94.7039 71.2556C95.6894 69.279 97.6604 65.3257 97.6604 63.8433V59.9207C97.6604 57.31 96.981 54.7444 95.6894 52.4776C95.6894 52.4776 92.7329 48.0302 92.2401 48.0302Z" fill="#F0E8E8"/>
<path d="M86.3271 50.0068C86.3271 50.0068 68.0954 51.4892 66.1244 56.4308C64.1534 61.3724 63.1679 71.2556 65.1389 71.2556C67.1099 71.2556 69.5736 72.2439 70.0664 71.2556C70.5591 70.2673 72.5301 60.3841 73.0229 60.3841C73.5156 60.3841 88.2981 58.9016 88.2981 58.9016C88.2981 58.9016 94.7039 50.9951 86.3271 50.0068Z" fill="#F0E8E8"/>
<path d="M97.4052 40.6302C97.4052 40.6302 98.9744 37.8955 100.936 40.2708C102.897 42.6461 106.088 38.2811 105.598 37.3497C105.108 36.4182 103.379 37.3915 100.414 36.4197C97.4498 35.4479 91.7394 33.4681 90.7831 39.9263C89.8267 46.3844 92.1044 45.7074 92.1044 45.7074C92.1044 45.7074 93.1485 39.9848 94.092 41.6285L95.0356 43.2723L95.8541 43.4744L97.4052 40.6302Z" fill="#2F2E41"/>
<path d="M153.178 25.4981C157.162 25.4981 160.392 22.2589 160.392 18.2633C160.392 14.2676 157.162 11.0285 153.178 11.0285C149.194 11.0285 145.964 14.2676 145.964 18.2633C145.964 22.2589 149.194 25.4981 153.178 25.4981Z" fill="#2F2E41"/>
<path d="M150.872 23.6183C150.872 23.6183 151.245 30.3572 150.499 30.3572C149.752 30.3572 155.165 33.5395 155.165 33.5395L158.525 31.6676V29.4213C158.525 29.4213 154.045 28.8597 155.912 23.9927C157.779 19.1257 150.872 23.6183 150.872 23.6183Z" fill="#9F616A"/>
<path d="M135.193 97.5593L134.633 103.175L136.499 103.737L137.993 102.239L138.553 97.5593H135.193Z" fill="#9F616A"/>
<path d="M162.072 100.742L163.005 104.298L165.618 105.983L168.418 104.486L165.245 99.2441L162.072 100.742Z" fill="#9F616A"/>
<path d="M152.645 26.5198C155.635 26.5198 158.059 24.0893 158.059 21.0912C158.059 18.0931 155.635 15.6626 152.645 15.6626C149.656 15.6626 147.232 18.0931 147.232 21.0912C147.232 24.0893 149.656 26.5198 152.645 26.5198Z" fill="#9F616A"/>
<path d="M149.379 41.4016L148.072 40.84C148.072 40.84 145.832 39.5297 145.646 36.909C145.459 34.2883 147.512 30.9188 147.512 30.9188L150.499 29.9828L154.008 32.847L154.045 37.4706L149.379 41.4016Z" fill="#9F616A"/>
<path d="M148.072 31.2932L147.326 30.9188C147.326 30.9188 143.592 30.7316 143.219 35.2243C142.846 39.7169 141.539 47.2046 141.539 47.2046C141.539 47.2046 138.553 52.446 138.739 58.0618L137.246 62.9288C137.246 62.9288 135.193 70.0421 137.619 70.0421C140.046 70.0421 139.859 62.3672 139.859 62.3672C139.859 62.3672 144.339 51.51 144.712 49.6381C145.086 47.7662 148.259 38.9681 147.326 36.5346C146.392 34.1011 148.072 31.2932 148.072 31.2932Z" fill="#9F616A"/>
<path d="M150.872 43.0864V45.1455C150.872 45.1455 152.179 46.643 151.619 47.579C151.059 48.515 150.499 50.3869 150.499 50.3869L153.112 54.5051L161.885 55.2539L163.63 43.5319L150.872 43.0864Z" fill="#9F616A"/>
<path d="M159.085 29.9829L160.578 29.2341C160.578 29.2341 163.752 26.9878 166.365 26.6134L174.391 21.1848L179.618 8.64291C179.618 8.64291 179.431 1.90397 180.924 2.65274C182.418 3.40151 182.231 9.20449 182.231 9.20449C182.231 9.20449 179.431 20.8104 177.004 23.9927C174.578 27.175 165.805 32.4164 165.805 32.4164C165.805 32.4164 163.378 35.2243 163.565 36.5346C163.752 37.845 159.085 29.9829 159.085 29.9829Z" fill="#9F616A"/>
<path d="M152.179 50.3869C152.179 50.3869 150.126 49.0765 148.819 51.3228C147.512 53.5692 145.086 54.1307 143.592 60.8697C142.099 67.6086 138.553 78.2786 137.619 79.0274C136.686 79.7761 132.766 87.6382 135.006 98.6826H138.739L141.913 82.7712C141.913 82.7712 152.179 70.0421 152.925 64.8007L156.285 84.4559C156.285 84.4559 156.472 91.9437 159.272 95.5003L162.258 102.614L166.178 100.742L161.698 82.7712C161.698 82.7712 163.938 64.6135 162.445 59.5593L162.23 52.9332C162.23 52.9332 156.099 53.1948 152.179 50.3869Z" fill="#2F2E41"/>
<path d="M136.499 102.239H134.259C133.886 102.239 130.9 104.673 132.206 105.983C133.513 107.293 135.566 109.727 135.566 109.727C135.566 109.727 142.846 110.655 143.032 109.345C143.219 108.035 139.859 105.234 139.859 105.234L138.926 102.239C138.926 102.239 137.059 100.18 136.499 102.239Z" fill="#2F2E41"/>
<path d="M166.178 104.111C166.178 104.111 163.005 103.924 162.445 103.737C161.885 103.55 160.765 108.604 162.445 108.978C164.125 109.353 171.031 109.914 171.031 109.914C171.031 109.914 176.444 109.727 176.071 108.229C175.698 106.732 168.418 103.737 168.418 103.737C168.418 103.737 167.485 101.865 166.178 104.111Z" fill="#2F2E41"/>
<path d="M151.432 29.7957L150.499 29.2341L149.379 30.1701C149.379 30.1701 152.739 32.4164 151.992 34.4755C151.245 36.5346 148.072 40.8401 148.072 40.8401C148.072 40.8401 150.872 44.0223 150.872 45.1455C150.872 45.1455 158.152 42.5248 163.565 45.1455C163.565 45.1455 163.565 41.4016 164.312 40.6529C165.058 39.9041 165.432 37.2834 163.565 35.0371C162.25 33.3842 161.064 31.6319 160.018 29.7957L158.152 28.6725L157.19 28.9784C157.19 28.9784 159.085 31.106 157.219 31.2932C155.352 31.4805 152.365 30.9188 151.432 29.7957Z" fill="#F0E8E8"/>
<path d="M158.451 5.92859C157.816 6.63849 156.948 7.09476 156.005 7.21345C154.374 7.44706 155.655 10.0168 155.655 10.0168C155.655 10.0168 155.19 9.08234 156.121 8.2647C157.053 7.44706 158.451 6.97984 158.451 5.92859Z" fill="#2F2E41"/>
<path d="M155.307 12.5703C156.417 12.5703 157.317 11.6676 157.317 10.5541C157.317 9.44055 156.417 8.53784 155.307 8.53784C154.197 8.53784 153.296 9.44055 153.296 10.5541C153.296 11.6676 154.197 12.5703 155.307 12.5703Z" fill="#2F2E41"/>
<path d="M157.654 12.5394C156.101 11.7258 153.429 11.0859 152.009 11.1317L152.368 9.75476C153.625 10.6111 156.283 11.2629 158.013 11.1625L157.654 12.5394Z" fill="#F0E8E8"/>
<path d="M154.445 12.6606C154.445 12.6606 151.998 15.8165 147.103 16.5178C142.208 17.2191 146.054 24.9333 146.054 24.9333C146.054 24.9333 144.655 22.1282 147.452 19.6736C150.249 17.2191 154.445 15.8165 154.445 12.6606Z" fill="#2F2E41"/>
<path d="M154.632 12.4734C154.632 12.4734 156.031 17.3825 158.128 18.0838C160.226 18.7851 159.177 26.1487 155.681 26.85C155.681 26.85 158.653 22.8176 156.905 19.6617C155.156 16.5059 154.107 14.0514 154.632 12.4734Z" fill="#2F2E41"/>
<path d="M187.551 4.24384H174.671V5.74138H187.551V4.24384Z" fill="#2F2E41"/>
<path d="M187.551 9.48525C188.169 9.48525 188.671 7.47383 188.671 4.99263C188.671 2.51142 188.169 0.5 187.551 0.5C186.932 0.5 186.431 2.51142 186.431 4.99263C186.431 7.47383 186.932 9.48525 187.551 9.48525Z" fill="#2F2E41"/>
<path d="M174.671 9.48525C175.29 9.48525 175.791 7.47383 175.791 4.99263C175.791 2.51142 175.29 0.5 174.671 0.5C174.053 0.5 173.551 2.51142 173.551 4.99263C173.551 7.47383 174.053 9.48525 174.671 9.48525Z" fill="#2F2E41"/>
<path d="M194.084 104.957H181.204V106.455H194.084V104.957Z" fill="#2F2E41"/>
<path d="M194.084 110.199C194.702 110.199 195.204 108.187 195.204 105.706C195.204 103.225 194.702 101.213 194.084 101.213C193.465 101.213 192.964 103.225 192.964 105.706C192.964 108.187 193.465 110.199 194.084 110.199Z" fill="#2F2E41"/>
<path d="M181.204 110.199C181.823 110.199 182.324 108.187 182.324 105.706C182.324 103.225 181.823 101.213 181.204 101.213C180.586 101.213 180.084 103.225 180.084 105.706C180.084 108.187 180.586 110.199 181.204 110.199Z" fill="#2F2E41"/>
<path opacity="0.3" d="M45.6259 103.743C45.6259 98.2271 42.2203 93.7552 38.0192 93.7552C35.3787 93.7552 33.0532 95.5225 31.6893 98.2047C31.2209 98.0462 30.7299 97.9652 30.2356 97.965C28.9572 97.9867 27.7367 98.5033 26.8295 99.4068C25.6001 96.0626 22.993 93.7552 19.9754 93.7552C17.154 93.7552 14.6932 95.7738 13.38 98.7696C12.6097 98.2511 11.7043 97.9713 10.7766 97.965C7.55253 97.965 4.9389 101.397 4.9389 105.63C4.92946 107.058 5.24396 108.47 5.85862 109.758H44.0918C45.1171 107.921 45.6459 105.848 45.6259 103.743Z" fill="#F0E8E8"/>
</g>
<defs>
<clipPath id="clip0_12_300">
<rect width="254" height="139" fill="white" transform="translate(0 0.5)"/>
</clipPath>
</defs>
</svg>
