<svg width="1440" height="1024" viewBox="0 0 1440 1024" fill="none" xmlns="http://www.w3.org/2000/svg">
<path d="M1440 530.1C1382.3 524 1324.6 518 1280.5 490.7C1236.5 463.5 1206.2 415.2 1159.6 385.9C1113.1 356.6 1050.3 346.4 1011.1 311.6C972 276.8 956.5 217.3 943.5 161.3C930.6 105.3 920.3 52.6 909.9 0H1440V530.1Z" fill="#F5DAD9"/>
<path d="M1440 265C1411.1 262 1382.3 259 1360.3 245.4C1338.3 231.8 1323.1 207.6 1299.8 193C1276.5 178.3 1245.1 173.2 1225.6 155.8C1206 138.4 1198.2 108.7 1191.8 80.7C1185.3 52.6 1180.1 26.3 1175 0H1440V265Z" fill="#F8CBCA"/>
<path d="M0 493.9C46.6 537.7 93.2 581.6 133.8 612.2C174.4 642.8 208.9 660.2 252.7 676.1C296.6 692.1 349.8 706.6 396.4 736C443 765.4 483 809.7 504.1 860.2C525.3 910.7 527.7 967.3 530.1 1024H0V493.9Z" fill="#F5DAD9"/>
<path d="M0 759C23.3 780.9 46.6 802.8 66.9 818.1C87.2 833.4 104.4 842.1 126.4 850.1C148.3 858 174.9 865.3 198.2 880C221.5 894.7 241.5 916.9 252.1 942.1C262.7 967.3 263.9 995.7 265 1024H0V759Z" fill="#F8CBCA"/>
</svg>
