<svg width="1440" height="942" viewBox="0 0 1440 942" fill="none" xmlns="http://www.w3.org/2000/svg">
<path d="M0 411C46.6 454.8 93.2 498.7 133.8 529.3C174.4 559.9 208.9 577.3 252.7 593.2C296.6 609.2 349.8 623.7 396.4 653.1C443 682.5 483 726.8 504.1 777.3C525.3 827.8 527.7 884.4 530.1 941.1H0V411Z" fill="#F5DAD9"/>
<path d="M0 676.1C23.3 698 46.6 719.9 66.9 735.2C87.2 750.5 104.4 759.2 126.4 767.2C148.3 775.1 174.9 782.4 198.2 797.1C221.5 811.8 241.5 834 252.1 859.2C262.7 884.4 263.9 912.8 265 941.1H0V676.1Z" fill="#F8CBCA"/>
</svg>
