<svg width="1440" height="1024" viewBox="0 0 1440 1024" fill="none" xmlns="http://www.w3.org/2000/svg">
<path d="M530.1 0C486.3 46.6 442.4 93.2 411.8 133.8C381.2 174.4 363.8 208.9 347.9 252.7C331.9 296.6 317.4 349.8 288 396.4C258.6 443 214.3 483 163.8 504.1C113.3 525.3 56.7 527.7 0 530.1L0 0L530.1 0Z" fill="#F5DAD9"/>
<path d="M265 0C243.1 23.3 221.2 46.6 205.9 66.9C190.6 87.2 181.9 104.4 173.9 126.4C166 148.3 158.7 174.9 144 198.2C129.3 221.5 107.1 241.5 81.9 252.1C56.7 262.7 28.3 263.9 0 265L0 0L265 0Z" fill="#F8CBCA"/>
</svg>
