<svg width="1440" height="1024" viewBox="0 0 1440 1024" fill="none" xmlns="http://www.w3.org/2000/svg">
<path d="M1441.1 529.1C1383.4 523 1325.7 517 1281.6 489.7C1237.6 462.5 1207.3 414.2 1160.7 384.9C1114.2 355.6 1051.4 345.4 1012.2 310.6C973.1 275.8 957.6 216.3 944.6 160.3C931.7 104.3 921.4 51.6 911 -1H1441.1V529.1Z" fill="#F5DAD9"/>
<path d="M1441.1 264C1412.2 261 1383.4 258 1361.4 244.4C1339.4 230.8 1324.2 206.6 1300.9 192C1277.6 177.3 1246.2 172.2 1226.7 154.8C1207.1 137.4 1199.3 107.7 1192.9 79.7C1186.4 51.6 1181.2 25.3 1176.1 -1H1441.1V264Z" fill="#F8CBCA"/>
</svg>
