<svg width="1440" height="1125" viewBox="0 0 1440 1125" fill="none" xmlns="http://www.w3.org/2000/svg">
<path d="M910 1125.11C916.1 1061.72 922.1 998.328 949.4 949.878C976.6 901.538 1024.9 868.249 1054.2 817.053C1083.5 765.967 1093.7 696.973 1128.5 653.906C1163.3 610.95 1222.8 593.921 1278.8 579.639C1334.8 565.466 1387.5 554.15 1440.1 542.725V1125.11H910Z" fill="#F5DAD9"/>
<path d="M1175.1 1125.11C1178.1 1093.36 1181.1 1061.72 1194.7 1037.55C1208.3 1013.38 1232.5 996.68 1247.1 971.082C1261.8 945.483 1266.9 910.986 1284.3 889.563C1301.7 868.03 1331.4 859.46 1359.4 852.429C1387.5 845.288 1413.8 839.575 1440.1 833.972V1125.11H1175.1Z" fill="#F8CBCA"/>
</svg>
